{
.appVersion = "3134";
.formatVersion = 3;
DisplayStrings = (
abu
);
customParameters = (
{
name = vendorID;
value = ITFO;
},
{
name = panose;
value = (
0,
0,
4,
0,
0,
0,
0,
0,
0,
0
);
},
{
name = unicodeRanges;
value = (
0,
1,
2,
15
);
},
{
name = codePageRanges;
value = (
"1252",
"1250",
"1254",
"1257",
"bit 29"
);
},
{
name = fsType;
value = (
);
},
{
name = glyphOrder;
value = (
.notdef,
.null,
CR,
space,
dvR,
dvKx,
dvGx,
dvJx,
uni20A8,
uni20B9,
uni200C,
uni200D,
uni25CC,
dvEyelash,
dvRashtrasign,
dvKx_RA,
dvGx_RA,
dvJx_RA,
dvKx_R,
dvGx_R,
dvJx_R,
dvKx_KxA,
dvKx_TA,
dvKx_PHA,
dvKx_PHxA,
dvKx_BA,
dvKx_MA,
dvJx_JxA,
dvJx_YA,
dvEyelash_YA,
dvEyelash_HA,
dvmII.aLong,
dvmII_Anusvara,
dvmII_Reph,
dvmII_Reph_Anusvara,
dvmII_Anusvara.aLong,
dvmII_Reph.aLong,
dvmII_Reph_Anusvara.aLong,
dvmE_Anusvara,
dvmE_Reph,
dvmE_Reph_Anusvara,
dvmAI_Anusvara,
dvmAI_Reph,
dvmAI_Reph_Anusvara,
dvmO_Anusvara,
dvmO_Reph,
dvmO_Reph_Anusvara,
dvmAU_Anusvara,
dvmAU_Reph,
dvmAU_Reph_Anusvara,
dvmEcandra_Anusvara,
dvmOcandra_Anusvara,
dvRA_mU,
dvRA_mUU,
dvmI.a01,
dvmI.a02,
dvmI.a03,
dvmI.a04,
dvmI.a05,
dvmI.a06,
dvmI.a07,
dvmI.a08,
dvmI.a09,
dvmI.a10,
dvmI.a11,
dvmI.a12,
dvmI.a13,
dvmI.a14,
dvmI.a15,
dvmI.a16,
dvmI.a17,
dvmI.a18,
dvmI.a19,
dvmI.a20,
dvmI.a21,
dvmI.a22,
dvmI.a23,
dvmI.a24,
exclam,
quotedbl,
numbersign,
dollar,
percent,
ampersand,
quotesingle,
parenleft,
parenright,
asterisk,
plus,
comma,
hyphen,
period,
slash,
zero,
one,
two,
three,
four,
five,
six,
seven,
eight,
nine,
colon,
semicolon,
less,
equal,
greater,
question,
at,
A,
B,
C,
D,
E,
F,
G,
H,
I,
J,
K,
L,
M,
N,
O,
P,
Q,
R,
S,
T,
U,
V,
W,
X,
Y,
Z,
bracketleft,
backslash,
bracketright,
asciicircum,
underscore,
grave,
a,
b,
c,
d,
e,
f,
g,
h,
i,
j,
k,
l,
m,
n,
o,
p,
q,
r,
s,
t,
u,
v,
w,
x,
y,
z,
braceleft,
bar,
braceright,
asciitilde,
uni00A0,
exclamdown,
cent,
sterling,
currency,
yen,
brokenbar,
section,
dieresis,
copyright,
ordfeminine,
guillemotleft,
logicalnot,
uni00AD,
registered,
macron,
degree,
plusminus,
uni00B2,

glyphs = (
{
glyphname = .notdef;
lastChange = "2022-10-20 16:10:08 +0000";
layers = (
{
layerId = m01;
shapes = (
{
closed = 1;
nodes = (
(-62,0,l),
(438,0,l),
(562,700,l),
(62,700,l)
);
},
{
closed = 1;
nodes = (
(258,395,l),
(133,650,l),
(473,650,l)
);
},
{
closed = 1;
nodes = (
(280,350,l),
(495,605,l),
(405,95,l)
);
},
{
closed = 1;
nodes = (
(27,50,l),
(242,305,l),
(367,50,l)
);
},
{
closed = 1;
nodes = (
(95,605,l),
(220,350,l),
(5,95,l)
);
}
);
width = 500;
}
);
note = ".notdef";
},
{
glyphname = dvR;
lastChange = "2022-10-20 16:10:08 +0000";
layers = (
{
layerId = m01;
shapes = (
{
closed = 1;
nodes = (
(271,-289,l),
(338,-289,l),
(250,-96,l),
(186,-96,l)
);
},
{
closed = 1;
nodes = (
(52,686,l),
(454,686,l),
(435,579,ls),
(420,491,o),
(313,402,o),
(226,402,qs),
(119,402,l),
(85,206,ls),
(67,109,o),
(146,-9,o),
(239,-9,qs),
(327,-9,o),
(447,100,o),
(463,192,qs),
(466,208,l),
(404,208,l),
(401,191,ls),
(389,125,o),
(306,46,o),
(247,46,qs),
(183,46,o),
(135,132,o),
(147,203,qs),
(173,349,l),
(236,349,ls),
(346,349,o),
(480,467,o),
(499,579,qs),
(518,686,l),
(646,686,l),
(656,740,l),
(62,740,l)
);
}
);
width = 536;
}
);
note = dvR;
},
{
glyphname = dvKx;
lastChange = "2022-10-20 16:10:08 +0000";
layers = (
{
layerId = m01;
shapes = (
{
closed = 1;
nodes = (
(417,0,l),
(478,0,l),
(536,330,ls),
(544,375,o),
(594,458,o),
(677,511,o),
(732,511,qs),
(777,511,o),
(845,469,o),
(874,391,o),
(865,339,q),
(929,339,l),
(941,406,o),
(904,509,o),
(819,566,o),
(759,566,qs),
(691,566,o),
(589,502,o),
(557,450,q),
(599,686,l),
(990,686,l),
(1000,740,l),
(43,740,l),
(33,686,l),
(538,686,l),
(497,453,l),
(483,504,o),
(402,566,o),
(332,566,qs),
(270,566,o),
(161,510,o),
(87,407,o),
(75,339,qs),
(62,268,o),
(99,163,o),
(187,106,o),
(249,106,qs),
(318,106,o),
(425,170,o),
(456,221,q)
);
},
{
closed = 1;
nodes = (
(203,161,o),
(125,256,o),
(140,338,qs),
(149,390,o),
(208,469,o),
(292,511,o),
(338,511,qs),
(395,511,o),
(462,460,o),
(484,380,o),
(476,336,qs),
(476,335,ls),
(469,294,o),
(418,213,o),
(332,161,o),
(276,161,qs)
);
},
{
closed = 1;
nodes = (
(226,-72,o),
(258,-46,o),
(261,-27,qs),
(265,-7,o),
(243,20,o),
(223,20,qs),
(203,20,o),
(171,-7,o),
(167,-27,qs),
(164,-46,o),
(186,-72,o),
(206,-72,qs)
);
}
);
width = 748;
}
);
note = dvKx;
},
{
glyphname = dvGx;
lastChange = "2022-10-20 16:10:08 +0000";
layers = (
{
layerId = m01;
shapes = (
{
closed = 1;
nodes = (
(22,686,l),
(347,686,l),
(297,402,ls),
(289,356,o),
(236,294,o),
(187,294,qs),
(139,294,o),
(107,355,o),
(114,399,qs),
(120,430,l),
(58,430,l),
(55,420,o),
(51,400,qs),
(39,328,o),
(102,238,o),
(178,238,qs),
(257,238,o),
(348,331,o),
(361,404,qs),
(411,686,l),
(542,686,l),
(551,740,l),
(31,740,l)
);
},
{
closed = 1;
nodes = (
(172,55,o),
(203,81,o),
(207,100,qs),
(210,120,o),
(188,147,o),
(168,147,qs),
(148,147,o),
(116,120,o),
(113,100,qs),
(109,81,o),
(132,55,o),
(152,55,qs)
);
}
);
width = 462;
}
);
note = dvGx;
},
{
glyphname = dvJx;
lastChange = "2022-10-20 16:10:08 +0000";
layers = (
{
layerId = m01;
shapes = (
{
closed = 1;
nodes = (
(313,139,o),
(432,247,o),
(447,335,qs),
(467,447,l),
(708,447,l),
(718,502,l),
(415,502,l),
(385,335,ls),
(374,273,o),
(294,196,o),
(238,196,qs),
(182,196,o),
(131,273,o),
(142,335,qs),
(172,502,l),
(108,502,l),
(78,335,ls),
(63,247,o),
(141,139,o),
(227,139,qs)
);
},
{
closed = 1;
nodes = (
(30,686,l),
(750,686,l),
(760,740,l),
(40,740,l)
);
},
{
closed = 1;
nodes = (
(220,-39,o),
(252,-13,o),
(255,6,qs),
(259,26,o),
(237,53,o),
(217,53,qs),
(197,53,o),
(165,26,o),
(161,6,qs),
(158,-13,o),
(180,-39,o),
(200,-39,qs)
);
}
);
width = 544;
}
);
note = dvJx;
},
{
glyphname = uni20A8;
lastChange = "2022-10-20 16:10:08 +0000";
layers = (
{
layerId = m01;
shapes = (
{
closed = 1;
nodes = (
(470,428,o),
(377,351,o),
(292,351,qs),
(151,351,l),
(202,643,l),
(343,643,ls),
(507,643,o),
(482,496,qs)
);
},
{
closed = 1;
nodes = (
(142,699,l),
(19,0,l),
(89,0,l),
(141,294,l),
(249,294,l),
(389,0,l),
(475,0,l),
(328,297,l),
(425,308,o),
(539,415,o),
(554,496,qs),
(570,587,o),
(470,699,o),
(353,699,qs)
);
},
{
closed = 1;
nodes = (
(601,351,o),
(641,293,o),
(708,265,o),
(764,252,qs),
(812,241,o),
(867,220,o),
(900,179,o),
(894,145,qs),
(886,102,o),
(814,48,o),
(759,48,qs),
(696,48,o),
(633,112,o),
(637,163,q),
(565,163,l),
(558,83,o),
(657,-8,o),
(748,-8,qs),
(803,-8,o),
(894,30,o),
(955,100,o),
(962,144,qs),
(972,197,o),
(931,257,o),
(863,284,o),
(806,298,qs),
(757,310,o),
(704,330,o),
(673,369,o),
(679,402,qs),
(686,444,o),
(760,498,o),
(816,498,qs),
(876,498,o),
(932,434,o),
(928,383,q),
(999,383,l),
(1007,462,o),
(916,554,o),
(830,554,qs),
(772,554,o),
(677,514,o),
(617,444,o),
(610,400,qs)
);
}
);
width = 1074;
}
);
note = uni20A8;
unicode = 8360;
},
{
glyphname = uni20B9;
lastChange = "2022-10-20 16:10:08 +0000";
layers = (
{
layerId = m01;
shapes = (
{
closed = 1;
nodes = (
(108,647,l),
(446,647,l),
(428,544,l),
(424,523,l),
(86,523,l),
(77,471,l),
(412,471,l),
(396,412,o),
(335,358,o),
(219,340,o),
(102,340,q),
(77,196,ls),
(60,99,o),
(140,-10,o),
(237,-10,qs),
(330,-10,o),
(448,91,o),
(466,189,q),
(401,189,l),
(389,120,o),
(312,46,o),
(248,46,qs),
(116,46,o),
(143,196,qs),
(159,290,l),
(260,290,o),
(384,323,o),
(457,400,o),
(477,471,q),
(621,471,l),
(630,523,l),
(490,523,l),
(494,543,l),
(512,647,l),
(652,647,l),
(662,700,l),
(118,700,l)
);
}
);
width = 646;
}
);
note = uni20B9;
unicode = 8377;
},
{
glyphname = uni200C;
lastChange = "2022-10-20 16:10:08 +0000";
layers = (
{
layerId = m01;
shapes = (
{
closed = 1;
nodes = (
(-68,-230,l),
(116,811,l),
(69,811,l),
(-115,-230,l)
);
}
);
width = 0;
}
);
note = uni200C;
unicode = 8204;
},
{
glyphname = uni200D;
lastChange = "2022-10-20 16:10:08 +0000";
layers = (
{
layerId = m01;
shapes = (
{
closed = 1;
nodes = (
(181,593,l),
(102,688,l),
(215,784,l),
(188,816,l),
(75,721,l),
(-3,816,l),
(-42,783,l),
(37,688,l),
(-73,595,l),
(-46,562,l),
(36,635,l),
(-116,-230,l),
(-69,-230,l),
(83,635,l),
(142,560,l)
);
}
);
width = 0;
}
);
note = uni200D;
unicode = 8205;
},
{
glyphname = uni25CC;
lastChange = "2022-10-20 16:10:08 +0000";
layers = (
{
layerId = m01;
shapes = (
{
closed = 1;
nodes = (
(586,428,o),
(566,451,o),
(547,451,qs),
(528,451,o),
(500,428,o),
(496,409,qs),
(493,390,o),
(513,367,o),
(532,367,qs),
(551,367,o),
(579,390,o),
(582,409,qs)
);
},
{
closed = 1;
nodes = (
(159,142,o),
(139,165,o),
(120,165,qs),
(101,165,o),
(73,142,o),
(70,123,qs),
(67,104,o),
(86,81,o),
(105,81,qs),
(124,81,o),
(153,104,o),
(156,123,qs)
);
},
{
closed = 1;
nodes = (
(244,66,o),
(224,89,o),
(205,89,qs),
(186,89,o),
(158,66,o),
(154,47,qs),
(151,28,o),
(171,5,o),
(190,5,qs),
(209,5,o),
(237,28,o),
(240,47,qs)
);
},
{
closed = 1;
nodes = (
(134,255,o),
(114,278,o),
(95,278,qs),
(76,278,o),
(48,255,o),
(45,236,qs),
(41,217,o),
(61,194,o),
(80,194,qs),
(99,194,o),
(127,217,o),
(131,236,qs)
);
},
{
closed = 1;
nodes = (
(365,52,o),
(345,75,o),
(326,75,qs),
(307,75,o),
(279,52,o),
(276,33,qs),
(273,14,o),
(293,-9,o),
(312,-9,qs),
(331,-9,o),
(359,14,o),
(362,33,qs)
);
},
{
closed = 1;
nodes = (
(170,376,o),
(151,399,o),
(132,399,qs),
(113,399,o),
(84,376,o),
(81,357,qs),
(78,338,o),
(98,315,o),
(117,315,qs),
(136,315,o),
(164,338,o),
(167,357,qs)
);
},
{
closed = 1;
nodes = (
(488,98,o),
(469,121,o),
(450,121,qs),
(431,121,o),
(402,98,o),
(399,79,qs),
(396,60,o),
(416,37,o),
(435,37,qs),
(454,37,o),
(482,60,o),
(485,79,qs)
);
},
{
closed = 1;
nodes = (
(264,475,o),
(244,498,o),
(225,498,qs),
(206,498,o),
(178,475,o),
(175,456,qs),
(171,437,o),
(191,414,o),
(210,414,qs),
(229,414,o),
(257,437,o),
(261,456,qs)
);
},
{
closed = 1;
nodes = (
(578,194,o),
(558,217,o),
(539,217,qs),
(520,217,o),
(492,194,o),
(489,175,qs),
(486,156,o),
(506,133,o),
(525,133,qs),
(544,133,o),
(572,156,o),
(575,175,qs)
);
},
{
closed = 1;
nodes = (
(388,517,o),
(368,540,o),
(349,540,qs),
(330,540,o),
(302,517,o),
(299,498,qs),
(296,479,o),
(316,456,o),
(335,456,qs),
(354,456,o),
(382,479,o),
(385,498,qs)
);
},
{
closed = 1;
nodes = (
(610,314,o),
(590,337,o),
(571,337,qs),
(552,337,o),
(524,314,o),
(520,295,qs),
(517,276,o),
(537,253,o),
(556,253,qs),
(575,253,o),
(603,276,o),
(606,295,qs)
);
},
{
closed = 1;
nodes = (
(507,502,o),
(487,525,o),
(468,525,qs),
(449,525,o),
(421,502,o),
(417,483,qs),
(414,464,o),
(434,441,o),
(453,441,qs),
(472,441,o),
(500,464,o),
(503,483,qs)
);
}
);
width = 651;
}
);
note = uni25CC;
unicode = 9676;
},
{
glyphname = dvEyelash;
lastChange = "2022-10-20 16:10:08 +0000";
layers = (
{
layerId = m01;
shapes = (
{
closed = 1;
nodes = (
(324,438,l),
(323,438,l),
(281,427,o),
(247,427,qs),
(174,427,o),
(81,496,o),
(93,570,q),
(32,570,l),
(15,471,o),
(136,379,o),
(230,379,qs),
(261,379,o),
(320,390,o),
(338,398,q)
);
},
{
closed = 1;
nodes = (
(-7,686,l),
(367,686,l),
(377,740,l),
(3,740,l)
);
}
);
width = 278;
}
);
note = dvEyelash;
},
{
glyphname = dvRashtrasign;
lastChange = "2022-10-20 16:10:08 +0000";
layers = (
{
layerId = m01;
shapes = (
{
closed = 1;
nodes = (
(-451,-97,l),
(-383,-97,l),
(-210,57,l),
(-91,-97,l),
(-22,-97,l),
(-162,82,l),
(-248,82,l)
);
}
);
width = 0;
}
);
note = dvRashtrasign;
},
{
glyphname = dvKx_RA;
lastChange = "2022-10-20 16:10:08 +0000";
layers = (
{
layerId = m01;
shapes = (
{
closed = 1;
nodes = (
(454,0,l),
(516,0,l),
(574,330,ls),
(582,375,o),
(631,458,o),
(714,511,o),
(769,511,qs),
(814,511,o),
(882,469,o),
(911,391,o),
(902,339,qs),
(887,257,o),
(781,163,o),
(712,163,qs),
(683,163,o),
(665,168,q),
(656,116,l),
(685,109,o),
(716,109,qs),
(776,109,o),
(881,164,o),
(953,269,o),
(966,340,qs),
(978,407,o),
(941,509,o),
(856,566,o),
(796,566,qs),
(729,566,o),
(627,504,o),
(596,453,q),
(637,686,l),
(1131,686,l),
(1140,740,l),
(40,740,l),
(31,686,l),
(575,686,l),
(534,455,l),
(520,505,o),
(438,566,o),
(369,566,qs),
(307,566,o),
(199,510,o),
(125,407,o),
(113,339,qs),
(100,270,o),
(138,167,o),
(225,111,o),
(286,111,qs),
(300,111,o),
(307,112,q),
(112,-46,l),
(183,-46,l),
(432,157,l),
(469,184,o),
(493,223,q)
);
},
{
closed = 1;
nodes = (
(240,161,o),
(162,256,o),
(176,338,qs),
(186,391,o),
(245,469,o),
(328,511,o),
(375,511,qs),
(432,511,o),
(499,460,o),
(521,380,o),
(513,336,qs),
(513,335,ls),
(505,290,o),
(448,205,o),
(403,182,q),
(397,185,l),
(382,173,l),
(352,161,o),
(313,161,qs)
);
},
{
closed = 1;
nodes = (
(49,19,o),
(78,43,o),
(82,62,qs),
(85,82,o),
(65,107,o),
(45,107,qs),
(26,107,o),
(-5,82,o),
(-8,62,qs),
(-12,43,o),
(9,19,o),
(29,19,qs)
);
}
);
width = 1042;
}
);
note = dvKx_RA;
},
{
glyphname = dvGx_RA;
lastChange = "2022-10-20 16:10:08 +0000";
layers = (
{
layerId = m01;
shapes = (
{
closed = 1;
nodes = (
(490,0,l),
(552,0,l),
(672,686,l),
(813,686,l),
(823,740,l),
(38,740,l),
(28,686,l),
(353,686,l),
(312,451,ls),
(304,405,o),
(251,343,o),
(202,343,qs),
(154,343,o),
(122,405,o),
(130,449,qs),
(135,480,l),
(73,480,l),
(70,470,o),
(67,449,qs),
(54,378,o),
(117,288,o),
(193,288,qs),
(271,288,o),
(364,380,o),
(376,453,qs),
(417,686,l),
(609,686,l),
(548,335,l),
(124,-20,l),
(199,-20,l),
(537,268,l)
);
},
{
closed = 1;
nodes = (
(64,70,o),
(93,94,o),
(96,113,qs),
(100,133,o),
(79,158,o),
(59,158,qs),
(40,158,o),
(10,133,o),
(6,113,qs),
(3,94,o),
(24,70,o),
(44,70,qs)
);
}
);
width = 727;
}
);
note = dvGx_RA;
},
{
glyphname = dvJx_RA;
lastChange = "2022-10-20 16:10:08 +0000";
layers = (
{
layerId = m01;
shapes = (
{
closed = 1;
nodes = (
(29,686,l),
(721,686,l),
(689,504,l),
(414,504,l),
(397,405,ls),
(386,342,o),
(306,266,o),
(249,266,qs),
(193,266,o),
(143,342,o),
(154,405,qs),
(171,504,l),
(107,504,l),
(90,405,ls),
(74,317,o),
(152,209,o),
(238,209,qs),
(324,209,o),
(441,317,o),
(457,405,qs),
(465,451,l),
(680,451,l),
(658,328,l),
(242,-30,l),
(314,-30,l),
(648,262,l),
(601,0,l),
(661,0,l),
(782,686,l),
(922,686,l),
(932,740,l),
(39,740,l)
);
},
{
closed = 1;
nodes = (
(100,4,o),
(129,28,o),
(133,47,qs),
(136,67,o),
(116,92,o),
(96,92,qs),
(77,92,o),
(46,67,o),
(43,47,qs),
(39,28,o),
(60,4,o),
(80,4,qs)
);
}
);
width = 835;
}
);
note = dvJx_RA;
},
{
glyphname = dvKx_R;
lastChange = "2022-10-20 16:10:08 +0000";
layers = (
{
layerId = m01;
shapes = (
{
closed = 1;
nodes = (
(454,0,l),
(516,0,l),
(574,330,ls),
(582,375,o),
(631,458,o),
(714,511,o),
(769,511,qs),
(814,511,o),
(882,469,o),
(911,391,o),
(902,339,q),
(966,339,l),
(977,406,o),
(941,509,o),
(856,566,o),
(796,566,qs),
(729,566,o),
(627,504,o),
(596,453,q),
(637,686,l),
(1027,686,l),
(1036,740,l),
(40,740,l),
(31,686,l),
(575,686,l),
(534,455,l),
(520,505,o),
(438,566,o),
(369,566,qs),
(307,566,o),
(199,510,o),
(125,407,o),
(113,339,qs),
(100,270,o),
(138,167,o),
(225,111,o),
(286,111,qs),
(300,111,o),
(307,112,q),
(112,-46,l),
(183,-46,l),
(432,157,l),
(469,184,o),
(493,223,q)
);
},
{
closed = 1;
nodes = (
(240,161,o),
(162,256,o),
(176,338,qs),
(186,391,o),
(245,469,o),
(328,511,o),
(375,511,qs),
(432,511,o),
(499,460,o),
(521,380,o),
(513,336,qs),
(513,335,ls),
(505,290,o),
(448,205,o),
(403,182,q),
(397,185,l),
(382,173,l),
(352,161,o),
(313,161,qs)
);
},
{
closed = 1;
nodes = (
(49,19,o),
(78,43,o),
(82,62,qs),
(85,82,o),
(65,107,o),
(45,107,qs),
(26,107,o),
(-5,82,o),
(-8,62,qs),
(-12,43,o),
(9,19,o),
(29,19,qs)
);
}
);
width = 787;
}
);
note = dvKx_R;
},
{
glyphname = dvGx_R;
lastChange = "2022-10-20 16:10:08 +0000";
layers = (
{
layerId = m01;
shapes = (
{
closed = 1;
nodes = (
(550,279,l),
(562,347,l),
(124,-20,l),
(199,-20,l)
);
},
{
closed = 1;
nodes = (
(28,686,l),
(353,686,l),
(312,451,ls),
(304,405,o),
(251,343,o),
(202,343,qs),
(154,343,o),
(122,405,o),
(130,449,qs),
(135,480,l),
(73,480,l),
(70,470,o),
(67,449,qs),
(54,378,o),
(117,288,o),
(193,288,qs),
(271,288,o),
(364,380,o),
(376,453,qs),
(417,686,l),
(621,686,l),
(631,740,l),
(38,740,l)
);
},
{
closed = 1;
nodes = (
(64,70,o),
(93,94,o),
(96,113,qs),
(100,133,o),
(79,158,o),
(59,158,qs),
(40,158,o),
(10,133,o),
(6,113,qs),
(3,94,o),
(24,70,o),
(44,70,qs)
);
}
);
width = 462;
}
);
note = dvGx_R;
},
{
glyphname = dvJx_R;
lastChange = "2022-10-20 16:10:08 +0000";
layers = (
{
layerId = m01;
shapes = (
{
closed = 1;
nodes = (
(242,-30,l),
(314,-30,l),
(680,291,l),
(692,358,l)
);
},
{
closed = 1;
nodes = (
(29,686,l),
(749,686,l),
(759,740,l),
(39,740,l)
);
},
{
closed = 1;
nodes = (
(324,209,o),
(441,317,o),
(457,405,qs),
(464,448,l),
(707,448,l),
(717,504,l),
(414,504,l),
(397,405,ls),
(386,342,o),
(306,266,o),
(249,266,qs),
(193,266,o),
(143,342,o),
(154,405,qs),
(171,504,l),
(107,504,l),
(90,405,ls),
(74,317,o),
(152,209,o),
(238,209,qs)
);
},
{
closed = 1;
nodes = (
(100,4,o),
(129,28,o),
(133,47,qs),
(136,67,o),
(116,92,o),
(96,92,qs),
(77,92,o),
(46,67,o),
(43,47,qs),
(39,28,o),
(60,4,o),
(80,4,qs)
);
}
);
width = 544;
}
);
note = dvJx_R;
},
{
glyphname = dvKx_KxA;
lastChange = "2022-10-20 16:10:08 +0000";
layers = (
{
layerId = m01;
shapes = (
{
closed = 1;
nodes = (
(203,161,o),
(125,256,o),
(140,338,qs),
(149,390,o),
(208,469,o),
(292,511,o),
(338,511,qs),
(395,511,o),
(462,460,o),
(484,380,o),
(476,336,qs),
(476,335,ls),
(469,294,o),
(418,213,o),
(332,161,o),
(276,161,qs)
);
},
{
closed = 1;
nodes = (
(226,-72,o),
(258,-46,o),
(261,-27,qs),
(265,-7,o),
(243,20,o),
(223,20,qs),
(203,20,o),
(171,-7,o),
(167,-27,qs),
(164,-46,o),
(186,-72,o),
(206,-72,qs)
);
},
{
closed = 1;
nodes = (
(1000,-72,o),
(1032,-46,o),
(1035,-27,qs),
(1039,-7,o),
(1017,20,o),
(997,20,qs),
(977,20,o),
(945,-7,o),
(941,-27,qs),
(938,-46,o),
(960,-72,o),
(980,-72,qs)
);
},
{
closed = 1;
nodes = (
(599,686,l),
(1312,686,l),
(1271,453,l),
(1257,504,o),
(1176,566,o),
(1106,566,qs),
(1045,566,o),
(938,512,o),
(901,463,q),
(885,512,o),
(808,566,o),
(751,566,qs),
(684,566,o),
(587,505,o),
(558,454,q)
);
},
{
closed = 1;
nodes = (
(1191,0,l),
(1252,0,l),
(1310,330,ls),
(1318,375,o),
(1368,458,o),
(1451,511,o),
(1506,511,qs),
(1551,511,o),
(1619,469,o),
(1648,391,o),
(1639,339,qs),
(1624,257,o),
(1518,163,o),
(1448,163,qs),
(1420,163,o),
(1403,168,q),
(1394,116,l),
(1422,109,o),
(1453,109,qs),
(1513,109,o),
(1618,164,o),
(1691,269,o),
(1703,340,qs),
(1715,407,o),
(1678,509,o),
(1593,566,o),
(1533,566,qs),
(1465,566,o),
(1363,502,o),
(1331,450,q),
(1373,686,l),
(1867,686,l),
(1877,740,l),
(43,740,l),
(33,686,l),
(538,686,l),
(497,453,l),
(483,504,o),
(402,566,o),
(332,566,qs),
(270,566,o),
(161,510,o),
(87,407,o),
(75,339,qs),
(62,268,o),
(99,163,o),
(187,106,o),
(249,106,qs),
(318,106,o),
(425,170,o),
(456,221,q),
(417,0,l),
(478,0,l),
(536,330,ls),
(549,404,o),
(644,511,o),
(725,511,qs),
(793,511,o),
(863,417,o),
(849,339,qs),
(836,268,o),
(873,163,o),
(961,106,o),
(1023,106,qs),
(1092,106,o),
(1199,170,o),
(1230,221,q)
);
},
{
closed = 1;
nodes = (
(977,161,o),
(899,256,o),
(914,338,qs),
(923,390,o),
(982,469,o),
(1066,511,o),
(1112,511,qs),
(1169,511,o),
(1236,460,o),
(1258,380,o),
(1250,336,qs),
(1250,335,ls),
(1243,294,o),
(1192,213,o),
(1106,161,o),
(1050,161,qs)
);
}
);
width = 1776;
}
);
note = dvKx_KxA;
},
{
glyphname = dvKx_TA;
lastChange = "2022-10-20 16:10:08 +0000";
layers = (
{
layerId = m01;
shapes = (
{
closed = 1;
nodes = (
(678,560,o),
(585,501,o),
(558,453,q),
(599,686,l),
(1323,686,l),
(1290,499,l),
(1135,499,ls),
(979,499,o),
(890,416,q),
(889,487,o),
(807,560,o),
(741,560,qs)
);
},
{
closed = 1;
nodes = (
(203,161,o),
(125,256,o),
(140,338,qs),
(149,390,o),
(208,469,o),
(292,511,o),
(338,511,qs),
(395,511,o),
(462,460,o),
(484,380,o),
(476,336,qs),
(476,335,ls),
(469,294,o),
(418,213,o),
(332,161,o),
(276,161,qs)
);
},
{
closed = 1;
nodes = (
(226,-72,o),
(258,-46,o),
(261,-27,qs),
(265,-7,o),
(243,20,o),
(223,20,qs),
(203,20,o),
(171,-7,o),
(167,-27,qs),
(164,-46,o),
(186,-72,o),
(206,-72,qs)
);
},
{
closed = 1;
nodes = (
(536,330,ls),
(549,402,o),
(640,507,o),
(717,507,qs),
(783,507,o),
(845,407,o),
(821,309,q),
(810,279,o),
(805,250,qs),
(784,130,o),
(901,2,o),
(1021,2,qs),
(1052,2,l),
(1062,54,l),
(1039,54,ls),
(941,54,o),
(854,156,o),
(870,249,qs),
(887,346,o),
(1023,444,o),
(1127,444,qs),
(1280,444,l),
(1202,0,l),
(1265,0,l),
(1386,686,l),
(1527,686,l),
(1537,740,l),
(43,740,l),
(33,686,l),
(538,686,l),
(497,453,l),
(483,504,o),
(402,566,o),
(332,566,qs),
(270,566,o),
(161,510,o),
(87,407,o),
(75,339,qs),
(62,268,o),
(99,163,o),
(187,106,o),
(249,106,qs),
(318,106,o),
(425,170,o),
(456,221,q),
(417,0,l),
(478,0,l)
);
}
);
width = 1436;
}
);
note = dvKx_TA;
},
{
glyphname = dvKx_PHA;
lastChange = "2022-10-20 16:10:08 +0000";
layers = (
{
layerId = m01;
shapes = (
{
closed = 1;
nodes = (
(599,686,l),
(899,686,l),
(870,520,l),
(826,564,o),
(751,564,qs),
(684,564,o),
(587,504,o),
(558,453,q)
);
},
{
closed = 1;
nodes = (
(203,161,o),
(125,256,o),
(140,338,qs),
(149,390,o),
(208,469,o),
(292,511,o),
(338,511,qs),
(395,511,o),
(462,460,o),
(484,380,o),
(476,336,qs),
(476,335,ls),
(469,294,o),
(418,213,o),
(332,161,o),
(276,161,qs)
);
},
{
closed = 1;
nodes = (
(964,262,o),
(906,360,o),
(921,449,qs),
(963,686,l),
(1265,686,l),
(1219,424,ls),
(1207,355,o),
(1110,262,o),
(1041,262,qs)
);
},
{
closed = 1;
nodes = (
(536,330,ls),
(549,404,o),
(644,511,o),
(725,511,qs),
(778,511,o),
(845,453,o),
(851,402,q),
(846,310,o),
(930,207,o),
(1018,207,qs),
(1075,207,o),
(1166,256,o),
(1197,300,q),
(1144,0,l),
(1207,0,l),
(1264,324,ls),
(1273,372,o),
(1323,457,o),
(1408,511,o),
(1464,511,qs),
(1509,511,o),
(1576,469,o),
(1605,391,o),
(1596,339,qs),
(1581,257,o),
(1476,162,o),
(1406,162,qs),
(1379,162,o),
(1359,168,q),
(1350,117,l),
(1374,109,o),
(1410,109,qs),
(1470,109,o),
(1576,164,o),
(1649,269,o),
(1661,341,qs),
(1673,408,o),
(1636,510,o),
(1550,566,o),
(1491,566,qs),
(1422,566,o),
(1318,502,o),
(1286,450,q),
(1328,686,l),
(1825,686,l),
(1835,740,l),
(43,740,l),
(33,686,l),
(538,686,l),
(497,453,l),
(483,504,o),
(402,566,o),
(332,566,qs),
(270,566,o),
(161,510,o),
(87,407,o),
(75,339,qs),
(62,268,o),
(99,163,o),
(187,106,o),
(249,106,qs),
(318,106,o),
(425,170,o),
(456,221,q),
(417,0,l),
(478,0,l)
);
},
{
closed = 1;
nodes = (
(226,-72,o),
(258,-46,o),
(261,-27,qs),
(265,-7,o),
(243,20,o),
(223,20,qs),
(203,20,o),
(171,-7,o),
(167,-27,qs),
(164,-46,o),
(186,-72,o),
(206,-72,qs)
);
}
);
width = 1734;
}
);
note = dvKx_PHA;
},
{
glyphname = dvKx_PHxA;
lastChange = "2022-10-20 16:10:08 +0000";
layers = (
{
layerId = m01;
shapes = (
{
closed = 1;
nodes = (
(599,686,l),
(900,686,l),
(871,519,l),
(826,564,o),
(751,564,qs),
(684,564,o),
(587,504,o),
(558,453,q)
);
},
{
closed = 1;
nodes = (
(203,161,o),
(125,256,o),
(140,338,qs),
(149,390,o),
(208,469,o),
(292,511,o),
(338,511,qs),
(395,511,o),
(462,460,o),
(484,380,o),
(476,336,qs),
(476,335,ls),
(469,294,o),
(418,213,o),
(332,161,o),
(276,161,qs)
);
},
{
closed = 1;
nodes = (
(226,-72,o),
(258,-46,o),
(261,-27,qs),
(265,-7,o),
(243,20,o),
(223,20,qs),
(203,20,o),
(171,-7,o),
(167,-27,qs),
(164,-46,o),
(186,-72,o),
(206,-72,qs)
);
},
{
closed = 1;
nodes = (
(984,31,o),
(1015,57,o),
(1019,76,qs),
(1022,96,o),
(1000,123,o),
(980,123,qs),
(960,123,o),
(928,96,o),
(925,76,qs),
(921,57,o),
(944,31,o),
(964,31,qs)
);
},
{
closed = 1;
nodes = (
(965,262,o),
(907,360,o),
(922,449,qs),
(964,686,l),
(1266,686,l),
(1220,424,ls),
(1208,355,o),
(1111,262,o),
(1042,262,qs)
);
},
{
closed = 1;
nodes = (
(536,330,ls),
(549,404,o),
(644,511,o),
(725,511,qs),
(779,511,o),
(847,450,o),
(852,396,q),
(848,307,o),
(932,207,o),
(1019,207,qs),
(1076,207,o),
(1167,256,o),
(1198,300,q),
(1145,0,l),
(1208,0,l),
(1265,324,ls),
(1274,372,o),
(1324,457,o),
(1409,511,o),
(1465,511,qs),
(1510,511,o),
(1577,469,o),
(1606,391,o),
(1597,339,qs),
(1582,257,o),
(1477,162,o),
(1407,162,qs),
(1380,162,o),
(1360,168,q),
(1351,117,l),
(1375,109,o),
(1411,109,qs),
(1471,109,o),
(1577,164,o),
(1650,269,o),
(1662,341,qs),
(1674,408,o),
(1637,510,o),
(1551,566,o),
(1492,566,qs),
(1423,566,o),
(1319,502,o),
(1287,450,q),
(1329,686,l),
(1826,686,l),
(1836,740,l),
(43,740,l),
(33,686,l),
(538,686,l),
(497,453,l),
(483,504,o),
(402,566,o),
(332,566,qs),
(270,566,o),
(161,510,o),
(87,407,o),
(75,339,qs),
(62,268,o),
(99,163,o),
(187,106,o),
(249,106,qs),
(318,106,o),
(425,170,o),
(456,221,q),
(417,0,l),
(478,0,l)
);
}
);
width = 1735;
}
);
note = dvKx_PHxA;
},
{
glyphname = dvKx_BA;
lastChange = "2022-10-20 16:10:08 +0000";
layers = (
{
layerId = m01;
shapes = (
{
closed = 1;
nodes = (
(599,686,l),
(1352,686,l),
(1312,458,l),
(1295,510,o),
(1204,576,o),
(1131,576,qs),
(1063,576,o),
(942,516,o),
(901,461,q),
(886,511,o),
(808,566,o),
(751,566,qs),
(684,566,o),
(587,505,o),
(558,454,q)
);
},
{
closed = 1;
nodes = (
(203,161,o),
(125,256,o),
(140,338,qs),
(149,390,o),
(208,469,o),
(292,511,o),
(338,511,qs),
(395,511,o),
(462,460,o),
(484,380,o),
(476,336,qs),
(476,335,ls),
(469,294,o),
(418,213,o),
(332,161,o),
(276,161,qs)
);
},
{
closed = 1;
nodes = (
(1231,0,l),
(1293,0,l),
(1414,686,l),
(1554,686,l),
(1564,740,l),
(43,740,l),
(33,686,l),
(538,686,l),
(497,453,l),
(483,504,o),
(402,566,o),
(332,566,qs),
(270,566,o),
(161,510,o),
(87,407,o),
(75,339,qs),
(62,268,o),
(99,163,o),
(187,106,o),
(249,106,qs),
(318,106,o),
(425,170,o),
(456,221,q),
(417,0,l),
(478,0,l),
(536,330,ls),
(549,404,o),
(644,511,o),
(725,511,qs),
(793,511,o),
(863,417,o),
(849,339,qs),
(849,337,ls),
(836,266,o),
(882,158,o),
(983,100,o),
(1050,100,qs),
(1122,100,o),
(1235,164,o),
(1269,215,q)
);
},
{
closed = 1;
nodes = (
(226,-72,o),
(258,-46,o),
(261,-27,qs),
(265,-7,o),
(243,20,o),
(223,20,qs),
(203,20,o),
(171,-7,o),
(167,-27,qs),
(164,-46,o),
(186,-72,o),
(206,-72,qs)
);
},
{
closed = 1;
nodes = (
(1197,531,o),
(1274,475,o),
(1302,387,o),
(1294,339,qs),
(1289,309,o),
(1259,247,o),
(1235,222,q),
(992,483,l),
(1055,531,o),
(1135,531,qs)
);
},
{
closed = 1;
nodes = (
(1015,148,o),
(933,193,o),
(895,279,o),
(906,337,qs),
(918,407,o),
(966,459,q),
(1211,198,l),
(1150,148,o),
(1069,148,qs)
);
}
);
width = 1463;
}
);
note = dvKx_BA;
},
{
glyphname = dvKx_MA;
lastChange = "2022-10-20 16:10:08 +0000";
layers = (
{
layerId = m01;
shapes = (
{
closed = 1;
nodes = (
(684,564,o),
(587,503,o),
(558,453,q),
(599,686,l),
(1186,686,l),
(1145,451,l),
(1042,451,ls),
(968,451,o),
(913,415,q),
(908,485,o),
(823,564,o),
(751,564,qs)
);
},
{
closed = 1;
nodes = (
(203,161,o),
(125,256,o),
(140,338,qs),
(149,390,o),
(208,469,o),
(292,511,o),
(338,511,qs),
(395,511,o),
(462,460,o),
(484,380,o),
(476,336,qs),
(476,335,ls),
(469,294,o),
(418,213,o),
(332,161,o),
(276,161,qs)
);
},
{
closed = 1;
nodes = (
(226,-72,o),
(258,-46,o),
(261,-27,qs),
(265,-7,o),
(243,20,o),
(223,20,qs),
(203,20,o),
(171,-7,o),
(167,-27,qs),
(164,-46,o),
(186,-72,o),
(206,-72,qs)
);
},
{
closed = 1;
nodes = (
(931,166,o),
(877,229,o),
(887,281,qs),
(896,335,o),
(977,398,o),
(1033,398,qs),
(1135,398,l),
(1120,310,ls),
(1108,242,o),
(1034,166,o),
(981,166,qs)
);
},
{
closed = 1;
nodes = (
(1402,451,l),
(1205,451,l),
(1246,686,l),
(1443,686,l)
);
},
{
closed = 1;
nodes = (
(536,330,ls),
(549,404,o),
(644,511,o),
(725,511,qs),
(790,511,o),
(861,423,o),
(850,348,q),
(833,318,o),
(827,281,qs),
(813,205,o),
(893,111,o),
(972,111,qs),
(1055,111,o),
(1163,215,o),
(1180,313,qs),
(1195,398,l),
(1392,398,l),
(1322,0,l),
(1386,0,l),
(1507,686,l),
(1648,686,l),
(1658,740,l),
(43,740,l),
(33,686,l),
(538,686,l),
(497,453,l),
(483,504,o),
(402,566,o),
(332,566,qs),
(270,566,o),
(161,510,o),
(87,407,o),
(75,339,qs),
(62,268,o),
(99,163,o),
(187,106,o),
(249,106,qs),
(318,106,o),
(425,170,o),
(456,221,q),
(417,0,l),
(478,0,l)
);
}
);
width = 1553;
}
);
note = dvKx_MA;
},
{
glyphname = dvJx_JxA;
lastChange = "2022-10-20 16:10:08 +0000";
layers = (
{
layerId = m01;
shapes = (
{
closed = 1;
nodes = (
(220,-39,o),
(252,-13,o),
(255,6,qs),
(259,26,o),
(237,53,o),
(217,53,qs),
(197,53,o),
(165,26,o),
(161,6,qs),
(158,-13,o),
(180,-39,o),
(200,-39,qs)
);
},
{
closed = 1;
nodes = (
(789,-39,o),
(821,-13,o),
(824,6,qs),
(828,26,o),
(806,53,o),
(786,53,qs),
(766,53,o),
(734,26,o),
(730,6,qs),
(727,-13,o),
(749,-39,o),
(769,-39,qs)
);
},
{
closed = 1;
nodes = (
(1231,0,l),
(1352,686,l),
(1492,686,l),
(1502,740,l),
(40,740,l),
(30,686,l),
(1288,686,l),
(1256,502,l),
(984,502,l),
(954,335,ls),
(943,273,o),
(863,196,o),
(807,196,qs),
(751,196,o),
(700,273,o),
(711,335,qs),
(741,502,l),
(415,502,l),
(385,335,ls),
(374,273,o),
(294,196,o),
(238,196,qs),
(182,196,o),
(131,273,o),
(142,335,qs),
(172,502,l),
(108,502,l),
(78,335,ls),
(63,247,o),
(141,139,o),
(227,139,qs),
(313,139,o),
(432,247,o),
(447,335,qs),
(467,447,l),
(667,447,l),
(647,335,ls),
(632,247,o),
(710,139,o),
(796,139,qs),
(882,139,o),
(1001,247,o),
(1016,335,qs),
(1036,447,l),
(1246,447,l),
(1167,0,l)
);
}
);
width = 1405;
}
);
note = dvJx_JxA;
},
{
glyphname = dvJx_YA;
lastChange = "2022-10-20 16:10:08 +0000";
layers = (
{
layerId = m01;
shapes = (
{
closed = 1;
nodes = (
(776,174,o),
(686,301,o),
(706,413,qs),
(707,421,l),
(806,424,o),
(929,512,o),
(945,601,qs),
(960,686,l),
(1175,686,l),
(1119,370,ls),
(1109,312,o),
(1038,223,o),
(934,174,o),
(876,174,qs)
);
},
{
closed = 1;
nodes = (
(1054,0,l),
(1119,0,l),
(1240,686,l),
(1380,686,l),
(1390,740,l),
(40,740,l),
(30,686,l),
(897,686,l),
(884,611,ls),
(870,532,o),
(762,468,o),
(671,468,qs),
(409,468,l),
(385,335,ls),
(374,273,o),
(294,196,o),
(238,196,qs),
(182,196,o),
(131,273,o),
(142,335,qs),
(166,468,l),
(102,468,l),
(78,335,ls),
(63,247,o),
(141,139,o),
(227,139,qs),
(313,139,o),
(432,247,o),
(447,335,qs),
(461,414,l),
(617,414,l),
(643,414,l),
(621,278,o),
(731,119,o),
(854,119,qs),
(934,119,o),
(1059,184,o),
(1096,236,q)
);
},
{
closed = 1;
nodes = (
(220,-39,o),
(252,-13,o),
(255,6,qs),
(259,26,o),
(237,53,o),
(217,53,qs),
(197,53,o),
(165,26,o),
(161,6,qs),
(158,-13,o),
(180,-39,o),
(200,-39,qs)
);
}
);
width = 1292;
}
);
note = dvJx_YA;
},
{
glyphname = dvEyelash_YA;
lastChange = "2022-10-20 16:10:08 +0000";
layers = (
{
layerId = m01;
shapes = (
{
closed = 1;
nodes = (
(392,174,o),
(301,293,o),
(320,396,qs),
(322,407,l),
(422,409,o),
(544,502,o),
(562,601,qs),
(577,686,l),
(793,686,l),
(737,370,ls),
(727,312,o),
(655,223,o),
(550,174,o),
(492,174,qs)
);
},
{
closed = 1;
nodes = (
(672,0,l),
(736,0,l),
(857,686,l),
(997,686,l),
(1006,740,l),
(36,740,l),
(27,686,l),
(514,686,l),
(500,611,ls),
(484,520,o),
(375,445,o),
(284,445,qs),
(212,446,o),
(119,514,o),
(132,586,q),
(72,586,l),
(57,492,o),
(166,399,o),
(256,395,q),
(236,267,o),
(348,119,o),
(471,119,qs),
(552,119,o),
(676,185,o),
(714,237,q)
);
}
);
width = 912;
}
);
note = dvEyelash_YA;
},
{
glyphname = dvEyelash_HA;
lastChange = "2022-10-20 16:10:08 +0000";
layers = (
{
layerId = m01;
shapes = (
{
closed = 1;
nodes = (
(581,58,l),
(562,16,o),
(469,-48,o),
(406,-48,qs),
(328,-48,o),
(258,45,o),
(270,116,qs),
(283,186,o),
(386,280,o),
(464,280,qs),
(529,280,o),
(599,216,o),
(601,173,q),
(663,173,l),
(662,239,o),
(569,332,o),
(474,332,qs),
(442,332,o),
(414,326,q),
(378,337,o),
(342,385,o),
(348,420,qs),
(356,466,o),
(431,509,o),
(483,509,qs),
(669,509,l),
(700,686,l),
(844,686,l),
(853,740,l),
(45,740,l),
(36,686,l),
(638,686,l),
(615,556,l),
(472,556,ls),
(399,556,o),
(298,493,o),
(287,430,qs),
(278,383,o),
(302,348,q),
(279,342,o),
(250,342,qs),
(187,342,o),
(110,408,o),
(122,479,q),
(62,479,l),
(51,415,o),
(95,330,o),
(180,290,o),
(231,290,qs),
(290,290,o),
(342,313,q),
(354,307,l),
(295,281,o),
(219,181,o),
(207,117,qs),
(196,55,o),
(231,-44,o),
(324,-102,o),
(397,-102,qs),
(459,-102,o),
(559,-57,o),
(628,16,o),
(643,58,q)
);
}
);
width = 750;
}
);
note = dvEyelash_HA;
},
{
glyphname = dvmII.aLong;
lastChange = "2022-10-20 16:10:08 +0000";
layers = (
{
layerId = m01;
shapes = (
{
closed = 1;
nodes = (
(-487,724,l),
(-426,724,l),
(-421,749,ls),
(-405,839,o),
(-261,948,o),
(-95,948,qs),
(70,948,o),
(173,839,o),
(157,749,qs),
(155,740,l),
(13,740,l),
(4,686,l),
(145,686,l),
(24,0,l),
(87,0,l),
(208,686,l),
(349,686,l),
(358,740,l),
(217,740,l),
(219,753,ls),
(240,868,o),
(106,1002,o),
(-86,1002,qs),
(-438,1002,o),
(-482,753,qs)
);
}
);
width = 287;
}
);
note = dvmII.aLong;
},
{
glyphname = dvmII_Anusvara;
lastChange = "2022-10-20 16:10:08 +0000";
layers = (
{
layerId = m01;
shapes = (
{
closed = 1;
nodes = (
(-134,724,l),
(-72,724,l),
(-62,783,ls),
(-50,848,o),
(17,933,o),
(78,933,qs),
(139,933,o),
(176,848,o),
(164,783,qs),
(156,740,l),
(14,740,l),
(5,686,l),
(146,686,l),
(25,0,l),
(88,0,l),
(209,686,l),
(350,686,l),
(359,740,l),
(218,740,l),
(226,781,ls),
(242,875,o),
(180,987,o),
(88,987,qs),
(-3,987,o),
(-108,874,o),
(-124,781,qs)
);
},
{
closed = 1;
nodes = (
(372,837,o),
(403,864,o),
(407,884,qs),
(410,904,o),
(388,930,o),
(368,930,qs),
(348,930,o),
(316,904,o),
(313,884,qs),
(309,864,o),
(332,837,o),
(352,837,qs)
);
}
);
width = 287;
}
);
note = dvmII_Anusvara;
},
{
glyphname = dvmII_Reph;
lastChange = "2022-10-20 16:10:08 +0000";
layers = (
{
layerId = m01;
shapes = (
{
closed = 1;
nodes = (
(-134,724,l),
(-72,724,l),
(-62,783,ls),
(-50,848,o),
(17,933,o),
(78,933,qs),
(139,933,o),
(176,848,o),
(164,783,qs),
(156,740,l),
(14,740,l),
(5,686,l),
(146,686,l),
(25,0,l),
(88,0,l),
(209,686,l),
(350,686,l),
(359,740,l),
(218,740,l),
(233,821,ls),
(241,867,o),
(291,921,o),
(329,921,qs),
(365,921,o),
(397,874,o),
(388,832,q),
(445,832,l),
(461,899,o),
(409,973,o),
(352,973,qs),
(308,973,o),
(244,930,o),
(226,894,q),
(204,987,o),
(88,987,qs),
(-3,987,o),
(-108,874,o),
(-124,781,qs)
);
}
);
width = 287;
}
);
note = dvmII_Reph;
},
{
glyphname = dvmII_Reph_Anusvara;
lastChange = "2022-10-20 16:10:08 +0000";
layers = (
{
layerId = m01;
shapes = (
{
closed = 1;
nodes = (
(-134,724,l),
(-72,724,l),
(-62,783,ls),
(-50,848,o),
(17,933,o),
(78,933,qs),
(139,933,o),
(176,848,o),
(164,783,qs),
(156,740,l),
(14,740,l),
(5,686,l),
(146,686,l),
(25,0,l),
(88,0,l),
(209,686,l),
(350,686,l),
(359,740,l),
(218,740,l),
(232,818,ls),
(241,869,o),
(299,927,o),
(340,927,qs),
(379,927,o),
(416,880,o),
(408,840,q),
(460,840,l),
(475,902,o),
(421,979,o),
(361,979,qs),
(315,979,o),
(245,934,o),
(226,895,q),
(203,987,o),
(88,987,qs),
(-3,987,o),
(-108,874,o),
(-124,781,qs)
);
},
{
closed = 1;
nodes = (
(333,792,o),
(361,815,o),
(364,832,qs),
(367,849,o),
(347,872,o),
(330,872,qs),
(313,872,o),
(286,849,o),
(283,832,qs),
(280,815,o),
(299,792,o),
(316,792,qs)
);
}
);
width = 287;
}
);
note = dvmII_Reph_Anusvara;
},
{
glyphname = dvmII_Anusvara.aLong;
lastChange = "2022-10-20 16:10:08 +0000";
layers = (
{
layerId = m01;
shapes = (
{
closed = 1;
nodes = (
(-487,724,l),
(-426,724,l),
(-421,749,ls),
(-405,839,o),
(-261,948,o),
(-95,948,qs),
(70,948,o),
(173,839,o),
(157,749,qs),
(155,740,l),
(13,740,l),
(4,686,l),
(145,686,l),
(24,0,l),
(87,0,l),
(208,686,l),
(349,686,l),
(358,740,l),
(217,740,l),
(219,753,ls),
(240,868,o),
(106,1002,o),
(-86,1002,qs),
(-438,1002,o),
(-482,753,qs)
);
},
{
closed = 1;
nodes = (
(370,837,o),
(402,864,o),
(406,884,qs),
(409,904,o),
(387,930,o),
(367,930,qs),
(347,930,o),
(315,904,o),
(312,884,qs),
(308,864,o),
(330,837,o),
(350,837,qs)
);
}
);
width = 287;
}
);
note = dvmII_Anusvara.aLong;
},
{
glyphname = dvmII_Reph.aLong;
lastChange = "2022-10-20 16:10:08 +0000";
layers = (
{
layerId = m01;
shapes = (
{
closed = 1;
nodes = (
(-487,724,l),
(-426,724,l),
(-421,749,ls),
(-405,839,o),
(-261,948,o),
(-95,948,qs),
(70,948,o),
(173,839,o),
(157,749,qs),
(155,740,l),
(13,740,l),
(4,686,l),
(145,686,l),
(24,0,l),
(87,0,l),
(208,686,l),
(349,686,l),
(358,740,l),
(217,740,l),
(231,821,ls),
(240,867,o),
(290,921,o),
(328,921,qs),
(364,921,o),
(396,874,o),
(386,832,q),
(443,832,l),
(459,899,o),
(407,973,o),
(350,973,qs),
(299,973,o),
(230,916,o),
(215,870,q),
(171,1002,o),
(-86,1002,qs),
(-438,1002,o),
(-482,753,qs)
);
}
);
width = 287;
}
);
note = dvmII_Reph.aLong;
},
{
glyphname = dvmII_Reph_Anusvara.aLong;
lastChange = "2022-10-20 16:10:08 +0000";
layers = (
{
layerId = m01;
shapes = (
{
closed = 1;
nodes = (
(-487,724,l),
(-426,724,l),
(-421,749,ls),
(-405,839,o),
(-261,948,o),
(-95,948,qs),
(70,948,o),
(173,839,o),
(157,749,qs),
(155,740,l),
(13,740,l),
(4,686,l),
(145,686,l),
(24,0,l),
(87,0,l),
(208,686,l),
(349,686,l),
(358,740,l),
(217,740,l),
(231,818,ls),
(240,869,o),
(298,927,o),
(339,927,qs),
(378,927,o),
(415,880,o),
(407,840,q),
(459,840,l),
(474,902,o),
(419,979,o),
(359,979,qs),
(306,979,o),
(231,920,o),
(215,871,q),
(169,1002,o),
(-86,1002,qs),
(-438,1002,o),
(-482,753,qs)
);
},
{
closed = 1;
nodes = (
(331,792,o),
(359,815,o),
(362,832,qs),
(365,849,o),
(345,872,o),
(328,872,qs),
(311,872,o),
(284,849,o),
(281,832,qs),
(278,815,o),
(297,792,o),
(314,792,qs)
);
}
);
width = 287;
}
);
note = dvmII_Reph_Anusvara.aLong;
},
{
glyphname = dvmE_Anusvara;
lastChange = "2022-10-20 16:10:08 +0000";
layers = (
{
layerId = m01;
shapes = (
{
closed = 1;
nodes = (
(-133,736,l),
(-179,848,o),
(-252,948,o),
(-329,976,o),
(-400,976,qs),
(-437,976,l),
(-446,923,l),
(-408,923,ls),
(-352,923,o),
(-291,901,o),
(-234,824,o),
(-194,736,q)
);
},
{
closed = 1;
nodes = (
(-27,838,o),
(5,865,o),
(8,885,qs),
(12,905,o),
(-11,931,o),
(-31,931,qs),
(-51,931,o),
(-82,905,o),
(-86,885,qs),
(-89,865,o),
(-67,838,o),
(-47,838,qs)
);
}
);
width = 0;
}
);
note = dvmE_Anusvara;
},
{
glyphname = dvmE_Reph;
lastChange = "2022-10-20 16:10:08 +0000";
layers = (
{
layerId = m01;
shapes = (
{
closed = 1;
nodes = (
(-133,736,l),
(-147,776,o),
(-140,817,qs),
(-131,869,o),
(-72,924,o),
(-30,924,qs),
(7,924,o),
(44,876,o),
(35,838,q),
(90,838,l),
(105,899,o),
(50,975,o),
(-9,975,qs),
(-75,975,o),
(-156,892,o),
(-166,833,qs),
(-168,821,o),
(-168,815,q),
(-203,888,o),
(-267,957,o),
(-338,976,o),
(-400,976,qs),
(-437,976,l),
(-446,923,l),
(-408,923,ls),
(-352,923,o),
(-291,901,o),
(-234,824,o),
(-194,736,q)
);
}
);
width = 0;
}
);
note = dvmE_Reph;
},
{
glyphname = dvmE_Reph_Anusvara;
lastChange = "2022-10-20 16:10:08 +0000";
layers = (
{
layerId = m01;
shapes = (
{
closed = 1;
nodes = (
(-133,736,l),
(-148,777,o),
(-140,821,qs),
(-131,875,o),
(-62,935,o),
(-13,935,qs),
(31,935,o),
(73,882,o),
(68,840,q),
(114,840,l),
(125,903,o),
(64,978,o),
(1,978,qs),
(-70,978,o),
(-158,894,o),
(-169,833,qs),
(-172,820,l),
(-206,891,o),
(-268,957,o),
(-339,976,o),
(-400,976,qs),
(-437,976,l),
(-446,923,l),
(-408,923,ls),
(-352,923,o),
(-291,901,o),
(-234,824,o),
(-194,736,q)
);
},
{
closed = 1;
nodes = (
(-26,794,o),
(2,817,o),
(5,834,qs),
(8,851,o),
(-12,874,o),
(-29,874,qs),
(-46,874,o),
(-73,851,o),
(-76,834,qs),
(-79,817,o),
(-60,794,o),
(-43,794,qs)
);
}
);
width = 0;
}
);
note = dvmE_Reph_Anusvara;
},
{
glyphname = dvmAI_Anusvara;
lastChange = "2022-10-20 16:10:08 +0000";
layers = (
{
layerId = m01;
shapes = (
{
closed = 1;
nodes = (
(-138,737,l),
(-185,879,o),
(-254,1001,o),
(-326,1033,o),
(-397,1033,qs),
(-437,1033,l),
(-445,989,l),
(-404,989,ls),
(-351,989,o),
(-291,968,o),
(-235,886,o),
(-201,795,q),
(-243,838,o),
(-306,875,o),
(-367,885,o),
(-424,885,qs),
(-463,885,l),
(-471,842,l),
(-431,842,ls),
(-372,842,o),
(-310,830,o),
(-245,788,o),
(-193,737,q)
);
},
{
closed = 1;
nodes = (
(-26,837,o),
(5,864,o),
(9,884,qs),
(12,904,o),
(-10,930,o),
(-30,930,qs),
(-50,930,o),
(-82,904,o),
(-85,884,qs),
(-89,864,o),
(-66,837,o),
(-46,837,qs)
);
}
);
width = 0;
}
);
note = dvmAI_Anusvara;
},
{
glyphname = dvmAI_Reph;
lastChange = "2022-10-20 16:10:08 +0000";
layers = (
{
layerId = m01;
shapes = (
{
closed = 1;
nodes = (
(-138,737,l),
(-143,750,l),
(-151,783,o),
(-145,817,qs),
(-136,869,o),
(-77,924,o),
(-35,924,qs),
(2,924,o),
(38,876,o),
(30,838,q),
(81,838,l),
(94,899,o),
(41,975,o),
(-15,975,qs),
(-80,975,o),
(-160,892,o),
(-170,833,qs),
(-171,830,l),
(-207,925,o),
(-267,1010,o),
(-334,1033,o),
(-397,1033,qs),
(-437,1033,l),
(-445,989,l),
(-404,989,ls),
(-351,989,o),
(-291,968,o),
(-235,886,o),
(-201,795,q),
(-243,838,o),
(-306,875,o),
(-367,885,o),
(-424,885,qs),
(-463,885,l),
(-471,842,l),
(-431,842,ls),
(-372,842,o),
(-310,830,o),
(-245,788,o),
(-193,737,q)
);
}
);
width = 0;
}
);
note = dvmAI_Reph;
},
{
glyphname = dvmAI_Reph_Anusvara;
lastChange = "2022-10-20 16:10:08 +0000";
layers = (
{
layerId = m01;
shapes = (
{
closed = 1;
nodes = (
(-138,737,l),
(-141,744,ls),
(-152,783,o),
(-146,819,qs),
(-136,874,o),
(-67,935,o),
(-18,935,qs),
(26,935,o),
(68,882,o),
(63,840,q),
(109,840,l),
(120,902,o),
(59,978,o),
(-4,978,qs),
(-74,978,o),
(-161,895,o),
(-172,835,qs),
(-172,833,l),
(-208,927,o),
(-268,1011,o),
(-335,1033,o),
(-397,1033,qs),
(-437,1033,l),
(-445,989,l),
(-404,989,ls),
(-351,989,o),
(-291,968,o),
(-235,886,o),
(-201,795,q),
(-243,838,o),
(-306,875,o),
(-367,885,o),
(-424,885,qs),
(-463,885,l),
(-471,842,l),
(-431,842,ls),
(-372,842,o),
(-310,830,o),
(-245,788,o),
(-193,737,q)
);
},
{
closed = 1;
nodes = (
(-33,794,o),
(-5,817,o),
(-2,834,qs),
(1,851,o),
(-19,874,o),
(-36,874,qs),
(-53,874,o),
(-80,851,o),
(-83,834,qs),
(-86,817,o),
(-67,794,o),
(-50,794,qs)
);
}
);
width = 0;
}
);
note = dvmAI_Reph_Anusvara;
},
{
glyphname = dvmO_Anusvara;
lastChange = "2022-10-20 16:10:08 +0000";
layers = (
{
layerId = m01;
shapes = (
{
closed = 1;
nodes = (
(89,0,l),
(210,686,l),
(351,686,l),
(360,740,l),
(217,740,l),
(172,850,o),
(100,948,o),
(23,976,o),
(-48,976,qs),
(-85,976,l),
(-94,923,l),
(-56,923,ls),
(0,923,o),
(60,901,o),
(117,826,o),
(155,740,q),
(15,740,l),
(6,686,l),
(147,686,l),
(26,0,l)
);
},
{
closed = 1;
nodes = (
(325,838,o),
(356,865,o),
(360,885,qs),
(364,905,o),
(341,931,o),
(321,931,qs),
(301,931,o),
(270,905,o),
(266,885,qs),
(262,865,o),
(285,838,o),
(305,838,qs)
);
}
);
width = 287;
}
);
note = dvmO_Anusvara;
},
{
glyphname = dvmO_Reph;
lastChange = "2022-10-20 16:10:08 +0000";
layers = (
{
layerId = m01;
shapes = (
{
closed = 1;
nodes = (
(89,0,l),
(210,686,l),
(351,686,l),
(360,740,l),
(217,740,l),
(205,776,o),
(212,817,qs),
(221,869,o),
(280,924,o),
(322,924,qs),
(359,924,o),
(395,876,o),
(387,838,q),
(442,838,l),
(456,899,o),
(402,975,o),
(343,975,qs),
(277,975,o),
(196,892,o),
(186,833,qs),
(184,821,o),
(184,815,q),
(149,888,o),
(85,957,o),
(14,976,o),
(-48,976,qs),
(-85,976,l),
(-94,923,l),
(-56,923,ls),
(0,923,o),
(60,901,o),
(117,826,o),
(155,740,q),
(15,740,l),
(6,686,l),
(147,686,l),
(26,0,l)
);
}
);
width = 287;
}
);
note = dvmO_Reph;
},
{
glyphname = dvmO_Reph_Anusvara;
lastChange = "2022-10-20 16:10:08 +0000";
layers = (
{
layerId = m01;
shapes = (
{
closed = 1;
nodes = (
(89,0,l),
(210,686,l),
(351,686,l),
(360,740,l),
(217,740,l),
(204,777,o),
(212,821,qs),
(221,875,o),
(290,935,o),
(339,935,qs),
(383,935,o),
(425,882,o),
(420,840,q),
(466,840,l),
(477,903,o),
(416,978,o),
(353,978,qs),
(282,978,o),
(193,894,o),
(183,833,qs),
(180,820,l),
(146,891,o),
(84,957,o),
(13,976,o),
(-48,976,qs),
(-85,976,l),
(-94,923,l),
(-56,923,ls),
(0,923,o),
(60,901,o),
(116,826,o),
(155,740,q),
(15,740,l),
(6,686,l),
(147,686,l),
(26,0,l)
);
},
{
closed = 1;
nodes = (
(326,794,o),
(354,817,o),
(357,834,qs),
(360,851,o),
(340,874,o),
(323,874,qs),
(306,874,o),
(279,851,o),
(276,834,qs),
(273,817,o),
(292,794,o),
(309,794,qs)
);
}
);
width = 287;
}
);
note = dvmO_Reph_Anusvara;
},
{
glyphname = dvmAU_Anusvara;
lastChange = "2022-10-20 16:10:08 +0000";
layers = (
{
layerId = m01;
shapes = (
{
closed = 1;
nodes = (
(84,0,l),
(205,686,l),
(346,686,l),
(355,740,l),
(210,740,l),
(164,880,o),
(96,1001,o),
(24,1033,o),
(-47,1033,qs),
(-87,1033,l),
(-95,989,l),
(-54,989,ls),
(-1,989,o),
(59,968,o),
(115,886,o),
(149,795,q),
(107,838,o),
(44,875,o),
(-17,885,o),
(-74,885,qs),
(-113,885,l),
(-121,842,l),
(-81,842,ls),
(-22,842,o),
(39,831,o),
(103,789,o),
(153,740,q),
(10,740,l),
(1,686,l),
(142,686,l),
(21,0,l)
);
},
{
closed = 1;
nodes = (
(324,837,o),
(355,864,o),
(359,884,qs),
(362,904,o),
(340,930,o),
(320,930,qs),
(300,930,o),
(268,904,o),
(265,884,qs),
(261,864,o),
(284,837,o),
(304,837,qs)
);
}
);
width = 287;
}
);
note = dvmAU_Anusvara;
},
{
glyphname = dvmAU_Reph;
lastChange = "2022-10-20 16:10:08 +0000";
layers = (
{
layerId = m01;
shapes = (
{
closed = 1;
nodes = (
(84,0,l),
(205,686,l),
(346,686,l),
(355,740,l),
(210,740,l),
(207,750,ls),
(199,783,o),
(205,817,qs),
(214,869,o),
(273,924,o),
(315,924,qs),
(352,924,o),
(388,876,o),
(380,838,q),
(431,838,l),
(444,899,o),
(391,975,o),
(335,975,qs),
(270,975,o),
(190,892,o),
(180,833,qs),
(179,830,l),
(143,925,o),
(83,1010,o),
(16,1033,o),
(-47,1033,qs),
(-87,1033,l),
(-95,989,l),
(-54,989,ls),
(-1,989,o),
(59,968,o),
(115,886,o),
(149,795,q),
(107,838,o),
(44,875,o),
(-17,885,o),
(-74,885,qs),
(-113,885,l),
(-121,842,l),
(-81,842,ls),
(-22,842,o),
(39,831,o),
(103,789,o),
(153,740,q),
(10,740,l),
(1,686,l),
(142,686,l),
(21,0,l)
);
}
);
width = 287;
}
);
note = dvmAU_Reph;
},
{
glyphname = dvmAU_Reph_Anusvara;
lastChange = "2022-10-20 16:10:08 +0000";
layers = (
{
layerId = m01;
shapes = (
{
closed = 1;
nodes = (
(84,0,l),
(205,686,l),
(346,686,l),
(355,740,l),
(210,740,l),
(209,744,ls),
(198,783,o),
(204,819,qs),
(214,874,o),
(283,935,o),
(332,935,qs),
(376,935,o),
(418,882,o),
(413,840,q),
(459,840,l),
(470,902,o),
(409,978,o),
(346,978,qs),
(276,978,o),
(189,895,o),
(178,835,qs),
(178,833,l),
(142,927,o),
(82,1011,o),
(15,1033,o),
(-47,1033,qs),
(-87,1033,l),
(-95,989,l),
(-54,989,ls),
(-1,989,o),
(59,968,o),
(115,886,o),
(149,795,q),
(107,838,o),
(44,875,o),
(-17,885,o),
(-74,885,qs),
(-113,885,l),
(-121,842,l),
(-81,842,ls),
(-22,842,o),
(39,831,o),
(103,789,o),
(153,740,q),
(10,740,l),
(1,686,l),
(142,686,l),
(21,0,l)
);
},
{
closed = 1;
nodes = (
(317,794,o),
(345,817,o),
(348,834,qs),
(351,851,o),
(331,874,o),
(314,874,qs),
(297,874,o),
(270,851,o),
(267,834,qs),
(264,817,o),
(283,794,o),
(300,794,qs)
);
}
);
width = 287;
}
);
note = dvmAU_Reph_Anusvara;
},
{
glyphname = dvmEcandra_Anusvara;
lastChange = "2022-10-20 16:10:08 +0000";
layers = (
{
layerId = m01;
shapes = (
{
closed = 1;
nodes = (
(-101,820,o),
(-4,866,o),
(52,942,o),
(60,987,q),
(8,987,l),
(3,957,o),
(-39,902,o),
(-109,868,o),
(-155,868,qs),
(-201,868,o),
(-259,902,o),
(-280,957,o),
(-275,987,q),
(-328,987,l),
(-336,942,o),
(-305,866,o),
(-227,820,o),
(-164,820,qs)
);
},
{
closed = 1;
nodes = (
(-118,981,o),
(-94,1002,o),
(-92,1017,qs),
(-89,1032,o),
(-105,1053,o),
(-121,1053,qs),
(-137,1053,o),
(-162,1032,o),
(-165,1017,qs),
(-167,1002,o),
(-150,981,o),
(-134,981,qs)
);
}
);
width = 0;
}
);
note = dvmEcandra_Anusvara;
},
{
glyphname = dvmOcandra_Anusvara;
lastChange = "2022-10-20 16:10:08 +0000";
layers = (
{
layerId = m01;
shapes = (
{
closed = 1;
nodes = (
(19,0,l),
(82,0,l),
(203,686,l),
(344,686,l),
(354,740,l),
(9,740,l),
(-1,686,l),
(140,686,l)
);
},
{
closed = 1;
nodes = (
(259,820,o),
(355,866,o),
(411,942,o),
(419,987,q),
(367,987,l),
(362,957,o),
(320,902,o),
(250,868,o),
(204,868,qs),
(158,868,o),
(100,902,o),
(79,957,o),
(84,987,q),
(31,987,l),
(23,942,o),
(54,866,o),
(133,820,o),
(196,820,qs)
);
},
{
closed = 1;
nodes = (
(241,981,o),
(265,1002,o),
(267,1017,qs),
(270,1032,o),
(254,1053,o),
(238,1053,qs),
(222,1053,o),
(197,1032,o),
(194,1017,qs),
(192,1002,o),
(209,981,o),
(225,981,qs)
);
}
);
width = 287;
}
);
note = dvmOcandra_Anusvara;
},
{
glyphname = dvRA_mU;
lastChange = "2022-10-20 16:10:08 +0000";
layers = (
{
layerId = m01;
shapes = (
{
closed = 1;
nodes = (
(28,686,l),
(430,686,l),
(412,587,ls),
(396,498,o),
(290,410,o),
(203,410,qs),
(96,410,l),
(60,206,ls),
(43,109,o),
(121,-9,o),
(214,-9,qs),
(302,-9,o),
(422,100,o),
(438,192,qs),
(441,204,l),
(379,204,l),
(376,190,ls),
(365,125,o),
(282,46,o),
(223,46,qs),
(159,46,o),
(110,132,o),
(122,203,qs),
(150,362,l),
(178,362,l),
(169,357,l),
(585,357,ls),
(647,357,o),
(707,294,o),
(698,238,qs),
(688,184,o),
(612,125,o),
(557,125,qs),
(532,125,o),
(503,132,q),
(494,80,l),
(524,73,o),
(551,73,qs),
(632,73,o),
(742,160,o),
(755,236,qs),
(770,319,o),
(684,410,o),
(590,410,qs),
(375,410,l),
(455,469,o),
(476,587,qs),
(494,686,l),
(940,686,l),
(949,740,l),
(37,740,l)
);
}
);
width = 831;
}
);
note = dvRA_mU;
},
{
glyphname = dvRA_mUU;
lastChange = "2022-10-20 16:10:08 +0000";
layers = (
{
layerId = m01;
shapes = (
{
closed = 1;
nodes = (
(28,686,l),
(430,686,l),
(412,587,ls),
(396,498,o),
(290,410,o),
(203,410,qs),
(96,410,l),
(60,206,ls),
(43,109,o),
(121,-9,o),
(214,-9,qs),
(302,-9,o),
(422,100,o),
(438,192,qs),
(441,204,l),
(379,204,l),
(376,190,ls),
(365,125,o),
(282,46,o),
(223,46,qs),
(159,46,o),
(110,132,o),
(122,203,qs),
(150,362,l),
(178,362,l),
(169,357,l),
(470,357,ls),
(543,357,o),
(610,285,o),
(598,218,qs),
(581,119,l),
(641,119,l),
(658,219,ls),
(674,310,o),
(585,410,o),
(484,410,qs),
(375,410,l),
(455,469,o),
(476,587,qs),
(494,686,l),
(835,686,l),
(844,740,l),
(37,740,l)
);
}
);
width = 749;
}
);
note = dvRA_mUU;
},
{
glyphname = dvmI.a01;
lastChange = "2022-10-20 16:10:08 +0000";
layers = (
{
layerId = m01;
shapes = (
{
closed = 1;
nodes = (
(209,686,l),
(350,686,l),
(359,740,l),
(218,740,l),
(238,849,o),
(397,934,o),
(497,934,qs),
(556,934,o),
(659,897,o),
(718,810,o),
(705,740,qs),
(703,724,l),
(765,724,l),
(768,741,ls),
(782,825,o),
(717,935,o),
(587,987,o),
(506,987,qs),
(375,987,o),
(180,871,o),
(155,740,q),
(14,740,l),
(5,686,l),
(146,686,l),
(25,0,l),
(88,0,l)
);
}
);
width = 287;
}
);
note = dvmI.a01;
},
{
glyphname = dvmI.a02;
lastChange = "2022-10-20 16:10:08 +0000";
layers = (
{
layerId = m01;
shapes = (
{
closed = 1;
nodes = (
(209,686,l),
(350,686,l),
(359,740,l),
(218,740,l),
(253,935,o),
(522,935,qs),
(636,935,o),
(776,842,o),
(758,739,qs),
(755,723,l),
(817,723,l),
(821,741,ls),
(842,865,o),
(677,988,o),
(531,988,qs),
(382,988,o),
(180,872,o),
(155,740,q),
(14,740,l),
(5,686,l),
(146,686,l),
(25,0,l),
(88,0,l)
);
}
);
width = 287;
}
);
note = dvmI.a02;
},
{
glyphname = dvmI.a03;
lastChange = "2022-10-20 16:10:08 +0000";
layers = (
{
layerId = m01;
shapes = (
{
closed = 1;
nodes = (
(209,686,l),
(350,686,l),
(359,740,l),
(218,740,l),
(238,850,o),
(411,936,o),
(548,936,qs),
(681,936,o),
(829,842,o),
(811,738,qs),
(808,723,l),
(871,723,l),
(874,739,ls),
(896,865,o),
(722,989,o),
(557,989,qs),
(390,989,o),
(180,873,o),
(155,740,q),
(14,740,l),
(5,686,l),
(146,686,l),
(25,0,l),
(88,0,l)
);
}
);
width = 287;
}
);
note = dvmI.a03;
},
{
glyphname = dvmI.a04;
lastChange = "2022-10-20 16:10:08 +0000";
layers = (
{
layerId = m01;
shapes = (
{
closed = 1;
nodes = (
(209,686,l),
(350,686,l),
(359,740,l),
(218,740,l),
(238,851,o),
(417,937,o),
(572,937,qs),
(724,937,o),
(882,842,o),
(864,737,qs),
(861,722,l),
(924,722,l),
(927,739,ls),
(949,865,o),
(765,990,o),
(582,990,qs),
(397,990,o),
(180,873,o),
(155,740,q),
(14,740,l),
(5,686,l),
(146,686,l),
(25,0,l),
(88,0,l)
);
}
);
width = 287;
}
);
note = dvmI.a04;
},
{
glyphname = dvmI.a05;
lastChange = "2022-10-20 16:10:08 +0000";
layers = (
{
layerId = m01;
shapes = (
{
closed = 1;
nodes = (
(209,686,l),
(350,686,l),
(359,740,l),
(218,740,l),
(238,850,o),
(424,937,o),
(597,937,qs),
(767,937,o),
(935,842,o),
(917,737,qs),
(914,722,l),
(977,722,l),
(980,738,ls),
(1002,865,o),
(809,990,o),
(607,990,qs),
(404,990,o),
(180,874,o),
(155,740,q),
(14,740,l),
(5,686,l),
(146,686,l),
(25,0,l),
(88,0,l)
);
}
);
width = 287;
}
);
note = dvmI.a05;
},
{
glyphname = dvmI.a06;
lastChange = "2022-10-20 16:10:08 +0000";
layers = (
{
layerId = m01;
shapes = (
{
closed = 1;
nodes = (
(209,686,l),
(350,686,l),
(359,740,l),
(218,740,l),
(231,815,o),
(329,902,o),
(496,938,o),
(623,938,qs),
(811,938,o),
(988,842,o),
(969,736,qs),
(967,721,l),
(1029,721,l),
(1032,737,ls),
(1076,991,o),
(633,991,qs),
(485,991,o),
(288,941,o),
(172,831,o),
(155,740,q),
(14,740,l),
(5,686,l),
(146,686,l),
(25,0,l),
(88,0,l)
);
}
);
width = 287;
}
);
note = dvmI.a06;
},
{
glyphname = dvmI.a07;
lastChange = "2022-10-20 16:10:08 +0000";
layers = (
{
layerId = m01;
shapes = (
{
closed = 1;
nodes = (
(209,686,l),
(350,686,l),
(359,740,l),
(218,740,l),
(231,815,o),
(331,902,o),
(509,939,o),
(648,939,qs),
(856,939,o),
(1041,842,o),
(1022,735,qs),
(1020,722,l),
(1083,721,l),
(1085,736,ls),
(1108,865,o),
(897,992,o),
(659,992,qs),
(499,992,o),
(289,941,o),
(172,830,o),
(155,740,q),
(14,740,l),
(5,686,l),
(146,686,l),
(25,0,l),
(88,0,l)
);
}
);
width = 287;
}
);
note = dvmI.a07;
},
{
glyphname = dvmI.a08;
lastChange = "2022-10-20 16:10:08 +0000";
layers = (
{
layerId = m01;
shapes = (
{
closed = 1;
nodes = (
(208,686,l),
(349,686,l),
(359,740,l),
(218,740,l),
(231,815,o),
(333,902,o),
(521,940,o),
(673,940,qs),
(899,940,o),
(1094,842,o),
(1075,735,qs),
(1073,722,l),
(1135,721,l),
(1137,736,ls),
(1160,865,o),
(943,993,o),
(685,993,qs),
(512,993,o),
(291,941,o),
(172,831,o),
(155,740,q),
(14,740,l),
(4,686,l),
(145,686,l),
(24,0,l),
(87,0,l)
);
}
);
width = 287;
}
);
note = dvmI.a08;
},
{
glyphname = dvmI.a09;
lastChange = "2022-10-20 16:10:08 +0000";
layers = (
{
layerId = m01;
shapes = (
{
closed = 1;
nodes = (
(208,686,l),
(349,686,l),
(359,740,l),
(218,740,l),
(231,815,o),
(334,902,o),
(534,941,o),
(698,941,qs),
(942,941,o),
(1147,841,o),
(1128,733,qs),
(1125,721,l),
(1188,720,l),
(1191,735,ls),
(1214,865,o),
(985,994,o),
(709,994,qs),
(524,994,o),
(293,942,o),
(173,831,o),
(155,740,q),
(14,740,l),
(4,686,l),
(145,686,l),
(24,0,l),
(87,0,l)
);
}
);
width = 287;
}
);
note = dvmI.a09;
},
{
glyphname = dvmI.a10;
lastChange = "2022-10-20 16:10:08 +0000";
layers = (
{
layerId = m01;
shapes = (
{
closed = 1;
nodes = (
(208,686,l),
(349,686,l),
(359,740,l),
(218,740,l),
(231,815,o),
(335,902,o),
(546,942,o),
(723,942,qs),
(900,942,o),
(1109,897,o),
(1193,805,o),
(1181,733,qs),
(1178,721,l),
(1241,720,l),
(1244,734,ls),
(1267,865,o),
(1029,995,o),
(734,995,qs),
(537,995,o),
(295,942,o),
(173,831,o),
(155,740,q),
(14,740,l),
(4,686,l),
(145,686,l),
(24,0,l),
(87,0,l)
);
}
);
width = 287;
}
);
note = dvmI.a10;
},
{
glyphname = dvmI.a11;
lastChange = "2022-10-20 16:10:08 +0000";
layers = (
{
layerId = m01;
shapes = (
{
closed = 1;
nodes = (
(208,686,l),
(349,686,l),
(359,740,l),
(218,740,l),
(233,815,o),
(340,903,o),
(560,943,o),
(748,943,qs),
(938,943,o),
(1160,896,o),
(1247,804,o),
(1234,732,qs),
(1232,720,l),
(1295,719,l),
(1298,734,ls),
(1313,820,o),
(1219,936,o),
(972,996,o),
(760,996,qs),
(550,996,o),
(297,942,o),
(173,831,o),
(155,740,q),
(14,740,l),
(4,686,l),
(145,686,l),
(24,0,l),
(87,0,l)
);
}
);
width = 287;
}
);
note = dvmI.a11;
},
{
glyphname = dvmI.a12;
lastChange = "2022-10-20 16:10:08 +0000";
layers = (
{
layerId = m01;
shapes = (
{
closed = 1;
nodes = (
(208,686,l),
(349,686,l),
(359,740,l),
(218,740,l),
(233,815,o),
(342,902,o),
(575,944,o),
(774,944,qs),
(977,944,o),
(1210,896,o),
(1300,803,o),
(1287,731,qs),
(1285,720,l),
(1348,719,l),
(1350,732,ls),
(1366,819,o),
(1269,935,o),
(1010,997,o),
(786,997,qs),
(563,997,o),
(299,943,o),
(173,831,o),
(155,740,q),
(14,740,l),
(4,686,l),
(145,686,l),
(24,0,l),
(87,0,l)
);
}
);
width = 287;
}
);
note = dvmI.a12;
},
{
glyphname = dvmI.a13;
lastChange = "2022-10-20 16:10:08 +0000";
layers = (
{
layerId = m01;
shapes = (
{
closed = 1;
nodes = (
(208,686,l),
(349,686,l),
(359,740,l),
(218,740,l),
(233,815,o),
(344,902,o),
(587,944,o),
(799,944,qs),
(1014,944,o),
(1259,896,o),
(1352,803,o),
(1339,731,qs),
(1337,719,l),
(1401,719,l),
(1403,732,ls),
(1419,819,o),
(1319,935,o),
(1048,997,o),
(811,997,qs),
(576,997,o),
(302,942,o),
(173,831,o),
(155,740,q),
(14,740,l),
(4,686,l),
(145,686,l),
(24,0,l),
(87,0,l)
);
}
);
width = 287;
}
);
note = dvmI.a13;
},
{
glyphname = dvmI.a14;
lastChange = "2022-10-20 16:10:08 +0000";
layers = (
{
layerId = m01;
shapes = (
{
closed = 1;
nodes = (
(208,686,l),
(349,686,l),
(358,740,l),
(217,740,l),
(233,814,o),
(347,902,o),
(601,945,o),
(824,945,qs),
(1052,945,o),
(1309,896,o),
(1404,801,o),
(1392,729,qs),
(1390,719,l),
(1454,718,l),
(1456,730,ls),
(1471,818,o),
(1369,935,o),
(1087,998,o),
(837,998,qs),
(589,998,o),
(303,943,o),
(173,831,o),
(154,740,q),
(13,740,l),
(4,686,l),
(145,686,l),
(24,0,l),
(87,0,l)
);
}
);
width = 287;
}
);
note = dvmI.a14;
},
{
glyphname = dvmI.a15;
lastChange = "2022-10-20 16:10:08 +0000";
layers = (
{
layerId = m01;
shapes = (
{
closed = 1;
nodes = (
(208,686,l),
(349,686,l),
(358,740,l),
(217,740,l),
(232,814,o),
(349,902,o),
(614,946,o),
(851,946,qs),
(1091,946,o),
(1361,895,o),
(1459,801,o),
(1446,729,qs),
(1445,719,l),
(1507,718,l),
(1509,730,ls),
(1524,817,o),
(1420,935,o),
(1125,999,o),
(862,999,qs),
(602,999,o),
(305,943,o),
(173,832,o),
(154,740,q),
(13,740,l),
(4,686,l),
(145,686,l),
(24,0,l),
(87,0,l)
);
}
);
width = 287;
}
);
note = dvmI.a15;
},
{
glyphname = dvmI.a16;
lastChange = "2022-10-20 16:10:08 +0000";
layers = (
{
layerId = m01;
shapes = (
{
closed = 1;
nodes = (
(208,686,l),
(349,686,l),
(358,740,l),
(217,740,l),
(232,814,o),
(352,902,o),
(628,947,o),
(875,947,qs),
(1129,947,o),
(1410,896,o),
(1511,801,o),
(1498,729,qs),
(1496,718,l),
(1559,718,l),
(1562,730,ls),
(1577,817,o),
(1470,935,o),
(1163,1000,o),
(887,1000,qs),
(616,1000,o),
(308,943,o),
(172,831,o),
(154,740,q),
(13,740,l),
(4,686,l),
(145,686,l),
(24,0,l),
(87,0,l)
);
}
);
width = 287;
}
);
note = dvmI.a16;
},
{
glyphname = dvmI.a17;
lastChange = "2022-10-20 16:10:08 +0000";
layers = (
{
layerId = m01;
shapes = (
{
closed = 1;
nodes = (
(208,686,l),
(349,686,l),
(358,740,l),
(217,740,l),
(232,813,o),
(353,902,o),
(640,948,o),
(900,948,qs),
(1166,948,o),
(1460,895,o),
(1564,799,o),
(1551,727,qs),
(1549,718,l),
(1612,717,l),
(1614,728,ls),
(1630,816,o),
(1520,935,o),
(1201,1001,o),
(912,1001,qs),
(628,1001,o),
(310,943,o),
(172,832,o),
(154,740,q),
(13,740,l),
(4,686,l),
(145,686,l),
(24,0,l),
(87,0,l)
);
}
);
width = 287;
}
);
note = dvmI.a17;
},
{
glyphname = dvmI.a18;
lastChange = "2022-10-20 16:10:08 +0000";
layers = (
{
layerId = m01;
shapes = (
{
closed = 1;
nodes = (
(208,686,l),
(349,686,l),
(358,740,l),
(217,740,l),
(232,814,o),
(356,903,o),
(654,949,o),
(925,949,qs),
(1204,949,o),
(1509,895,o),
(1616,798,o),
(1604,726,qs),
(1602,718,l),
(1665,717,l),
(1667,728,ls),
(1683,816,o),
(1570,935,o),
(1239,1002,o),
(937,1002,qs),
(641,1002,o),
(312,944,o),
(172,832,o),
(154,740,q),
(13,740,l),
(4,686,l),
(145,686,l),
(24,0,l),
(87,0,l)
);
}
);
width = 287;
}
);
note = dvmI.a18;
},
{
glyphname = dvmI.a19;
lastChange = "2022-10-20 16:10:08 +0000";
layers = (
{
layerId = m01;
shapes = (
{
closed = 1;
nodes = (
(208,686,l),
(349,686,l),
(358,740,l),
(217,740,l),
(232,813,o),
(358,902,o),
(668,950,o),
(951,950,qs),
(1242,950,o),
(1560,895,o),
(1670,798,o),
(1658,726,qs),
(1656,717,l),
(1719,716,l),
(1721,728,ls),
(1736,815,o),
(1620,935,o),
(1277,1003,o),
(963,1003,qs),
(655,1003,o),
(315,943,o),
(172,831,o),
(154,740,q),
(13,740,l),
(4,686,l),
(145,686,l),
(24,0,l),
(87,0,l)
);
}
);
width = 287;
}
);
note = dvmI.a19;
},
{
glyphname = dvmI.a20;
lastChange = "2022-10-20 16:10:08 +0000";
layers = (
{
layerId = m01;
shapes = (
{
closed = 1;
nodes = (
(207,686,l),
(348,686,l),
(358,740,l),
(217,740,l),
(233,813,o),
(361,902,o),
(681,951,o),
(975,951,qs),
(1280,951,o),
(1610,895,o),
(1722,797,o),
(1709,724,qs),
(1708,717,l),
(1772,716,l),
(1773,726,ls),
(1789,814,o),
(1670,935,o),
(1316,1004,o),
(989,1004,qs),
(670,1004,o),
(317,944,o),
(172,831,o),
(154,740,q),
(13,740,l),
(3,686,l),
(144,686,l),
(23,0,l),
(86,0,l)
);
}
);
width = 287;
}
);
note = dvmI.a20;
},
{
glyphname = dvmI.a21;
lastChange = "2022-10-20 16:10:08 +0000";
layers = (
{
layerId = m01;
shapes = (
{
closed = 1;
nodes = (
(207,686,l),
(348,686,l),
(358,740,l),
(217,740,l),
(233,813,o),
(363,902,o),
(694,951,o),
(1001,951,qs),
(1317,951,o),
(1660,894,o),
(1776,796,o),
(1763,724,qs),
(1762,717,l),
(1825,715,l),
(1826,725,ls),
(1842,813,o),
(1720,934,o),
(1355,1004,o),
(1015,1004,qs),
(682,1004,o),
(318,944,o),
(172,832,o),
(154,740,q),
(13,740,l),
(3,686,l),
(144,686,l),
(23,0,l),
(86,0,l)
);
}
);
width = 287;
}
);
note = dvmI.a21;
},
{
glyphname = dvmI.a22;
lastChange = "2022-10-20 16:10:08 +0000";
layers = (
{
layerId = m01;
shapes = (
{
closed = 1;
nodes = (
(207,686,l),
(348,686,l),
(358,740,l),
(217,740,l),
(233,812,o),
(364,902,o),
(707,952,o),
(1026,952,qs),
(1355,952,o),
(1710,894,o),
(1828,794,o),
(1816,723,qs),
(1815,716,l),
(1876,715,l),
(1878,725,ls),
(1894,812,o),
(1770,934,o),
(1392,1005,o),
(1040,1005,qs),
(695,1005,o),
(321,944,o),
(172,831,o),
(154,740,q),
(13,740,l),
(3,686,l),
(144,686,l),
(23,0,l),
(86,0,l)
);
}
);
width = 287;
}
);
note = dvmI.a22;
},
{
glyphname = dvmI.a23;
lastChange = "2022-10-20 16:10:08 +0000";
layers = (
{
layerId = m01;
shapes = (
{
closed = 1;
nodes = (
(207,686,l),
(348,686,l),
(358,740,l),
(217,740,l),
(232,812,o),
(367,902,o),
(721,953,o),
(1051,953,qs),
(1393,953,o),
(1760,894,o),
(1881,794,o),
(1869,722,qs),
(1868,716,l),
(1931,714,l),
(1933,723,ls),
(1948,811,o),
(1821,934,o),
(1431,1006,o),
(1066,1006,qs),
(710,1006,o),
(325,944,o),
(173,831,o),
(154,740,q),
(13,740,l),
(3,686,l),
(144,686,l),
(23,0,l),
(86,0,l)
);
}
);
width = 287;
}
);
note = dvmI.a23;
},
{
glyphname = dvmI.a24;
lastChange = "2022-10-20 16:10:08 +0000";
layers = (
{
layerId = m01;
shapes = (
{
closed = 1;
nodes = (
(207,686,l),
(348,686,l),
(358,740,l),
(217,740,l),
(232,812,o),
(369,903,o),
(735,954,o),
(1076,954,qs),
(1430,954,o),
(1810,894,o),
(1934,793,o),
(1922,722,qs),
(1920,715,l),
(1983,714,l),
(1985,723,ls),
(2000,811,o),
(1871,934,o),
(1469,1007,o),
(1091,1007,qs),
(723,1007,o),
(326,944,o),
(173,831,o),
(154,740,q),
(13,740,l),
(3,686,l),
(144,686,l),
(23,0,l),
(86,0,l)
);
}
);
width = 287;
}
);
note = dvmI.a24;
},
{
glyphname = exclam;
lastChange = "2022-10-20 16:10:08 +0000";
layers = (
{
layerId = m01;
shapes = (
{
closed = 1;
nodes = (
(77,185,l),
(136,185,l),
(236,699,l),
(160,699,l)
);
},
{
closed = 1;
nodes = (
(140,69,o),
(116,98,o),
(95,98,qs),
(73,98,o),
(39,69,o),
(35,47,qs),
(31,25,o),
(55,-5,o),
(77,-5,qs),
(98,-5,o),
(132,25,o),
(136,47,qs)
);
}
);
width = 277;
}
);
note = exclam;
unicode = 33;
},
{
glyphname = quotedbl;
lastChange = "2022-10-20 16:10:08 +0000";
layers = (
{
layerId = m01;
shapes = (
{
closed = 1;
nodes = (
(30,602,l),
(79,602,l),
(123,795,l),
(54,795,l)
);
},
{
closed = 1;
nodes = (
(151,602,l),
(200,602,l),
(243,795,l),
(174,795,l)
);
}
);
width = 264;
}
);
note = quotedbl;
unicode = 34;
},
{
glyphname = numbersign;
lastChange = "2022-10-20 16:10:08 +0000";
layers = (
{
layerId = m01;
shapes = (
{
closed = 1;
nodes = (
(479,276,l),
(257,276,l),
(329,461,l),
(551,461,l)
);
},
{
closed = 1;
nodes = (
(372,0,l),
(439,0,l),
(522,214,l),
(678,214,l),
(689,276,l),
(546,276,l),
(618,461,l),
(777,461,l),
(788,523,l),
(643,523,l),
(727,740,l),
(660,740,l),
(576,523,l),
(354,523,l),
(438,740,l),
(371,740,l),
(287,523,l),
(117,523,l),
(106,461,l),
(262,461,l),
(190,276,l),
(18,276,l),
(7,214,l),
(166,214,l),
(83,0,l),
(150,0,l),
(233,214,l),
(455,214,l)
);
}
);
width = 812;
}
);
note = numbersign;
unicode = 35;
},
{
glyphname = dollar;
lastChange = "2022-10-20 16:10:08 +0000";
layers = (
{
layerId = m01;
shapes = (
{
closed = 1;
nodes = (
(187,-87,l),
(231,-87,l),
(245,-7,l),
(311,-4,o),
(413,52,o),
(474,137,o),
(482,184,qs),
(494,249,o),
(451,325,o),
(375,362,o),
(313,379,q),
(360,646,l),
(409,638,o),
(459,574,o),
(459,537,q),
(533,537,l),
(536,606,o),
(452,698,o),
(370,706,q),
(385,791,l),
(341,791,l),
(327,707,l),
(232,703,o),
(104,600,o),
(90,521,qs),
(79,458,o),
(121,383,o),
(196,347,o),
(260,329,q),
(211,52,l),
(154,60,o),
(101,133,o),
(105,178,q),
(30,178,l),
(21,103,o),
(113,2,o),
(201,-6,q)
);
},
{
closed = 1;
nodes = (
(402,127,o),
(319,54,o),
(255,50,q),
(302,316,l),
(363,296,o),
(422,238,o),
(412,181,qs)
);
},
{
closed = 1;
nodes = (
(172,582,o),
(256,646,o),
(316,649,q),
(271,392,l),
(210,411,o),
(151,468,o),
(161,524,qs)
);
}
);
width = 597;
}
);
note = dollar;
unicode = 36;
},
{
glyphname = percent;
lastChange = "2022-10-20 16:10:08 +0000";
layers = (
{
layerId = m01;
shapes = (
{
closed = 1;
nodes = (
(70,502,o),
(135,423,o),
(196,423,qs),
(258,423,o),
(351,502,o),
(362,567,qs),
(374,631,o),
(309,710,o),
(247,710,qs),
(186,710,o),
(93,631,o),
(81,567,qs)
);
},
{
closed = 1;
nodes = (
(277,665,o),
(313,613,o),
(305,567,qs),
(297,520,o),
(242,468,o),
(204,468,qs),
(166,468,o),
(130,520,o),
(138,567,qs),
(147,614,o),
(201,665,o),
(239,665,qs)
);
},
{
closed = 1;
nodes = (
(60,0,l),
(131,0,l),
(665,700,l),
(595,700,l)
);
},
{
closed = 1;
nodes = (
(353,68,o),
(418,-11,o),
(479,-11,qs),
(540,-11,o),
(633,68,o),
(645,133,qs),
(656,198,o),
(591,277,o),
(530,277,qs),
(469,277,o),
(376,198,o),
(365,133,qs)
);
},
{
closed = 1;
nodes = (
(560,231,o),
(596,180,o),
(588,133,qs),
(580,86,o),
(526,35,o),
(488,35,qs),
(450,35,o),
(413,87,o),
(421,133,qs),
(429,179,o),
(484,231,o),
(522,231,qs)
);
}
);
width = 726;
}
);
note = percent;
unicode = 37;
},
{
glyphname = ampersand;
lastChange = "2022-10-20 16:10:08 +0000";
layers = (
{
layerId = m01;
shapes = (
{
closed = 1;
nodes = (
(515,555,l),
(530,624,o),
(452,710,o),
(377,710,qs),
(297,710,o),
(186,627,o),
(174,560,qs),
(167,521,o),
(188,454,o),
(216,415,q),
(129,384,o),
(26,274,o),
(13,200,qs),
(2,137,o),
(45,41,o),
(143,-12,o),
(213,-12,qs),
(286,-12,o),
(412,41,o),
(473,97,q),
(550,0,l),
(641,0,l),
(521,147,l),
(555,185,o),
(590,231,qs),
(689,362,l),
(614,362,l),
(531,255,ls),
(500,214,o),
(483,195,q),
(294,428,ls),
(263,469,o),
(239,529,o),
(244,561,qs),
(251,601,o),
(317,652,o),
(363,652,qs),
(406,652,o),
(454,600,o),
(445,555,q)
);
},
{
closed = 1;
nodes = (
(175,49,o),
(106,89,o),
(75,158,o),
(83,202,qs),
(104,319,o),
(252,370,q),
(435,144,l),
(384,95,o),
(283,49,o),
(224,49,qs)
);
}
);
width = 719;
}
);
note = ampersand;
unicode = 38;
},
{
glyphname = quotesingle;
lastChange = "2022-10-20 16:10:08 +0000";
layers = (
{
layerId = m01;
shapes = (
{
closed = 1;
nodes = (
(32,602,l),
(81,602,l),
(127,795,l),
(54,795,l)
);
}
);
width = 147;
}
);
note = quotesingle;
unicode = 39;
},
{
glyphname = parenleft;
lastChange = "2022-10-20 16:10:08 +0000";
layers = (
{
layerId = m01;
shapes = (
{
closed = 1;
nodes = (
(271,-186,l),
(272,-179,l),
(189,-74,o),
(133,210,o),
(161,369,qs),
(190,530,o),
(352,822,o),
(478,927,q),
(479,934,l),
(406,934,l),
(288,838,o),
(124,542,o),
(93,369,qs),
(63,198,o),
(120,-93,o),
(197,-186,q)
);
}
);
width = 420;
}
);
note = parenleft;
unicode = 40;
},
{
glyphname = parenright;
lastChange = "2022-10-20 16:10:08 +0000";
layers = (
{
layerId = m01;
shapes = (
{
closed = 1;
nodes = (
(-49,-186,l),
(-48,-179,l),
(73,-74,o),
(229,210,o),
(257,369,qs),
(286,530,o),
(226,822,o),
(138,927,q),
(139,934,l),
(212,934,l),
(296,838,o),
(356,542,o),
(325,369,qs),
(295,198,o),
(136,-93,o),
(25,-186,q)
);
}
);
width = 420;
}
);
note = parenright;
unicode = 41;
},
{
glyphname = asterisk;
lastChange = "2022-10-20 16:10:08 +0000";
layers = (
{
layerId = m01;
shapes = (
{
closed = 1;
nodes = (
(299,732,l),
(240,732,l),
(224,575,l),
(109,662,l),
(71,610,l),
(201,547,l),
(48,483,l),
(69,430,l),
(213,517,l),
(174,360,l),
(232,360,l),
(248,517,l),
(362,431,l),
(400,483,l),
(269,547,l),
(421,611,l),
(402,662,l),
(258,575,l)
);
}
);
width = 469;
}
);
note = asterisk;
unicode = 42;
},
{
glyphname = plus;
lastChange = "2022-10-20 16:10:08 +0000";
layers = (
{
layerId = m01;
shapes = (
{
closed = 1;
nodes = (
(340,625,l),
(300,400,l),
(78,400,l),
(68,340,l),
(290,340,l),
(250,115,l),
(315,115,l),
(355,340,l),
(578,340,l),
(588,400,l),
(365,400,l),
(405,625,l)
);
}
);
width = 655;
}
);
note = plus;
unicode = 43;
},
{
glyphname = comma;
lastChange = "2022-10-20 16:10:08 +0000";
layers = (
{
layerId = m01;
shapes = (
{
closed = 1;
nodes = (
(-31,-146,l),
(18,-146,l),
(167,116,l),
(89,116,l)
);
}
);
width = 173;
}
);
note = comma;
unicode = 44;
},
{
glyphname = hyphen;
lastChange = "2022-10-20 16:10:08 +0000";
layers = (
{
layerId = m01;
shapes = (
{
closed = 1;
nodes = (
(25,341,l),
(414,341,l),
(424,400,l),
(35,400,l)
);
}
);
width = 519;
}
);
note = hyphen;
unicode = 45;
},
{
glyphname = period;
lastChange = "2022-10-20 16:10:08 +0000";
layers = (
{
layerId = m01;
shapes = (
{
closed = 1;
nodes = (
(146,69,o),
(122,98,o),
(101,98,qs),
(79,98,o),
(45,69,o),
(41,47,qs),
(37,25,o),
(61,-5,o),
(83,-5,qs),
(104,-5,o),
(138,25,o),
(142,47,qs)
);
}
);
width = 182;
}
);
note = period;
unicode = 46;
},
{
glyphname = slash;
lastChange = "2022-10-20 16:10:08 +0000";
layers = (
{
layerId = m01;
shapes = (
{
closed = 1;
nodes = (
(-52,-166,l),
(17,-166,l),
(489,940,l),
(418,940,l)
);
}
);
width = 441;
}
);
note = slash;
unicode = 47;
},
{
glyphname = zero;
lastChange = "2022-10-20 16:10:08 +0000";
layers = (
{
layerId = m01;
shapes = (
{
closed = 1;
nodes = (
(35,190,o),
(106,-2,o),
(244,-2,qs),
(381,-2,o),
(521,190,o),
(551,365,qs),
(582,537,o),
(509,727,o),
(372,727,qs),
(235,727,o),
(96,537,o),
(65,365,qs)
);
},
{
closed = 1;
nodes = (
(466,269,o),
(417,140,o),
(327,62,o),
(255,62,qs),
(183,62,o),
(121,140,o),
(118,269,o),
(134,365,qs),
(151,458,o),
(199,586,o),
(289,664,o),
(361,664,qs),
(433,664,o),
(495,586,o),
(499,458,o),
(482,365,qs)
);
}
);
width = 616;
}
);
note = zero;
unicode = 48;
},
{
glyphname = one;
lastChange = "2022-10-20 16:10:08 +0000";
layers = (
{
layerId = m01;
shapes = (
{
closed = 1;
nodes = (
(67,0,l),
(138,0,l),
(264,717,l),
(94,717,l),
(83,654,l),
(182,654,l)
);
}
);
width = 292;
}
);
note = one;
unicode = 49;
},
{
glyphname = two;
lastChange = "2022-10-20 16:10:08 +0000";
layers = (
{
layerId = m01;
shapes = (
{
closed = 1;
nodes = (
(-13,5,l),
(464,5,l),
(475,64,l),
(105,64,l),
(271,172,o),
(512,399,o),
(533,520,qs),
(551,620,o),
(450,729,o),
(353,729,qs),
(252,729,o),
(105,606,o),
(80,495,q),
(148,495,l),
(166,574,o),
(266,669,o),
(342,669,qs),
(420,669,o),
(475,586,o),
(462,517,qs),
(444,412,o),
(204,193,o),
(-4,55,q)
);
}
);
width = 572;
}
);
note = two;
unicode = 50;
},
{
glyphname = three;
lastChange = "2022-10-20 16:10:08 +0000";
layers = (
{
layerId = m01;
shapes = (
{
closed = 1;
nodes = (
(160,534,l),
(180,598,o),
(281,669,o),
(349,669,qs),
(419,669,o),
(483,598,o),
(472,540,qs),
(449,407,o),
(245,407,qs),
(222,407,l),
(211,348,l),
(233,348,ls),
(452,348,o),
(426,196,qs),
(415,134,o),
(320,54,o),
(244,54,qs),
(167,54,o),
(87,137,o),
(90,204,q),
(22,204,l),
(14,104,o),
(129,-5,o),
(233,-5,qs),
(342,-5,o),
(476,104,o),
(492,190,qs),
(505,267,o),
(438,362,o),
(369,376,q),
(370,381,l),
(440,392,o),
(530,484,o),
(542,547,qs),
(551,599,o),
(516,682,o),
(429,730,o),
(362,730,qs),
(261,730,o),
(115,625,o),
(92,534,q)
);
}
);
width = 585;
}
);
note = three;
unicode = 51;
},
{
glyphname = four;
lastChange = "2022-10-20 16:10:08 +0000";
layers = (
{
layerId = m01;
shapes = (
{
closed = 1;
nodes = (
(349,0,l),
(418,0,l),
(448,170,l),
(555,170,l),
(566,231,l),
(459,231,l),
(544,713,l),
(461,713,l),
(10,223,l),
(1,170,l),
(379,170,l)
);
},
{
closed = 1;
nodes = (
(93,231,l),
(464,636,l),
(393,231,l)
);
}
);
width = 613;
}
);
note = four;
unicode = 52;
},
{
glyphname = five;
lastChange = "2022-10-20 16:10:08 +0000";
layers = (
{
layerId = m01;
shapes = (
{
closed = 1;
nodes = (
(150,718,l),
(80,321,l),
(146,321,l),
(175,367,o),
(272,421,o),
(330,421,qs),
(414,421,o),
(488,328,o),
(473,245,qs),
(458,160,o),
(351,57,o),
(264,57,qs),
(195,57,o),
(114,129,o),
(112,195,q),
(43,195,l),
(41,104,o),
(150,-3,o),
(253,-3,qs),
(334,-3,o),
(455,63,o),
(528,176,o),
(540,246,qs),
(551,307,o),
(524,414,o),
(432,481,o),
(350,481,qs),
(294,481,o),
(190,436,o),
(159,401,q),
(204,657,l),
(570,657,l),
(581,718,l)
);
}
);
width = 617;
}
);
note = five;
unicode = 53;
},
{
glyphname = six;
lastChange = "2022-10-20 16:10:08 +0000";
layers = (
{
layerId = m01;
shapes = (
{
closed = 1;
nodes = (
(573,542,l),
(578,626,o),
(487,731,o),
(391,731,qs),
(137,731,o),
(71,361,qs),
(41,187,o),
(120,-3,o),
(269,-3,qs),
(347,-3,o),
(464,61,o),
(533,168,o),
(545,234,qs),
(565,347,o),
(465,476,o),
(360,476,qs),
(287,476,o),
(162,407,o),
(131,347,q),
(158,520,o),
(282,672,o),
(380,672,qs),
(509,672,o),
(508,542,q)
);
},
{
closed = 1;
nodes = (
(419,416,o),
(492,318,o),
(477,231,qs),
(462,150,o),
(354,56,o),
(277,56,qs),
(185,56,o),
(108,164,o),
(122,245,qs),
(132,301,o),
(198,378,o),
(289,416,o),
(336,416,qs)
);
}
);
width = 629;
}
);
note = six;
unicode = 54;
},
{
glyphname = seven;
lastChange = "2022-10-20 16:10:08 +0000";
layers = (
{
layerId = m01;
shapes = (
{
closed = 1;
nodes = (
(89,716,l),
(79,656,l),
(479,656,l),
(81,0,l),
(152,0,l),
(548,662,l),
(557,716,l)
);
}
);
width = 533;
}
);
note = seven;
unicode = 55;
},
{
glyphname = eight;
lastChange = "2022-10-20 16:10:08 +0000";
layers = (
{
layerId = m01;
shapes = (
{
closed = 1;
nodes = (
(136,355,o),
(41,259,o),
(29,190,qs),
(18,126,o),
(64,31,o),
(170,-21,o),
(246,-21,qs),
(322,-21,o),
(446,31,o),
(526,126,o),
(537,190,qs),
(549,259,o),
(488,355,o),
(423,372,q),
(489,391,o),
(569,479,o),
(580,539,qs),
(589,593,o),
(549,678,o),
(452,727,o),
(378,727,qs),
(304,727,o),
(189,678,o),
(119,593,o),
(110,539,qs),
(99,478,o),
(149,392,o),
(207,372,q)
);
},
{
closed = 1;
nodes = (
(244,395,o),
(165,469,o),
(176,531,qs),
(188,598,o),
(291,669,o),
(368,669,qs),
(445,669,o),
(522,597,o),
(510,531,qs),
(499,469,o),
(394,395,o),
(319,395,qs)
);
},
{
closed = 1;
nodes = (
(392,341,o),
(482,266,o),
(469,192,qs),
(456,121,o),
(341,38,o),
(256,38,qs),
(170,38,o),
(85,120,o),
(98,192,qs),
(111,267,o),
(228,341,o),
(310,341,qs)
);
}
);
width = 624;
}
);
note = eight;
unicode = 56;
},
{
glyphname = nine;
lastChange = "2022-10-20 16:10:08 +0000";
layers = (
{
layerId = m01;
shapes = (
{
closed = 1;
nodes = (
(63,191,l),
(57,104,o),
(148,-3,o),
(247,-3,qs),
(382,-3,o),
(527,185,o),
(559,372,qs),
(590,545,o),
(511,730,o),
(369,730,qs),
(292,730,o),
(175,668,o),
(104,560,o),
(92,493,qs),
(72,381,o),
(177,255,o),
(282,255,qs),
(351,255,o),
(469,318,o),
(498,373,q),
(472,203,o),
(355,56,o),
(261,56,qs),
(193,56,o),
(127,126,o),
(128,191,q)
);
},
{
closed = 1;
nodes = (
(219,315,o),
(144,411,o),
(159,495,qs),
(173,575,o),
(283,671,o),
(360,671,qs),
(447,671,o),
(522,565,o),
(507,483,qs),
(498,430,o),
(436,354,o),
(350,315,o),
(303,315,qs)
);
}
);
width = 625;
}
);
note = nine;
unicode = 57;
},
{
glyphname = colon;
lastChange = "2022-10-20 16:10:08 +0000";
layers = (
{
layerId = m01;
shapes = (
{
closed = 1;
nodes = (
(108,69,o),
(84,98,o),
(63,98,qs),
(41,98,o),
(7,69,o),
(3,47,qs),
(-1,25,o),
(23,-5,o),
(45,-5,qs),
(66,-5,o),
(100,25,o),
(104,47,qs)
);
},
{
closed = 1;
nodes = (
(184,504,o),
(160,533,o),
(139,533,qs),
(117,533,o),
(83,504,o),
(79,482,qs),
(76,460,o),
(99,430,o),
(121,430,qs),
(142,430,o),
(177,460,o),
(180,482,qs)
);
}
);
width = 185;
}
);
note = colon;
unicode = 58;
},
{
glyphname = semicolon;
lastChange = "2022-10-20 16:10:08 +0000";
layers = (
{
layerId = m01;
shapes = (
{
closed = 1;
nodes = (
(222,505,o),
(198,534,o),
(177,534,qs),
(155,534,o),
(121,505,o),
(117,483,qs),
(113,461,o),
(137,431,o),
(159,431,qs),
(180,431,o),
(214,461,o),
(218,483,qs)
);
},
{
closed = 1;
nodes = (
(-44,-146,l),
(5,-146,l),
(154,116,l),
(76,116,l)
);
}
);
width = 227;
}
);
note = semicolon;
unicode = 59;
},
{
glyphname = less;
lastChange = "2022-10-20 16:10:08 +0000";
layers = (
{
layerId = m01;
shapes = (
{
closed = 1;
nodes = (
(159,370,l),
(452,602,l),
(363,602,l),
(71,370,l),
(281,138,l),
(370,138,l)
);
}
);
width = 504;
}
);
note = less;
unicode = 60;
},
{
glyphname = equal;
lastChange = "2022-10-20 16:10:08 +0000";
layers = (
{
layerId = m01;
shapes = (
{
closed = 1;
nodes = (
(60,239,l),
(570,239,l),
(580,298,l),
(70,298,l)
);
},
{
closed = 1;
nodes = (
(96,442,l),
(606,442,l),
(616,502,l),
(106,502,l)
);
}
);
width = 676;
}
);
note = equal;
unicode = 61;
},
{
glyphname = greater;
lastChange = "2022-10-20 16:10:08 +0000";
layers = (
{
layerId = m01;
shapes = (
{
closed = 1;
nodes = (
(37,138,l),
(126,138,l),
(418,370,l),
(208,602,l),
(119,602,l),
(330,370,l)
);
}
);
width = 492;
}
);
note = greater;
unicode = 62;
},
{
glyphname = question;
lastChange = "2022-10-20 16:10:08 +0000";
layers = (
{
layerId = m01;
shapes = (
{
closed = 1;
nodes = (
(129,510,l),
(140,574,o),
(233,648,o),
(301,648,qs),
(369,648,o),
(439,570,o),
(427,504,qs),
(410,410,o),
(280,345,o),
(177,345,qs),
(151,345,l),
(127,185,l),
(187,185,l),
(209,295,l),
(324,295,o),
(475,396,o),
(494,504,qs),
(505,565,o),
(466,658,o),
(376,708,o),
(312,708,qs),
(249,708,o),
(143,659,o),
(73,570,o),
(62,510,q)
);
},
{
closed = 1;
nodes = (
(186,69,o),
(162,98,o),
(141,98,qs),
(119,98,o),
(85,69,o),
(81,47,qs),
(77,25,o),
(101,-5,o),
(123,-5,qs),
(144,-5,o),
(178,25,o),
(182,47,qs)
);
}
);
width = 512;
}
);
note = question;
unicode = 63;
},
{
glyphname = at;
lastChange = "2022-10-20 16:10:08 +0000";
layers = (
{
layerId = m01;
shapes = (
{
closed = 1;
nodes = (
(743,-6,o),
(853,83,o),
(928,225,o),
(942,303,qs),
(959,401,o),
(897,552,o),
(748,636,o),
(640,636,qs),
(500,636,o),
(252,504,o),
(85,275,o),
(60,136,qs),
(42,36,o),
(104,-114,o),
(250,-195,o),
(355,-195,qs),
(458,-195,o),
(552,-159,q),
(550,-110,l),
(470,-144,o),
(379,-144,qs),
(235,-144,o),
(95,7,o),
(120,143,qs),
(142,265,o),
(287,467,o),
(502,585,o),
(622,585,qs),
(718,585,o),
(846,516,o),
(898,387,o),
(883,299,qs),
(872,240,o),
(818,121,o),
(742,43,o),
(699,43,qs),
(662,43,o),
(645,96,o),
(661,143,qs),
(764,434,l),
(703,434,l),
(677,360,l),
(669,402,o),
(608,446,o),
(558,446,qs),
(488,446,o),
(364,368,o),
(279,239,o),
(266,165,qs),
(252,86,o),
(321,-6,o),
(397,-6,qs),
(451,-6,o),
(556,47,o),
(596,93,q),
(589,47,o),
(631,-6,o),
(680,-6,qs)
);
},
{
closed = 1;
nodes = (
(620,183,o),
(556,97,o),
(472,49,o),
(427,49,qs),
(371,49,o),
(323,117,o),
(333,175,qs),
(343,230,o),
(404,329,o),
(495,391,o),
(548,391,qs),
(611,391,o),
(656,304,o),
(636,238,qs)
);
}
);
width = 1002;
}
);
note = at;
unicode = 64;
},
{
glyphname = A;
lastChange = "2022-10-20 16:10:08 +0000";
layers = (
{
layerId = m01;
shapes = (
{
closed = 1;
nodes = (
(482,20,ls),
(486,0,o),
(506,0,qs),
(547,0,ls),
(552,0,o),
(558,7,o),
(557,12,qs),
(428,682,ls),
(427,690,o),
(418,690,qs),
(356,690,ls),
(348,690,o),
(343,682,qs),
(-23,12,ls),
(-26,7,o),
(-22,0,o),
(-17,0,qs),
(24,0,ls),
(44,0,o),
(56,20,qs),
(131,158,ls),
(135,166,o),
(143,166,qs),
(445,166,ls),
(453,166,o),
(455,158,qs)
);
},
{
closed = 1;
nodes = (
(441,235,l),
(442,224,o),
(431,224,qs),
(179,224,ls),
(168,224,o),
(173,235,q),
(361,584,ls),
(364,590,o),
(374,590,o),
(375,584,qs)
);
}
);
width = 652;
}
);
note = A;
unicode = 65;
},
{
glyphname = B;
lastChange = "2022-10-20 16:10:08 +0000";
layers = (
{
layerId = m01;
shapes = (
{
closed = 1;
nodes = (
(439,131,o),
(342,59,o),
(266,59,qs),
(99,59,l),
(144,317,ls),
(146,324,o),
(155,332,o),
(162,332,qs),
(311,332,ls),
(386,332,o),
(462,257,o),
(451,194,qs)
);
},
{
closed = 1;
nodes = (
(480,457,o),
(391,390,o),
(320,390,qs),
(157,390,l),
(199,625,ls),
(200,632,o),
(209,640,o),
(216,640,qs),
(361,640,ls),
(435,640,o),
(501,574,o),
(490,516,qs)
);
},
{
closed = 1;
nodes = (
(530,250,o),
(471,346,o),
(417,359,qs),
(410,361,o),
(418,364,q),
(472,380,o),
(552,461,o),
(563,523,qs),
(576,601,o),
(483,699,o),
(377,699,qs),
(147,699,ls),
(142,699,o),
(141,694,qs),
(19,5,ls),
(18,0,o),
(23,0,qs),
(260,0,ls),
(331,0,o),
(442,49,o),
(510,134,o),
(519,187,qs)
);
}
);
width = 597;
}
);
note = B;
unicode = 66;
},
{
glyphname = C;
lastChange = "2022-10-20 16:10:08 +0000";
layers = (
{
layerId = m01;
shapes = (
{
closed = 1;
nodes = (
(30,247,o),
(91,85,o),
(231,-6,o),
(327,-6,qs),
(440,-6,o),
(623,98,o),
(679,192,qs),
(682,197,o),
(679,204,o),
(674,204,qs),
(625,204,ls),
(605,204,o),
(592,185,qs),
(549,123,o),
(419,55,o),
(338,55,qs),
(261,55,o),
(151,127,o),
(104,261,o),
(120,350,qs),
(136,439,o),
(229,574,o),
(365,646,o),
(442,646,qs),
(524,646,o),
(630,577,o),
(650,514,qs),
(656,495,o),
(676,495,qs),
(725,495,ls),
(730,495,o),
(736,502,o),
(735,507,qs),
(712,602,o),
(566,707,o),
(453,707,qs),
(357,707,o),
(185,616,o),
(66,453,o),
(48,350,qs)
);
}
);
width = 771;
}
);
note = C;
unicode = 67;
},
{
glyphname = D;
lastChange = "2022-10-20 16:10:08 +0000";
layers = (
{
layerId = m01;
shapes = (
{
closed = 1;
nodes = (
(167,699,ls),
(142,699,o),
(137,674,qs),
(19,5,ls),
(18,0,o),
(23,0,qs),
(225,0,ls),
(341,0,o),
(522,83,o),
(638,240,o),
(657,348,qs),
(676,457,o),
(616,615,o),
(465,699,o),
(349,699,qs)
);
},
{
closed = 1;
nodes = (
(99,58,l),
(197,616,ls),
(201,641,o),
(226,641,qs),
(338,641,ls),
(484,641,o),
(610,486,o),
(586,348,qs),
(562,211,o),
(382,58,o),
(236,58,qs)
);
}
);
width = 706;
}
);
note = D;
unicode = 68;
},
{
glyphname = E;
lastChange = "2022-10-20 16:10:08 +0000";
layers = (
{
layerId = m01;
shapes = (
{
closed = 1;
nodes = (
(506,695,ls),
(507,700,o),
(502,700,qs),
(147,700,ls),
(142,700,o),
(141,695,qs),
(19,5,ls),
(18,0,o),
(23,0,qs),
(378,0,ls),
(383,0,o),
(384,5,qs),
(389,33,ls),
(394,58,o),
(369,58,qs),
(104,58,ls),
(99,58,o),
(99,63,qs),
(144,318,ls),
(145,323,o),
(150,323,qs),
(405,323,ls),
(410,323,o),
(411,328,qs),
(420,376,ls),
(420,381,o),
(415,381,qs),
(160,381,ls),
(155,381,o),
(156,386,qs),
(201,637,ls),
(201,642,o),
(206,642,qs),
(471,642,ls),
(496,642,o),
(501,667,qs)
);
}
);
width = 503;
}
);
note = E;
unicode = 69;
},
{
glyphname = F;
lastChange = "2022-10-20 16:10:08 +0000";
layers = (
{
layerId = m01;
shapes = (
{
closed = 1;
nodes = (
(19,5,ls),
(18,0,o),
(23,0,qs),
(83,0,ls),
(88,0,o),
(89,5,qs),
(144,317,ls),
(145,322,o),
(150,322,qs),
(400,322,ls),
(405,322,o),
(406,327,qs),
(414,375,ls),
(415,380,o),
(410,380,qs),
(160,380,ls),
(155,380,o),
(156,385,qs),
(197,616,ls),
(201,641,o),
(226,641,qs),
(484,641,ls),
(509,641,o),
(514,666,qs),
(519,694,ls),
(520,699,o),
(515,699,qs),
(167,699,ls),
(142,699,o),
(137,674,qs)
);
}
);
width = 493;
}
);
note = F;
unicode = 70;
},
{
glyphname = G;
lastChange = "2022-10-20 16:10:08 +0000";
layers = (
{
layerId = m01;
shapes = (
{
closed = 1;
nodes = (
(360,707,o),
(186,616,o),
(66,453,o),
(48,350,qs),
(30,247,o),
(92,84,o),
(234,-7,o),
(331,-7,qs),
(425,-7,o),
(591,79,o),
(707,228,o),
(729,320,qs),
(737,366,ls),
(738,371,o),
(733,371,qs),
(395,371,ls),
(370,371,o),
(365,346,qs),
(361,319,ls),
(360,314,o),
(365,314,qs),
(649,314,ls),
(654,314,o),
(653,309,qs),
(633,232,o),
(541,118,o),
(414,56,o),
(342,56,qs),
(264,56,o),
(153,128,o),
(104,262,o),
(120,350,qs),
(136,438,o),
(231,571,o),
(368,643,o),
(446,643,qs),
(527,643,o),
(636,566,o),
(654,499,q),
(655,495,o),
(660,495,qs),
(732,495,ls),
(738,495,o),
(737,501,qs),
(716,598,o),
(568,707,o),
(457,707,qs)
);
}
);
width = 782;
}
);
note = G;
unicode = 71;
},
{
glyphname = H;
lastChange = "2022-10-20 16:10:08 +0000";
layers = (
{
layerId = m01;
shapes = (
{
closed = 1;
nodes = (
(472,25,ls),
(467,0,o),
(492,0,qs),
(532,0,ls),
(537,0,o),
(538,5,qs),
(660,694,ls),
(661,699,o),
(656,699,qs),
(596,699,ls),
(591,699,o),
(590,694,qs),
(540,410,ls),
(535,385,o),
(510,385,qs),
(161,385,ls),
(156,385,o),
(157,390,qs),
(207,674,ls),
(212,699,o),
(187,699,qs),
(147,699,ls),
(142,699,o),
(141,694,qs),
(19,5,ls),
(18,0,o),
(23,0,qs),
(83,0,ls),
(88,0,o),
(89,5,qs),
(142,302,ls),
(146,327,o),
(171,327,qs),
(520,327,ls),
(525,327,o),
(524,322,qs)
);
}
);
width = 679;
}
);
note = H;
unicode = 72;
},
{
glyphname = I;
lastChange = "2022-10-20 16:10:08 +0000";
layers = (
{
layerId = m01;
shapes = (
{
closed = 1;
nodes = (
(19,5,ls),
(18,0,o),
(23,0,qs),
(83,0,ls),
(88,0,o),
(89,5,qs),
(211,694,ls),
(212,699,o),
(207,699,qs),
(147,699,ls),
(142,699,o),
(141,694,qs)
);
}
);
width = 229;
}
);
note = I;
unicode = 73;
},
{
glyphname = J;
lastChange = "2022-10-20 16:10:08 +0000";
layers = (
{
layerId = m01;
shapes = (
{
closed = 1;
nodes = (
(302,170,ls),
(293,121,o),
(228,55,o),
(172,55,qs),
(120,55,o),
(75,112,o),
(77,160,qs),
(78,184,o),
(55,184,qs),
(13,184,ls),
(8,184,o),
(8,179,qs),
(-7,93,o),
(77,-7,o),
(161,-7,qs),
(243,-7,o),
(358,90,o),
(372,170,qs),
(464,694,ls),
(465,699,o),
(460,699,qs),
(420,699,ls),
(395,699,o),
(391,674,qs)
);
}
);
width = 499;
}
);
note = J;
unicode = 74;
},
{
glyphname = K;
lastChange = "2022-10-20 16:10:08 +0000";
layers = (
{
layerId = m01;
shapes = (
{
closed = 1;
nodes = (
(389,3,l),
(390,0,o),
(395,0,qs),
(475,0,ls),
(482,0,o),
(478,6,qs),
(229,332,ls),
(222,340,o),
(226,360,o),
(235,368,qs),
(597,693,ls),
(603,699,o),
(596,699,qs),
(519,699,ls),
(515,699,o),
(512,696,q),
(191,405,ls),
(178,393,o),
(159,401,o),
(162,417,qs),
(207,674,ls),
(212,699,o),
(187,699,qs),
(147,699,ls),
(142,699,o),
(141,694,qs),
(23,25,ls),
(18,0,o),
(43,0,qs),
(83,0,ls),
(88,0,o),
(89,5,qs),
(137,278,ls),
(140,294,o),
(162,302,o),
(171,290,qs)
);
}
);
width = 568;
}
);
note = K;
unicode = 75;
},
{
glyphname = L;
lastChange = "2022-10-20 16:10:08 +0000";
layers = (
{
layerId = m01;
shapes = (
{
closed = 1;
nodes = (
(147,699,ls),
(142,699,o),
(141,694,qs),
(19,5,ls),
(18,0,o),
(23,0,qs),
(334,0,ls),
(339,0,o),
(340,5,qs),
(345,32,ls),
(349,57,o),
(324,57,qs),
(123,57,ls),
(98,57,o),
(103,82,qs),
(207,674,ls),
(212,699,o),
(187,699,qs)
);
}
);
width = 421;
}
);
note = L;
unicode = 76;
},
{
glyphname = M;
lastChange = "2022-10-20 16:10:08 +0000";
layers = (
{
layerId = m01;
shapes = (
{
closed = 1;
nodes = (
(20,5,ls),
(19,0,o),
(24,0,qs),
(64,0,ls),
(89,0,o),
(94,25,qs),
(184,535,ls),
(184,539,o),
(188,539,o),
(190,536,q),
(331,19,ls),
(336,0,o),
(356,0,qs),
(365,0,ls),
(385,0,o),
(398,19,qs),
(721,538,l),
(724,541,o),
(728,541,o),
(727,537,qs),
(637,25,ls),
(632,0,o),
(657,0,qs),
(697,0,ls),
(702,0,o),
(703,5,qs),
(823,685,ls),
(824,690,o),
(819,690,qs),
(770,690,ls),
(750,690,o),
(737,671,qs),
(400,130,ls),
(390,115,o),
(370,115,o),
(366,130,qs),
(219,671,ls),
(214,690,o),
(194,690,qs),
(146,690,ls),
(141,690,o),
(140,685,qs)
);
}
);
width = 842;
}
);
note = M;
unicode = 77;
},
{
glyphname = N;
lastChange = "2022-10-20 16:10:08 +0000";
layers = (
{
layerId = m01;
shapes = (
{
closed = 1;
nodes = (
(624,699,ls),
(599,699,o),
(594,674,qs),
(497,123,ls),
(497,120,o),
(491,118,o),
(491,121,q),
(220,683,ls),
(213,699,o),
(193,699,qs),
(147,699,ls),
(142,699,o),
(141,694,qs),
(19,5,ls),
(18,0,o),
(23,0,qs),
(63,0,ls),
(88,0,o),
(93,25,qs),
(190,577,ls),
(191,580,o),
(196,582,o),
(196,579,q),
(467,16,ls),
(474,0,o),
(494,0,qs),
(540,0,ls),
(545,0,o),
(546,5,qs),
(668,694,ls),
(669,699,o),
(664,699,qs)
);
}
);
width = 686;
}
);
note = N;
unicode = 78;
},
{
glyphname = O;
lastChange = "2022-10-20 16:10:08 +0000";
layers = (
{
layerId = m01;
shapes = (
{
closed = 1;
nodes = (
(746,450,o),
(686,608,o),
(548,695,o),
(454,695,qs),
(360,695,o),
(192,608,o),
(76,450,o),
(58,349,qs),
(40,248,o),
(100,90,o),
(238,3,o),
(332,3,qs),
(426,3,o),
(594,90,o),
(710,248,o),
(728,349,qs)
);
},
{
closed = 1;
nodes = (
(136,435,o),
(229,566,o),
(366,636,o),
(444,636,qs),
(522,636,o),
(633,566,o),
(680,435,o),
(665,349,qs),
(650,263,o),
(557,133,o),
(420,62,o),
(342,62,qs),
(264,62,o),
(153,133,o),
(106,263,o),
(121,349,qs)
);
}
);
width = 788;
}
);
note = O;
unicode = 79;
},
{
glyphname = P;
lastChange = "2022-10-20 16:10:08 +0000";
layers = (
{
layerId = m01;
shapes = (
{
closed = 1;
nodes = (
(151,358,l),
(197,615,ls),
(201,640,o),
(226,640,qs),
(342,640,ls),
(428,640,o),
(494,568,o),
(481,498,qs),
(456,358,o),
(292,358,qs)
);
},
{
closed = 1;
nodes = (
(569,589,o),
(470,699,o),
(353,699,qs),
(167,699,ls),
(142,699,o),
(137,674,qs),
(19,5,ls),
(18,0,o),
(23,0,qs),
(63,0,ls),
(88,0,o),
(93,25,qs),
(141,298,l),
(282,298,ls),
(400,298,o),
(537,408,o),
(553,498,qs)
);
}
);
width = 564;
}
);
note = P;
unicode = 80;
},
{
glyphname = Q;
lastChange = "2022-10-20 16:10:08 +0000";
layers = (
{
layerId = m01;
shapes = (
{
closed = 1;
nodes = (
(147,439,o),
(243,573,o),
(379,645,o),
(457,645,qs),
(535,645,o),
(647,573,o),
(695,439,o),
(679,350,qs),
(664,261,o),
(568,126,o),
(431,54,o),
(353,54,qs),
(275,54,o),
(164,126,o),
(116,261,o),
(131,350,qs)
);
},
{
closed = 1;
nodes = (
(770,453,o),
(708,616,o),
(566,707,o),
(468,707,qs),
(371,707,o),
(197,616,o),
(78,453,o),
(59,350,qs),
(41,247,o),
(104,84,o),
(246,-7,o),
(343,-7,qs),
(395,-7,o),
(448,7,qs),
(452,8,o),
(455,5,qs),
(580,-135,l),
(584,-136,o),
(587,-137,q),
(668,-137,ls),
(671,-137,o),
(672,-133,o),
(671,-131,qs),
(523,31,ls),
(520,35,o),
(525,38,qs),
(613,83,o),
(733,246,o),
(751,350,qs)
);
}
);
width = 789;
}
);
note = Q;
unicode = 81;
},
{
glyphname = R;
lastChange = "2022-10-20 16:10:08 +0000";
layers = (
{
layerId = m01;
shapes = (
{
closed = 1;
nodes = (
(470,429,o),
(373,349,o),
(291,349,qs),
(150,349,l),
(197,615,ls),
(201,640,o),
(226,640,qs),
(341,640,ls),
(427,640,o),
(494,565,o),
(482,496,qs)
);
},
{
closed = 1;
nodes = (
(167,699,ls),
(142,699,o),
(137,674,qs),
(19,5,ls),
(18,0,o),
(23,0,qs),
(83,0,ls),
(88,0,o),
(89,5,qs),
(140,292,l),
(269,292,l),
(383,17,ls),
(391,0,o),
(410,0,qs),
(467,0,ls),
(473,0,o),
(471,6,qs),
(347,297,l),
(435,313,o),
(540,420,o),
(554,496,qs),
(570,587,o),
(469,699,o),
(352,699,qs)
);
}
);
width = 587;
}
);
note = R;
unicode = 82;
},
{
glyphname = S;
lastChange = "2022-10-20 16:10:08 +0000";
layers = (
{
layerId = m01;
shapes = (
{
closed = 1;
nodes = (
(499,248,o),
(454,324,o),
(377,361,o),
(312,380,qs),
(256,396,o),
(192,424,o),
(156,478,o),
(163,522,qs),
(174,581,o),
(272,648,o),
(335,647,qs),
(393,646,o),
(459,595,o),
(466,558,qs),
(469,547,o),
(479,537,o),
(490,537,qs),
(539,537,ls),
(545,537,o),
(544,542,q),
(546,615,o),
(444,707,o),
(349,707,qs),
(283,707,o),
(172,659,o),
(101,574,o),
(92,520,qs),
(81,455,o),
(125,379,o),
(201,343,o),
(267,324,qs),
(325,308,o),
(388,281,o),
(424,226,o),
(416,181,qs),
(406,125,o),
(310,52,o),
(239,52,qs),
(171,52,o),
(104,113,o),
(100,158,qs),
(98,180,o),
(77,180,qs),
(31,180,ls),
(26,180,o),
(25,175,qs),
(19,123,o),
(65,40,o),
(161,-7,o),
(229,-7,qs),
(300,-7,o),
(412,47,o),
(479,135,o),
(488,184,qs)
);
}
);
width = 572;
}
);
note = S;
unicode = 83;
},
{
glyphname = T;
lastChange = "2022-10-20 16:10:08 +0000";
layers = (
{
layerId = m01;
shapes = (
{
closed = 1;
nodes = (
(82,646,ls),
(81,641,o),
(86,641,qs),
(251,641,ls),
(276,641,o),
(272,616,qs),
(164,5,ls),
(163,0,o),
(168,0,qs),
(228,0,ls),
(233,0,o),
(234,5,qs),
(342,616,ls),
(346,641,o),
(371,641,qs),
(535,641,ls),
(540,641,o),
(541,646,qs),
(550,694,ls),
(551,699,o),
(546,699,qs),
(97,699,ls),
(92,699,o),
(91,694,qs)
);
}
);
width = 520;
}
);
note = T;
unicode = 84;
},
{
glyphname = U;
lastChange = "2022-10-20 16:10:08 +0000";
layers = (
{
layerId = m01;
shapes = (
{
closed = 1;
nodes = (
(62,260,ls),
(38,127,o),
(156,-7,o),
(269,-7,qs),
(382,-7,o),
(546,127,o),
(570,260,qs),
(646,694,ls),
(647,699,o),
(642,699,qs),
(602,699,ls),
(577,699,o),
(573,674,qs),
(500,259,ls),
(481,154,o),
(367,55,o),
(281,55,qs),
(195,55,o),
(113,155,o),
(132,259,qs),
(205,674,ls),
(209,699,o),
(184,699,qs),
(144,699,ls),
(139,699,o),
(138,694,qs)
);
}
);
width = 661;
}
);
note = U;
unicode = 85;
},
{
glyphname = V;
lastChange = "2022-10-20 16:10:08 +0000";
layers = (
{
layerId = m01;
shapes = (
{
closed = 1;
nodes = (
(305,120,ls),
(296,104,o),
(276,104,o),
(273,120,qs),
(165,679,ls),
(161,699,o),
(141,699,qs),
(92,699,ls),
(87,699,o),
(87,693,q),
(223,20,ls),
(227,0,o),
(248,0,qs),
(286,0,ls),
(307,0,o),
(319,20,qs),
(693,693,ls),
(696,699,o),
(690,699,qs),
(643,699,ls),
(623,699,o),
(611,679,qs)
);
}
);
width = 659;
}
);
note = V;
unicode = 86;
},
{
glyphname = W;
lastChange = "2022-10-20 16:10:08 +0000";
layers = (
{
layerId = m01;
shapes = (
{
closed = 1;
nodes = (
(156,20,ls),
(158,-1,o),
(180,-1,qs),
(212,0,ls),
(234,0,o),
(244,21,qs),
(494,543,ls),
(502,561,o),
(524,561,o),
(526,543,qs),
(588,21,ls),
(590,0,o),
(612,0,qs),
(646,0,ls),
(668,0,o),
(678,21,qs),
(987,693,ls),
(990,699,o),
(984,699,qs),
(937,699,ls),
(915,699,o),
(905,678,qs),
(671,143,ls),
(664,125,o),
(642,125,o),
(640,143,qs),
(580,668,ls),
(578,689,o),
(556,689,qs),
(522,689,ls),
(500,689,o),
(490,668,qs),
(242,142,ls),
(234,125,o),
(211,125,o),
(210,143,qs),
(165,678,ls),
(163,699,o),
(141,699,qs),
(94,699,ls),
(89,699,o),
(89,693,q)
);
}
);
width = 955;
}
);
note = W;
unicode = 87;
},
{
glyphname = X;
lastChange = "2022-10-20 16:10:08 +0000";
layers = (
{
layerId = m01;
shapes = (
{
closed = 1;
nodes = (
(403,3,ls),
(404,0,o),
(408,0,qs),
(475,0,ls),
(481,0,o),
(479,6,qs),
(339,332,ls),
(333,348,o),
(346,366,qs),
(602,693,ls),
(606,699,o),
(600,699,qs),
(533,699,ls),
(529,699,o),
(526,696,qs),
(328,437,ls),
(319,424,o),
(299,425,o),
(293,437,qs),
(182,696,l),
(182,699,o),
(177,699,qs),
(110,699,ls),
(104,699,o),
(106,693,qs),
(245,369,ls),
(252,352,o),
(239,335,qs),
(-16,6,ls),
(-20,0,o),
(-14,0,qs),
(53,0,ls),
(58,0,o),
(60,3,q),
(256,263,ls),
(265,276,o),
(285,275,o),
(291,263,qs)
);
}
);
width = 585;
}
);
note = X;
unicode = 88;
},
{
glyphname = Y;
lastChange = "2022-10-20 16:10:08 +0000";
layers = (
{
layerId = m01;
shapes = (
{
closed = 1;
nodes = (
(234,272,l),
(187,5,ls),
(186,0,o),
(191,0,qs),
(251,0,ls),
(256,0,o),
(257,5,qs),
(304,272,l),
(600,693,ls),
(604,699,o),
(597,699,qs),
(530,699,ls),
(526,699,o),
(523,695,qs),
(304,370,ls),
(294,356,o),
(274,356,o),
(270,370,qs),
(164,695,ls),
(163,699,o),
(159,699,qs),
(91,699,ls),
(84,699,o),
(86,693,qs)
);
}
);
width = 564;
}
);
note = Y;
unicode = 89;
},
{
glyphname = Z;
lastChange = "2022-10-20 16:10:08 +0000";
layers = (
{
layerId = m01;
shapes = (
{
closed = 1;
nodes = (
(529,643,l),
(538,694,ls),
(539,699,o),
(534,699,qs),
(116,699,ls),
(111,699,o),
(110,694,qs),
(104,662,ls),
(100,637,o),
(125,637,qs),
(439,637,ls),
(445,637,o),
(441,631,qs),
(-9,56,l),
(-18,5,ls),
(-19,0,o),
(-14,0,qs),
(415,0,ls),
(420,0,o),
(421,5,qs),
(427,37,ls),
(431,62,o),
(406,62,qs),
(81,62,ls),
(75,62,o),
(79,68,qs)
);
}
);
width = 525;
}
);
note = Z;
unicode = 90;
},
{
glyphname = bracketleft;
lastChange = "2022-10-20 16:10:08 +0000";
layers = (
{
layerId = m01;
shapes = (
{
closed = 1;
nodes = (
(20,-186,l),
(174,-186,l),
(185,-127,l),
(97,-127,l),
(274,876,l),
(362,876,l),
(372,934,l),
(218,934,l)
);
}
);
width = 367;
}
);
note = bracketleft;
unicode = 91;
},
{
glyphname = backslash;
lastChange = "2022-10-20 16:10:08 +0000";
layers = (
{
layerId = m01;
shapes = (
{
closed = 1;
nodes = (
(270,940,l),
(199,940,l),
(329,-166,l),
(398,-166,l)
);
}
);
width = 603;
}
);
note = backslash;
unicode = 92;
},
{
glyphname = bracketright;
lastChange = "2022-10-20 16:10:08 +0000";
layers = (
{
layerId = m01;
shapes = (
{
closed = 1;
nodes = (
(149,-186,l),
(-5,-186,l),
(6,-127,l),
(94,-127,l),
(271,876,l),
(183,876,l),
(193,934,l),
(347,934,l)
);
}
);
width = 367;
}
);
note = bracketright;
unicode = 93;
},
{
glyphname = asciicircum;
lastChange = "2022-10-20 16:10:08 +0000";
layers = (
{
layerId = m01;
shapes = (
{
closed = 1;
nodes = (
(450,171,l),
(523,171,l),
(381,690,l),
(318,690,l),
(-8,171,l),
(64,171,l),
(334,602,l)
);
}
);
width = 606;
}
);
note = asciicircum;
unicode = 94;
},
{
glyphname = underscore;
lastChange = "2022-10-20 16:10:08 +0000";
layers = (
{
layerId = m01;
shapes = (
{
closed = 1;
nodes = (
(80,-100,l),
(589,-100,l),
(601,-35,l),
(92,-35,l)
);
}
);
width = 674;
}
);
note = underscore;
unicode = 95;
},
{
glyphname = grave;
lastChange = "2022-10-20 16:10:08 +0000";
layers = (
{
layerId = m01;
shapes = (
{
closed = 1;
nodes = (
(29,707,l),
(213,588,l),
(222,642,l),
(40,770,l)
);
}
);
width = 260;
}
);
note = grave;
unicode = 96;
},
{
glyphname = a;
lastChange = "2023-01-11 15:50:04 +0000";
layers = (
{
layerId = m01;
shapes = (
{
closed = 1;
nodes = (
(479,25,ls),
(476,11,o),
(483,0,o),
(494,0,qs),
(530,0,ls),
(535,0,o),
(536,5,qs),
(628,523,ls),
(631,537,o),
(623,548,o),
(612,548,qs),
(576,548,ls),
(571,548,o),
(570,543,qs),
(542,382,l),
(545,423,o),
(506,499,o),
(417,546,o),
(351,546,qs),
(282,546,o),
(158,478,o),
(72,353,o),
(57,271,qs),
(43,189,o),
(85,66,o),
(185,0,o),
(255,0,qs),
(329,0,o),
(441,60,o),
(499,137,q)
);
},
{
closed = 1;
nodes = (
(121,334,o),
(189,428,o),
(287,479,o),
(340,479,qs),
(393,479,o),
(472,429,o),
(509,334,o),
(498,272,qs),
(487,210,o),
(417,117,o),
(319,66,o),
(267,66,qs),
(213,66,o),
(134,115,o),
(98,208,o),
(109,271,qs)
);
}
);
width = 675;
}
);
note = a;
unicode = 97;
},
{
glyphname = b;
lastChange = "2022-10-20 16:10:08 +0000";
layers = (
{
layerId = m01;
shapes = (
{
closed = 1;
nodes = (
(214,735,ls),
(215,740,o),
(210,740,qs),
(171,740,ls),
(146,740,o),
(142,715,qs),
(16,5,ls),
(15,0,o),
(20,0,qs),
(59,0,ls),
(84,0,o),
(89,25,qs),
(106,120,l),
(122,63,o),
(222,-8,o),
(300,-8,qs),
(374,-8,o),
(505,62,o),
(595,190,o),
(610,274,qs),
(625,358,o),
(580,485,o),
(474,554,o),
(399,554,qs),
(322,554,o),
(196,482,o),
(159,425,q)
);
},
{
closed = 1;
nodes = (
(538,207,o),
(467,106,o),
(366,53,o),
(308,53,qs),
(252,53,o),
(168,107,o),
(132,207,o),
(144,273,qs),
(155,339,o),
(227,439,o),
(329,493,o),
(385,493,qs),
(443,493,o),
(526,441,o),
(562,342,o),
(550,274,qs)
);
}
);
width = 675;
}
);
note = b;
unicode = 98;
},
{
glyphname = c;
lastChange = "2022-10-20 16:10:08 +0000";
layers = (
{
layerId = m01;
shapes = (
{
closed = 1;
nodes = (
(33,188,o),
(79,61,o),
(186,-8,o),
(263,-8,qs),
(362,-8,o),
(510,90,o),
(545,172,qs),
(547,175,o),
(543,178,o),
(541,178,qs),
(485,178,ls),
(472,178,o),
(466,165,qs),
(439,111,o),
(339,51,o),
(274,51,qs),
(219,51,o),
(140,101,o),
(106,201,o),
(119,273,qs),
(132,345,o),
(200,444,o),
(297,494,o),
(352,494,qs),
(417,494,o),
(497,434,o),
(505,381,qs),
(506,368,o),
(519,368,qs),
(575,368,ls),
(577,368,o),
(581,371,o),
(581,374,qs),
(574,457,o),
(462,554,o),
(363,554,qs),
(286,554,o),
(153,485,o),
(63,358,o),
(48,273,qs)
);
}
);
width = 613;
}
);
note = c;
unicode = 99;
},
{
glyphname = d;
lastChange = "2022-10-20 16:10:08 +0000";
layers = (
{
layerId = m01;
shapes = (
{
closed = 1;
nodes = (
(17,190,o),
(61,62,o),
(168,-8,o),
(243,-8,qs),
(320,-8,o),
(447,65,o),
(482,122,q),
(465,25,ls),
(460,0,o),
(485,0,qs),
(525,0,ls),
(530,0,o),
(531,5,qs),
(657,715,ls),
(661,740,o),
(636,740,qs),
(596,740,ls),
(591,740,o),
(590,735,qs),
(536,428,l),
(519,484,o),
(415,554,o),
(343,554,qs),
(268,554,o),
(137,485,o),
(47,358,o),
(32,274,qs)
);
},
{
closed = 1;
nodes = (
(486,207,o),
(414,107,o),
(312,53,o),
(256,53,qs),
(198,53,o),
(115,106,o),
(80,207,o),
(92,274,qs),
(104,342,o),
(174,441,o),
(275,493,o),
(333,493,qs),
(389,493,o),
(473,439,o),
(509,339,o),
(498,273,qs)
);
}
);
width = 675;
}
);
note = d;
unicode = 100;
},
{
glyphname = e;
lastChange = "2022-10-20 16:10:08 +0000";
layers = (
{
layerId = m01;
shapes = (
{
closed = 1;
nodes = (
(403,494,o),
(483,452,o),
(520,368,o),
(509,309,qs),
(508,303,o),
(503,303,qs),
(129,303,ls),
(124,303,o),
(125,308,qs),
(148,397,o),
(275,494,o),
(352,494,qs)
);
},
{
closed = 1;
nodes = (
(496,173,ls),
(476,173,o),
(464,153,qs),
(437,106,o),
(339,51,o),
(277,51,qs),
(225,51,o),
(145,96,o),
(106,184,o),
(114,246,q),
(562,246,ls),
(567,246,o),
(568,251,qs),
(573,267,o),
(579,301,qs),
(591,371,o),
(549,486,o),
(444,554,o),
(366,554,qs),
(288,554,o),
(154,486,o),
(63,358,o),
(48,273,qs),
(33,188,o),
(80,61,o),
(189,-8,o),
(266,-8,qs),
(364,-8,o),
(512,89,o),
(546,167,qs),
(548,170,o),
(544,173,o),
(542,173,qs)
);
}
);
width = 622;
}
);
note = e;
unicode = 101;
},
{
glyphname = f;
lastChange = "2022-10-20 16:10:08 +0000";
layers = (
{
layerId = m01;
shapes = (
{
closed = 1;
nodes = (
(32,5,ls),
(31,0,o),
(36,0,qs),
(96,0,ls),
(101,0,o),
(102,5,qs),
(186,482,ls),
(187,487,o),
(192,487,qs),
(309,487,ls),
(314,487,o),
(315,492,qs),
(324,541,ls),
(325,546,o),
(320,546,qs),
(203,546,ls),
(198,546,o),
(198,551,qs),
(204,584,ls),
(214,639,o),
(267,692,o),
(322,696,qs),
(347,698,o),
(352,722,qs),
(357,752,ls),
(358,757,o),
(353,757,qs),
(254,756,o),
(150,672,o),
(134,584,qs),
(128,551,ls),
(128,546,o),
(123,546,qs),
(57,546,ls),
(52,546,o),
(51,541,qs),
(42,492,ls),
(41,487,o),
(46,487,qs),
(92,487,ls),
(117,487,o),
(113,462,qs)
);
}
);
width = 325;
}
);
note = f;
unicode = 102;
},
{
glyphname = g;
lastChange = "2022-10-20 16:10:08 +0000";
layers = (
{
layerId = m01;
shapes = (
{
closed = 1;
nodes = (
(56,190,o),
(101,62,o),
(207,-8,o),
(282,-8,qs),
(359,-8,o),
(485,65,o),
(521,121,q),
(497,-14,ls),
(487,-74,o),
(423,-162,o),
(331,-207,o),
(278,-207,qs),
(206,-207,o),
(118,-141,o),
(109,-86,qs),
(108,-82,o),
(104,-82,qs),
(45,-82,ls),
(43,-82,o),
(39,-85,o),
(39,-87,q),
(43,-171,o),
(164,-268,o),
(268,-268,qs),
(342,-268,o),
(469,-205,o),
(554,-89,o),
(567,-14,qs),
(665,541,ls),
(666,546,o),
(661,546,qs),
(621,546,ls),
(596,546,o),
(592,521,qs),
(575,427,l),
(560,482,o),
(458,554,o),
(381,554,qs),
(306,554,o),
(175,485,o),
(86,358,o),
(71,274,qs)
);
},
{
closed = 1;
nodes = (
(529,207,o),
(458,107,o),
(355,53,o),
(299,53,qs),
(241,53,o),
(158,106,o),
(123,207,o),
(135,274,qs),
(147,342,o),
(218,441,o),
(319,493,o),
(377,493,qs),
(433,493,o),
(516,439,o),
(553,339,o),
(541,273,qs)
);
}
);
width = 675;
}
);
note = g;
unicode = 103;
},
{
glyphname = h;
lastChange = "2022-10-20 16:10:08 +0000";
layers = (
{
layerId = m01;
shapes = (
{
closed = 1;
nodes = (
(16,5,ls),
(15,0,o),
(20,0,qs),
(80,0,ls),
(85,0,o),
(86,5,qs),
(137,298,ls),
(154,395,o),
(266,495,o),
(345,495,qs),
(422,495,o),
(494,401,o),
(479,312,qs),
(428,25,ls),
(424,0,o),
(449,0,qs),
(488,0,ls),
(493,0,o),
(494,5,qs),
(549,320,ls),
(563,397,o),
(525,504,o),
(435,556,o),
(373,556,qs),
(310,556,o),
(199,502,o),
(165,453,q),
(211,715,ls),
(215,740,o),
(190,740,qs),
(150,740,ls),
(145,740,o),
(144,735,qs)
);
}
);
width = 633;
}
);
note = h;
unicode = 104;
},
{
glyphname = i;
lastChange = "2022-10-20 16:10:08 +0000";
layers = (
{
layerId = m01;
shapes = (
{
closed = 1;
nodes = (
(18,25,ls),
(14,0,o),
(39,0,qs),
(79,0,ls),
(84,0,o),
(85,5,qs),
(176,521,ls),
(180,546,o),
(155,546,qs),
(115,546,ls),
(110,546,o),
(109,541,qs)
);
},
{
closed = 1;
nodes = (
(184,649,o),
(219,679,o),
(223,701,qs),
(227,723,o),
(202,752,o),
(181,752,qs),
(160,752,o),
(125,723,o),
(121,701,qs),
(117,679,o),
(142,649,o),
(163,649,qs)
);
}
);
width = 229;
}
);
note = i;
unicode = 105;
},
{
glyphname = j;
lastChange = "2022-10-20 16:10:08 +0000";
layers = (
{
layerId = m01;
shapes = (
{
closed = 1;
nodes = (
(212,649,o),
(246,679,o),
(250,701,qs),
(254,723,o),
(230,752,o),
(209,752,qs),
(188,752,o),
(153,723,o),
(149,701,qs),
(145,679,o),
(170,649,o),
(191,649,qs)
);
},
{
closed = 1;
nodes = (
(142,546,ls),
(137,546,o),
(136,541,qs),
(18,-126,ls),
(11,-165,o),
(-28,-198,o),
(-67,-198,qs),
(-80,-198,ls),
(-105,-198,o),
(-110,-223,qs),
(-115,-253,ls),
(-116,-258,o),
(-111,-258,qs),
(-67,-258,ls),
(-1,-258,o),
(76,-195,o),
(88,-129,qs),
(202,521,ls),
(207,546,o),
(182,546,qs)
);
}
);
width = 234;
}
);
note = j;
unicode = 106;
},
{
glyphname = k;
lastChange = "2022-10-20 16:10:08 +0000";
layers = (
{
layerId = m01;
shapes = (
{
closed = 1;
nodes = (
(19,25,ls),
(15,0,o),
(40,0,qs),
(80,0,ls),
(85,0,o),
(86,5,qs),
(120,199,ls),
(123,216,o),
(144,224,o),
(153,211,qs),
(308,3,l),
(310,0,o),
(314,0,qs),
(397,0,ls),
(404,0,o),
(400,6,qs),
(206,256,ls),
(199,264,o),
(203,284,o),
(212,292,qs),
(492,540,ls),
(498,546,o),
(491,546,qs),
(405,546,ls),
(401,546,o),
(399,543,q),
(175,336,ls),
(162,323,o),
(143,331,o),
(146,348,qs),
(211,715,ls),
(215,740,o),
(190,740,qs),
(150,740,ls),
(145,740,o),
(144,735,qs)
);
}
);
width = 480;
}
);
note = k;
unicode = 107;
},
{
glyphname = l;
lastChange = "2022-10-20 16:10:08 +0000";
layers = (
{
layerId = m01;
shapes = (
{
closed = 1;
nodes = (
(19,25,ls),
(15,0,o),
(40,0,qs),
(80,0,ls),
(85,0,o),
(86,5,qs),
(214,735,ls),
(215,740,o),
(210,740,qs),
(150,740,ls),
(145,740,o),
(144,735,qs)
);
}
);
width = 229;
}
);
note = l;
unicode = 108;
},
{
glyphname = m;
lastChange = "2022-10-20 16:10:08 +0000";
layers = (
{
layerId = m01;
shapes = (
{
closed = 1;
nodes = (
(833,25,ls),
(829,0,o),
(854,0,qs),
(893,0,ls),
(898,0,o),
(899,5,qs),
(954,320,ls),
(975,435,o),
(875,556,o),
(779,556,qs),
(710,556,o),
(582,486,o),
(548,422,q),
(536,489,o),
(449,556,o),
(380,556,qs),
(321,556,o),
(216,503,o),
(181,452,q),
(193,521,ls),
(197,546,o),
(172,546,qs),
(132,546,ls),
(127,546,o),
(126,541,qs),
(32,5,ls),
(31,0,o),
(36,0,qs),
(96,0,ls),
(101,0,o),
(102,5,qs),
(153,296,ls),
(170,393,o),
(280,495,o),
(357,495,qs),
(432,495,o),
(502,401,o),
(486,312,qs),
(435,25,ls),
(431,0,o),
(456,0,qs),
(495,0,ls),
(500,0,o),
(501,5,qs),
(552,296,ls),
(569,393,o),
(679,495,o),
(756,495,qs),
(830,495,o),
(900,401,o),
(884,312,qs)
);
}
);
width = 1022;
}
);
note = m;
unicode = 109;
},
{
glyphname = n;
lastChange = "2022-10-20 16:10:08 +0000";
layers = (
{
layerId = m01;
shapes = (
{
closed = 1;
nodes = (
(444,25,ls),
(440,0,o),
(465,0,qs),
(504,0,ls),
(509,0,o),
(510,5,qs),
(565,320,ls),
(586,435,o),
(483,556,o),
(385,556,qs),
(323,556,o),
(216,503,o),
(181,453,q),
(193,521,ls),
(197,546,o),
(172,546,qs),
(132,546,ls),
(127,546,o),
(126,541,qs),
(32,5,ls),
(31,0,o),
(36,0,qs),
(96,0,ls),
(101,0,o),
(102,5,qs),
(154,298,ls),
(171,395,o),
(282,495,o),
(361,495,qs),
(438,495,o),
(511,401,o),
(495,312,qs)
);
}
);
width = 633;
}
);
note = n;
unicode = 110;
},
{
glyphname = o;
lastChange = "2022-10-20 16:10:08 +0000";
layers = (
{
layerId = m01;
shapes = (
{
closed = 1;
nodes = (
(597,358,o),
(550,481,o),
(443,547,o),
(368,547,qs),
(294,547,o),
(162,481,o),
(73,358,o),
(58,275,qs),
(43,191,o),
(89,67,o),
(194,1,o),
(268,1,qs),
(343,1,o),
(476,67,o),
(568,192,o),
(582,275,qs)
);
},
{
closed = 1;
nodes = (
(133,344,o),
(204,440,o),
(303,488,o),
(357,488,qs),
(410,488,o),
(492,440,o),
(531,344,o),
(519,275,qs),
(507,206,o),
(433,109,o),
(332,61,o),
(278,61,qs),
(225,61,o),
(145,109,o),
(109,206,o),
(121,275,qs)
);
}
);
width = 642;
}
);
note = o;
unicode = 111;
},
{
glyphname = p;
lastChange = "2022-10-20 16:10:08 +0000";
layers = (
{
layerId = m01;
shapes = (
{
closed = 1;
nodes = (
(215,521,ls),
(219,546,o),
(194,546,qs),
(155,546,ls),
(150,546,o),
(149,541,qs),
(13,-233,ls),
(8,-258,o),
(33,-258,qs),
(72,-258,ls),
(77,-258,o),
(78,-253,qs),
(144,120,l),
(160,65,o),
(261,-8,o),
(338,-8,qs),
(412,-8,o),
(544,62,o),
(633,190,o),
(648,274,qs),
(663,358,o),
(618,485,o),
(512,554,o),
(438,554,qs),
(360,554,o),
(234,481,o),
(198,426,q)
);
},
{
closed = 1;
nodes = (
(579,207,o),
(509,106,o),
(407,53,o),
(349,53,qs),
(293,53,o),
(210,107,o),
(173,207,o),
(185,273,qs),
(197,339,o),
(268,439,o),
(371,493,o),
(427,493,qs),
(485,493,o),
(568,441,o),
(603,342,o),
(591,274,qs)
);
}
);
width = 675;
}
);
note = p;
unicode = 112;
},
{
glyphname = q;
lastChange = "2022-10-20 16:10:08 +0000";
layers = (
{
layerId = m01;
shapes = (
{
closed = 1;
nodes = (
(55,190,o),
(100,62,o),
(206,-8,o),
(280,-8,qs),
(358,-8,o),
(486,65,o),
(520,120,q),
(454,-253,ls),
(453,-258,o),
(458,-258,qs),
(498,-258,ls),
(523,-258,o),
(528,-233,qs),
(664,541,ls),
(665,546,o),
(660,546,qs),
(620,546,ls),
(595,546,o),
(591,521,qs),
(574,426,l),
(560,481,o),
(459,554,o),
(382,554,qs),
(307,554,o),
(175,485,o),
(85,358,o),
(70,274,qs)
);
},
{
closed = 1;
nodes = (
(527,207,o),
(456,107,o),
(353,53,o),
(297,53,qs),
(239,53,o),
(157,106,o),
(121,207,o),
(133,274,qs),
(145,342,o),
(216,441,o),
(317,493,o),
(375,493,qs),
(431,493,o),
(514,439,o),
(551,339,o),
(539,273,qs)
);
}
);
width = 675;
}
);
note = q;
unicode = 113;
},
{
glyphname = r;
lastChange = "2022-10-20 16:10:08 +0000";
layers = (
{
layerId = m01;
shapes = (
{
closed = 1;
nodes = (
(155,305,ls),
(172,401,o),
(278,483,o),
(354,483,qs),
(373,483,o),
(378,508,qs),
(385,551,ls),
(386,556,o),
(381,556,qs),
(314,555,o),
(211,499,o),
(180,449,q),
(193,521,ls),
(197,546,o),
(172,546,qs),
(132,546,ls),
(127,546,o),
(126,541,qs),
(32,5,ls),
(31,0,o),
(36,0,qs),
(96,0,ls),
(101,0,o),
(102,5,qs)
);
}
);
width = 362;
}
);
note = r;
unicode = 114;
},
{
glyphname = s;
lastChange = "2022-10-20 16:10:08 +0000";
layers = (
{
layerId = m01;
shapes = (
{
closed = 1;
nodes = (
(443,193,o),
(403,251,o),
(338,281,o),
(282,297,qs),
(236,311,o),
(182,334,o),
(150,375,o),
(156,407,qs),
(162,444,o),
(237,494,o),
(290,494,qs),
(342,494,o),
(401,448,o),
(403,410,qs),
(405,387,o),
(426,387,qs),
(468,387,ls),
(473,387,o),
(474,392,qs),
(480,468,o),
(390,554,o),
(303,554,qs),
(247,554,o),
(151,514,o),
(92,446,o),
(84,406,qs),
(75,353,o),
(117,290,o),
(187,258,o),
(246,242,qs),
(290,230,o),
(342,209,o),
(371,173,o),
(366,145,qs),
(359,105,o),
(285,51,o),
(228,51,qs),
(171,51,o),
(106,95,o),
(100,132,qs),
(96,154,o),
(76,154,qs),
(32,154,ls),
(26,154,o),
(27,149,q),
(22,77,o),
(126,-8,o),
(218,-8,qs),
(274,-8,o),
(368,32,o),
(428,101,o),
(435,145,qs)
);
}
);
width = 510;
}
);
note = s;
unicode = 115;
},
{
glyphname = t;
lastChange = "2022-10-20 16:10:08 +0000";
layers = (
{
layerId = m01;
shapes = (
{
closed = 1;
nodes = (
(66,148,ls),
(52,69,o),
(112,0,o),
(186,0,qs),
(256,0,ls),
(261,0,o),
(262,5,qs),
(267,35,ls),
(271,60,o),
(246,60,qs),
(207,60,ls),
(159,60,o),
(128,98,o),
(137,148,qs),
(196,482,ls),
(197,487,o),
(202,487,qs),
(342,487,ls),
(347,487,o),
(348,492,qs),
(356,541,ls),
(357,546,o),
(352,546,qs),
(212,546,ls),
(207,546,o),
(208,551,qs),
(230,678,ls),
(231,683,o),
(226,683,qs),
(165,683,ls),
(160,683,o),
(159,678,qs),
(140,571,ls),
(136,546,o),
(111,546,qs),
(60,546,l),
(51,492,ls),
(50,487,o),
(55,487,qs),
(121,487,ls),
(126,487,o),
(125,482,qs)
);
}
);
width = 356;
}
);
note = t;
unicode = 116;
},
{
glyphname = u;
lastChange = "2022-10-20 16:10:08 +0000";
layers = (
{
layerId = m01;
shapes = (
{
closed = 1;
nodes = (
(601,541,ls),
(602,546,o),
(597,546,qs),
(537,546,ls),
(532,546,o),
(531,541,qs),
(480,249,ls),
(462,152,o),
(351,52,o),
(272,52,qs),
(195,52,o),
(122,146,o),
(138,235,qs),
(189,521,ls),
(193,546,o),
(168,546,qs),
(129,546,ls),
(124,546,o),
(123,541,qs),
(68,227,ls),
(47,112,o),
(150,-9,o),
(248,-9,qs),
(310,-9,o),
(420,45,o),
(453,96,q),
(440,25,ls),
(436,0,o),
(461,0,qs),
(501,0,ls),
(506,0,o),
(507,5,qs)
);
}
);
width = 633;
}
);
note = u;
unicode = 117;
},
{
glyphname = v;
lastChange = "2022-10-20 16:10:08 +0000";
layers = (
{
layerId = m01;
shapes = (
{
closed = 1;
nodes = (
(69,546,ls),
(67,546,o),
(63,542,o),
(64,540,qs),
(181,19,ls),
(185,0,o),
(207,0,qs),
(244,0,ls),
(266,0,o),
(276,19,qs),
(577,540,ls),
(578,542,o),
(576,546,o),
(574,546,qs),
(527,546,ls),
(505,546,o),
(495,526,qs),
(262,111,ls),
(254,95,o),
(233,95,o),
(229,111,qs),
(143,526,ls),
(139,546,o),
(117,546,qs)
);
}
);
width = 547;
}
);
note = v;
unicode = 118;
},
{
glyphname = w;
lastChange = "2022-10-20 16:10:08 +0000";
layers = (
{
layerId = m01;
shapes = (
{
closed = 1;
nodes = (
(136,21,ls),
(138,0,o),
(160,0,qs),
(187,0,ls),
(209,0,o),
(219,20,qs),
(416,409,ls),
(425,426,o),
(445,426,o),
(448,409,qs),
(507,20,ls),
(511,0,o),
(533,0,qs),
(559,0,ls),
(581,0,o),
(591,21,qs),
(845,540,ls),
(848,546,o),
(842,546,qs),
(801,546,ls),
(779,546,o),
(769,525,qs),
(585,123,ls),
(577,106,o),
(555,106,o),
(553,123,qs),
(495,515,ls),
(492,536,o),
(469,536,qs),
(443,536,ls),
(422,536,o),
(411,515,qs),
(213,123,ls),
(204,106,o),
(183,106,o),
(181,124,qs),
(136,525,ls),
(134,546,o),
(112,546,qs),
(69,546,ls),
(64,546,o),
(64,540,q)
);
}
);
width = 815;
}
);
note = w;
unicode = 119;
},
{
glyphname = x;
lastChange = "2022-10-20 16:10:08 +0000";
layers = (
{
layerId = m01;
shapes = (
{
closed = 1;
nodes = (
(316,3,ls),
(318,0,o),
(322,0,qs),
(390,0,ls),
(396,0,o),
(394,6,q),
(278,259,ls),
(271,276,o),
(284,293,qs),
(486,540,l),
(490,546,o),
(484,546,qs),
(422,546,ls),
(418,546,o),
(416,543,qs),
(267,357,ls),
(258,344,o),
(238,344,o),
(232,356,qs),
(146,543,l),
(145,546,o),
(140,546,qs),
(72,546,ls),
(66,546,o),
(68,540,q),
(183,290,ls),
(190,273,o),
(177,256,qs),
(-28,6,l),
(-32,0,o),
(-26,0,qs),
(37,0,ls),
(42,0,o),
(43,3,q),
(194,192,ls),
(203,205,o),
(223,204,o),
(229,192,qs)
);
}
);
width = 460;
}
);
note = x;
unicode = 120;
},
{
glyphname = y;
lastChange = "2022-10-20 16:10:08 +0000";
layers = (
{
layerId = m01;
shapes = (
{
closed = 1;
nodes = (
(290,122,ls),
(281,106,o),
(260,106,o),
(257,122,qs),
(164,542,ls),
(163,546,o),
(159,546,qs),
(92,546,ls),
(90,546,o),
(86,542,o),
(87,540,qs),
(214,3,l),
(65,-251,ls),
(64,-253,o),
(66,-257,o),
(68,-257,qs),
(131,-257,ls),
(135,-257,o),
(138,-253,qs),
(598,540,ls),
(599,542,o),
(597,546,o),
(595,546,qs),
(533,546,ls),
(529,546,o),
(526,542,qs)
);
}
);
width = 545;
}
);
note = y;
unicode = 121;
},
{
glyphname = z;
lastChange = "2022-10-20 16:10:08 +0000";
layers = (
{
layerId = m01;
shapes = (
{
closed = 1;
nodes = (
(436,488,l),
(445,541,ls),
(446,546,o),
(441,546,qs),
(95,546,ls),
(90,546,o),
(89,541,qs),
(84,513,ls),
(80,488,o),
(105,488,qs),
(349,488,ls),
(355,488,o),
(351,482,q),
(-1,58,l),
(-10,5,ls),
(-11,0,o),
(-6,0,qs),
(350,0,ls),
(355,0,o),
(356,5,qs),
(361,33,ls),
(365,58,o),
(340,58,qs),
(86,58,ls),
(80,58,o),
(84,64,q)
);
}
);
width = 441;
}
);
note = z;
unicode = 122;
},
{
glyphname = braceleft;
lastChange = "2022-10-20 16:10:08 +0000";
layers = (
{
layerId = m01;
shapes = (
{
closed = 1;
nodes = (
(157,183,o),
(132,100,qs),
(122,64,o),
(101,-13,o),
(96,-42,qs),
(83,-114,o),
(148,-187,o),
(215,-187,qs),
(265,-187,l),
(276,-126,l),
(238,-126,ls),
(194,-126,o),
(156,-84,o),
(165,-37,qs),
(169,-11,o),
(189,63,o),
(200,98,qs),
(225,182,o),
(234,229,qs),
(243,284,o),
(202,359,o),
(147,372,q),
(147,374,l),
(206,387,o),
(275,462,o),
(284,517,qs),
(293,565,o),
(297,649,qs),
(299,684,o),
(305,756,o),
(309,783,qs),
(318,830,o),
(370,872,o),
(414,872,qs),
(452,872,l),
(463,933,l),
(413,933,ls),
(346,933,o),
(255,860,o),
(242,788,qs),
(237,759,o),
(231,683,o),
(228,647,qs),
(225,565,o),
(217,519,qs),
(200,426,o),
(91,402,q),
(81,345,l),
(182,320,o),
(165,227,qs)
);
}
);
width = 413;
}
);
note = braceleft;
unicode = 123;
},
{
glyphname = bar;
lastChange = "2022-10-20 16:10:08 +0000";
layers = (
{
layerId = m01;
shapes = (
{
closed = 1;
nodes = (
(174,790,l),
(18,-100,l),
(88,-100,l),
(244,790,l)
);
}
);
width = 261;
}
);
note = bar;
unicode = 124;
},
{
glyphname = braceright;
lastChange = "2022-10-20 16:10:08 +0000";
layers = (
{
layerId = m01;
shapes = (
{
closed = 1;
nodes = (
(188,183,o),
(185,100,qs),
(183,64,o),
(176,-13,o),
(171,-42,qs),
(158,-114,o),
(67,-187,o),
(0,-187,qs),
(-50,-187,l),
(-39,-126,l),
(-1,-126,ls),
(43,-126,o),
(95,-84,o),
(104,-37,qs),
(108,-11,o),
(114,63,o),
(117,98,qs),
(120,182,o),
(129,229,qs),
(138,284,o),
(207,359,o),
(266,372,q),
(266,374,l),
(211,387,o),
(170,462,o),
(179,517,qs),
(188,565,o),
(214,649,qs),
(224,684,o),
(244,756,o),
(248,783,qs),
(257,830,o),
(219,872,o),
(175,872,qs),
(137,872,l),
(148,933,l),
(198,933,ls),
(265,933,o),
(330,860,o),
(317,788,qs),
(312,759,o),
(292,683,o),
(281,647,qs),
(256,565,o),
(248,519,qs),
(231,426,o),
(332,402,q),
(322,345,l),
(213,320,o),
(196,227,qs)
);
}
);
width = 413;
}
);
note = braceright;
unicode = 125;
},
{
glyphname = asciitilde;
lastChange = "2022-10-20 16:10:08 +0000";
layers = (
{
layerId = m01;
shapes = (
{
closed = 1;
nodes = (
(80,257,l),
(90,286,o),
(132,323,o),
(158,323,qs),
(177,323,o),
(206,308,o),
(227,292,qs),
(253,274,o),
(289,256,o),
(314,256,qs),
(417,256,o),
(460,385,q),
(407,385,l),
(398,355,o),
(357,319,o),
(330,319,qs),
(313,319,o),
(286,333,o),
(263,349,qs),
(239,367,o),
(200,386,o),
(173,386,qs),
(123,386,o),
(49,321,o),
(27,257,q)
);
}
);
width = 487;
}
);
note = asciitilde;
unicode = 126;
},
{
glyphname = exclamdown;
lastChange = "2022-10-20 16:10:08 +0000";
layers = (
{
layerId = m01;
shapes = (
{
closed = 1;
nodes = (
(135,371,l),
(194,371,l),
(112,-143,l),
(36,-143,l)
);
},
{
closed = 1;
nodes = (
(238,487,o),
(204,458,o),
(183,458,qs),
(161,458,o),
(137,487,o),
(141,509,qs),
(145,531,o),
(179,561,o),
(201,561,qs),
(222,561,o),
(246,531,o),
(242,509,qs)
);
}
);
width = 277;
}
);
note = exclamdown;
unicode = 161;
},
{
glyphname = cent;
lastChange = "2022-10-20 16:10:08 +0000";
layers = (
{
layerId = m01;
shapes = (
{
closed = 1;
nodes = (
(470,192,l),
(447,134,o),
(348,68,o),
(281,68,qs),
(200,68,o),
(114,170,o),
(130,264,qs),
(147,358,o),
(269,461,o),
(350,461,qs),
(417,461,o),
(493,395,o),
(495,337,q),
(561,337,l),
(564,414,o),
(467,514,o),
(378,518,q),
(395,614,l),
(351,614,l),
(334,518,l),
(228,510,o),
(82,371,o),
(63,264,qs),
(44,157,o),
(141,19,o),
(245,11,q),
(227,-90,l),
(271,-90,l),
(289,10,l),
(379,15,o),
(511,115,o),
(536,192,q)
);
}
);
width = 642;
}
);
note = cent;
unicode = 162;
},
{
glyphname = sterling;
lastChange = "2022-10-20 16:10:08 +0000";
layers = (
{
layerId = m01;
shapes = (
{
closed = 1;
nodes = (
(131,473,o),
(135,411,o),
(142,366,qs),
(143,364,l),
(47,364,l),
(38,314,l),
(152,314,l),
(158,269,o),
(152,233,qs),
(141,173,o),
(86,90,o),
(34,41,q),
(39,-1,l),
(470,-1,l),
(480,58,l),
(112,58,l),
(157,98,o),
(209,184,o),
(218,235,qs),
(224,266,o),
(219,314,q),
(396,314,l),
(405,364,l),
(211,364,l),
(210,366,ls),
(203,414,o),
(198,475,o),
(204,510,qs),
(217,584,o),
(311,657,o),
(372,657,qs),
(440,657,o),
(503,578,o),
(496,514,q),
(560,514,l),
(569,602,o),
(481,716,o),
(382,716,qs),
(321,716,o),
(217,665,o),
(149,573,o),
(138,513,qs)
);
}
);
width = 596;
}
);
note = sterling;
unicode = 163;
},
{
glyphname = currency;
lastChange = "2022-10-20 16:10:08 +0000";
layers = (
{
layerId = m01;
shapes = (
{
closed = 1;
nodes = (
(361,317,o),
(284,248,o),
(239,248,qs),
(192,248,o),
(143,317,o),
(154,377,qs),
(164,437,o),
(239,507,o),
(285,507,qs),
(331,507,o),
(382,436,o),
(372,377,qs)
);
},
{
closed = 1;
nodes = (
(390,176,l),
(429,209,l),
(380,269,l),
(421,315,o),
(432,377,qs),
(443,439,o),
(417,486,q),
(489,547,l),
(462,580,l),
(391,519,l),
(351,552,o),
(294,552,qs),
(235,552,o),
(185,519,q),
(135,580,l),
(96,547,l),
(146,486,l),
(105,442,o),
(94,377,qs),
(82,312,o),
(107,269,q),
(36,209,l),
(63,176,l),
(133,235,l),
(171,202,o),
(231,202,qs),
(290,202,o),
(341,236,q)
);
}
);
width = 526;
}
);
note = currency;
unicode = 164;
},
{
glyphname = yen;
lastChange = "2022-10-20 16:10:08 +0000";
layers = (
{
layerId = m01;
shapes = (
{
closed = 1;
nodes = (
(246,272,l),
(238,225,l),
(38,225,l),
(29,172,l),
(229,172,l),
(198,0,l),
(268,0,l),
(299,172,l),
(499,172,l),
(508,225,l),
(308,225,l),
(316,272,l),
(350,319,l),
(525,320,l),
(534,372,l),
(386,372,l),
(616,699,l),
(537,699,l),
(292,336,l),
(175,699,l),
(96,699,l),
(211,372,l),
(64,372,l),
(55,320,l),
(230,319,l)
);
}
);
width = 585;
}
);
note = yen;
unicode = 165;
},
{
glyphname = brokenbar;
lastChange = "2022-10-20 16:10:08 +0000";
layers = (
{
layerId = m01;
shapes = (
{
closed = 1;
nodes = (
(83,270,l),
(18,-100,l),
(88,-100,l),
(153,270,l)
);
},
{
closed = 1;
nodes = (
(179,420,l),
(244,790,l),
(174,790,l),
(109,420,l)
);
}
);
width = 261;
}
);
note = brokenbar;
unicode = 166;
},
{
glyphname = section;
lastChange = "2022-10-20 16:10:08 +0000";
layers = (
{
layerId = m01;
shapes = (
{
closed = 1;
nodes = (
(122,522,o),
(180,458,o),
(236,435,q),
(158,420,o),
(60,329,o),
(50,270,qs),
(37,197,o),
(128,114,o),
(228,83,qs),
(288,64,o),
(352,30,o),
(375,-10,o),
(370,-38,qs),
(362,-84,o),
(287,-131,o),
(229,-131,qs),
(161,-131,o),
(104,-66,o),
(107,-16,q),
(37,-16,l),
(28,-94,o),
(129,-182,o),
(220,-182,qs),
(280,-182,o),
(375,-142,o),
(433,-74,o),
(441,-32,qs),
(450,19,o),
(393,84,o),
(338,106,q),
(415,122,o),
(512,212,o),
(522,270,qs),
(535,344,o),
(445,426,o),
(345,457,qs),
(284,476,o),
(220,511,o),
(198,551,o),
(203,580,qs),
(211,625,o),
(286,672,o),
(345,672,qs),
(412,672,o),
(470,605,o),
(466,557,q),
(536,557,l),
(544,635,o),
(445,722,o),
(354,722,qs),
(294,722,o),
(198,683,o),
(139,615,o),
(132,574,qs)
);
},
{
closed = 1;
nodes = (
(442,218,o),
(343,146,o),
(267,146,qs),
(190,146,o),
(111,216,o),
(121,270,qs),
(127,304,o),
(175,360,o),
(255,394,o),
(306,394,qs),
(383,394,o),
(461,325,o),
(451,270,qs)
);
}
);
width = 572;
}
);
note = section;
unicode = 167;
},
{
glyphname = dieresis;
lastChange = "2022-10-20 16:10:08 +0000";
layers = (
{
layerId = m01;
shapes = (
{
closed = 1;
nodes = (
(92,623,o),
(124,650,o),
(127,669,qs),
(130,688,o),
(108,715,o),
(89,715,qs),
(70,715,o),
(38,688,o),
(35,669,qs),
(32,650,o),
(54,623,o),
(73,623,qs)
);
},
{
closed = 1;
nodes = (
(246,623,o),
(277,650,o),
(280,669,qs),
(283,688,o),
(262,715,o),
(243,715,qs),
(224,715,o),
(192,688,o),
(189,669,qs),
(186,650,o),
(208,623,o),
(227,623,qs)
);
}
);
width = 315;
}
);
note = dieresis;
unicode = 168;
},
{
glyphname = copyright;
lastChange = "2022-10-20 16:10:08 +0000";
layers = (
{
layerId = m01;
shapes = (
{
closed = 1;
nodes = (
(35,247,o),
(94,86,o),
(235,-4,o),
(336,-4,qs),
(437,-4,o),
(610,86,o),
(725,247,o),
(743,350,qs),
(761,453,o),
(702,613,o),
(561,703,o),
(460,703,qs),
(359,703,o),
(186,613,o),
(71,453,o),
(53,350,qs)
);
},
{
closed = 1;
nodes = (
(691,256,o),
(589,111,o),
(435,30,o),
(342,30,qs),
(249,30,o),
(123,111,o),
(73,256,o),
(89,350,qs),
(106,444,o),
(207,589,o),
(361,670,o),
(455,670,qs),
(549,670,o),
(673,589,o),
(724,444,o),
(707,350,qs)
);
},
{
closed = 1;
nodes = (
(552,433,l),
(545,481,o),
(479,532,o),
(430,532,qs),
(364,532,o),
(260,436,o),
(245,350,qs),
(230,264,o),
(300,169,o),
(366,169,qs),
(417,169,o),
(498,219,o),
(522,267,q),
(587,267,l),
(556,198,o),
(431,117,o),
(357,117,qs),
(297,117,o),
(209,173,o),
(170,279,o),
(182,351,qs),
(195,422,o),
(271,528,o),
(379,584,o),
(439,584,qs),
(514,584,o),
(610,505,o),
(617,433,q)
);
}
);
width = 796;
}
);
note = copyright;
unicode = 169;
},
{
glyphname = ordfeminine;
lastChange = "2022-10-20 16:10:08 +0000";
layers = (
{
layerId = m01;
shapes = (
{
closed = 1;
nodes = (
(220,347,o),
(298,390,o),
(319,426,q),
(306,353,l),
(363,353,l),
(425,703,l),
(368,703,l),
(355,629,l),
(345,665,o),
(283,709,o),
(232,709,qs),
(185,709,o),
(102,664,o),
(45,582,o),
(35,529,qs),
(26,477,o),
(54,394,o),
(122,347,o),
(170,347,qs)
);
},
{
closed = 1;
nodes = (
(291,664,o),
(348,590,o),
(337,528,qs),
(326,466,o),
(243,392,o),
(190,392,qs),
(139,392,o),
(83,466,o),
(94,529,qs),
(105,591,o),
(187,664,o),
(238,664,qs)
);
}
);
width = 445;
}
);
note = ordfeminine;
unicode = 170;
},
{
glyphname = guillemotleft;
lastChange = "2022-10-20 16:10:08 +0000";
layers = (
{
layerId = m01;
shapes = (
{
closed = 1;
nodes = (
(113,295,l),
(246,470,l),
(175,470,l),
(45,295,l),
(113,120,l),
(184,120,l)
);
},
{
closed = 1;
nodes = (
(283,295,l),
(416,470,l),
(345,470,l),
(215,295,l),
(283,120,l),
(354,120,l)
);
}
);
width = 435;
}
);
note = guillemotleft;
unicode = 171;
},
{
glyphname = logicalnot;
lastChange = "2022-10-20 16:10:08 +0000";
layers = (
{
layerId = m01;
shapes = (
{
closed = 1;
nodes = (
(53,373,l),
(546,373,l),
(520,230,l),
(589,230,l),
(625,430,l),
(63,430,l)
);
}
);
width = 651;
}
);
note = logicalnot;
unicode = 172;
},
{
glyphname = uni00AD;
lastChange = "2022-10-20 16:10:08 +0000";
layers = (
{
layerId = m01;
shapes = (
{
closed = 1;
nodes = (
(25,341,l),
(414,341,l),
(424,400,l),
(35,400,l)
);
}
);
width = 519;
}
);
note = uni00AD;
unicode = 173;
},
{
glyphname = registered;
lastChange = "2022-10-20 16:10:08 +0000";
layers = (
{
layerId = m01;
shapes = (
{
closed = 1;
nodes = (
(353,674,o),
(426,580,o),
(413,507,qs),
(400,434,o),
(294,340,o),
(222,340,qs),
(149,340,o),
(77,434,o),
(90,507,qs),
(103,580,o),
(208,674,o),
(281,674,qs)
);
},
{
closed = 1;
nodes = (
(274,307,o),
(372,359,o),
(439,450,o),
(449,507,qs),
(459,564,o),
(424,656,o),
(344,708,o),
(287,708,qs),
(230,708,o),
(131,656,o),
(64,564,o),
(54,507,qs),
(44,450,o),
(79,359,o),
(160,307,o),
(217,307,qs)
);
},
{
closed = 1;
nodes = (
(352,581,o),
(319,616,o),
(286,616,qs),
(193,616,l),
(155,401,l),
(198,401,l),
(213,486,l),
(236,486,l),
(276,401,l),
(327,402,l),
(283,488,l),
(308,493,o),
(342,526,o),
(347,551,qs)
);
},
{
closed = 1;
nodes = (
(276,577,ls),
(290,577,o),
(306,564,o),
(303,550,qs),
(301,536,o),
(281,522,o),
(267,522,qs),
(220,522,l),
(229,577,l)
);
}
);
width = 502;
}
);
note = registered;
unicode = 174;
},
{
glyphname = macron;
lastChange = "2022-10-20 16:10:08 +0000";
layers = (
{
layerId = m01;
shapes = (
{
closed = 1;
nodes = (
(19,646,l),
(358,646,l),
(368,700,l),
(29,700,l)
);
}
);
width = 387;
}
);
note = macron;
unicode = 175;
},
{
glyphname = degree;
lastChange = "2022-10-20 16:10:08 +0000";
layers = (
{
layerId = m01;
shapes = (
{
closed = 1;
nodes = (
(15,443,o),
(90,347,o),
(165,347,qs),
(214,347,o),
(299,391,o),
(356,470,o),
(365,522,qs),
(379,601,o),
(302,697,o),
(228,697,qs),
(154,697,o),
(43,601,o),
(29,522,qs)
);
},
{
closed = 1;
nodes = (
(296,460,o),
(221,391,o),
(173,391,qs),
(124,391,o),
(75,460,o),
(86,522,qs),
(97,584,o),
(171,654,o),
(219,654,qs),
(268,654,o),
(318,584,o),
(307,522,qs)
);
}
);
width = 394;
}
);
note = degree;
unicode = 176;
},
{
glyphname = plusminus;
lastChange = "2022-10-20 16:10:08 +0000";
layers = (
{
layerId = m01;
shapes = (
{
closed = 1;
nodes = (
(342,628,l),
(309,440,l),
(87,440,l),
(76,381,l),
(298,381,l),
(261,170,l),
(39,170,l),
(28,110,l),
(537,110,l),
(548,170,l),
(326,170,l),
(363,381,l),
(585,381,l),
(596,440,l),
(374,440,l),
(407,628,l)
);
}
);
width = 657;
}
);
note = plusminus;
unicode = 177;
},
{
glyphname = uni00B2;
lastChange = "2022-10-20 16:10:08 +0000";
layers = (
{
layerId = m01;
shapes = (
{
closed = 1;
nodes = (
(103,602,l),
(112,632,o),
(151,665,o),
(179,665,qs),
(205,665,o),
(233,632,o),
(227,601,qs),
(222,568,o),
(177,517,o),
(137,487,qs),
(10,392,l),
(3,352,l),
(250,352,l),
(258,399,l),
(77,399,l),
(171,463,ls),
(226,501,o),
(281,563,o),
(288,603,qs),
(296,649,o),
(241,709,o),
(188,709,qs),
(131,709,o),
(57,649,o),
(46,602,q)
);
}
);
width = 322;
}
);
note = uni00B2;
unicode = 178;
},
{
glyphname = uni00B3;
lastChange = "2022-10-20 16:10:08 +0000";
layers = (
{
layerId = m01;
shapes = (
{
closed = 1;
nodes = (
(100,614,l),
(122,664,o),
(181,664,qs),
(212,664,o),
(243,632,o),
(239,606,qs),
(234,578,o),
(189,547,o),
(157,547,qs),
(109,547,l),
(102,508,l),
(150,508,ls),
(182,508,o),
(218,477,o),
(213,449,qs),
(208,422,o),
(165,391,o),
(133,391,qs),
(68,391,o),
(70,451,q),
(14,451,l),
(10,401,o),
(68,347,o),
(125,347,qs),
(184,347,o),
(265,403,o),
(272,443,qs),
(278,475,o),
(248,517,o),
(221,526,q),
(221,528,l),
(252,536,o),
(294,578,o),
(299,608,qs),
(307,651,o),
(245,709,o),
(193,709,qs),
(137,709,o),
(59,656,o),
(46,614,q)
);
}
);
width = 323;
}
);
note = uni00B3;
unicode = 179;
},
{
glyphname = acute;
lastChange = "2022-10-20 16:10:08 +0000";
layers = (
{
layerId = m01;
shapes = (
{
closed = 1;
nodes = (
(17,642,l),
(8,588,l),
(234,707,l),
(245,770,l)
);
}
);
width = 253;
}
);
note = acute;
unicode = 180;
},
{
glyphname = uni00B5;
lastChange = "2022-10-20 16:10:08 +0000";
layers = (
{
layerId = m01;
shapes = (
{
closed = 1;
nodes = (
(629,546,l),
(559,546,l),
(506,248,ls),
(489,151,o),
(381,51,o),
(304,51,qs),
(225,51,o),
(151,153,o),
(168,252,qs),
(220,546,l),
(151,546,l),
(9,-258,l),
(78,-258,l),
(138,80,l),
(151,32,o),
(224,-10,o),
(274,-10,qs),
(337,-10,o),
(448,53,o),
(483,113,q),
(463,0,l),
(533,0,l)
);
}
);
width = 638;
}
);
note = uni00B5;
unicode = 181;
},
{
glyphname = paragraph;
lastChange = "2022-10-20 16:10:08 +0000";
layers = (
{
layerId = m01;
shapes = (
{
closed = 1;
nodes = (
(325,690,ls),
(209,690,o),
(69,579,o),
(53,489,qs),
(38,399,o),
(137,289,o),
(254,289,qs),
(262,289,l),
(211,0,l),
(274,0,l),
(386,634,l),
(472,634,l),
(360,0,l),
(423,0,l),
(545,690,l)
);
}
);
width = 564;
}
);
note = paragraph;
unicode = 182;
},
{
glyphname = periodcentered;
lastChange = "2022-10-20 16:10:08 +0000";
layers = (
{
layerId = m01;
shapes = (
{
closed = 1;
nodes = (
(148,369,o),
(124,398,o),
(103,398,qs),
(81,398,o),
(47,369,o),
(43,347,qs),
(39,325,o),
(63,295,o),
(85,295,qs),
(106,295,o),
(140,325,o),
(144,347,qs)
);
}
);
width = 183;
}
);
note = periodcentered;
unicode = 183;
},
{
glyphname = cedilla;
lastChange = "2022-10-20 16:10:08 +0000";
layers = (
{
layerId = m01;
shapes = (
{
closed = 1;
nodes = (
(136,7,l),
(87,7,l),
(66,-112,l),
(112,-112,ls),
(184,-112,o),
(176,-160,qs),
(171,-186,o),
(132,-211,o),
(95,-211,qs),
(9,-211,l),
(1,-258,l),
(101,-258,ls),
(154,-258,o),
(227,-205,o),
(235,-160,qs),
(243,-114,o),
(183,-65,o),
(123,-67,q)
);
}
);
width = 265;
}
);
note = cedilla;
unicode = 184;
},
{
glyphname = uni00B9;
lastChange = "2022-10-20 16:10:08 +0000";
layers = (
{
layerId = m01;
shapes = (
{
closed = 1;
nodes = (
(52,352,l),
(109,352,l),
(171,704,l),
(60,704,l),
(52,659,l),
(106,659,l)
);
}
);
width = 183;
}
);
note = uni00B9;
unicode = 185;
},
{
glyphname = ordmasculine;
lastChange = "2022-10-20 16:10:08 +0000";
layers = (
{
layerId = m01;
shapes = (
{
closed = 1;
nodes = (
(25,473,o),
(57,391,o),
(131,345,o),
(182,345,qs),
(233,345,o),
(323,391,o),
(386,474,o),
(395,527,qs),
(405,581,o),
(372,664,o),
(298,709,o),
(247,709,qs),
(196,709,o),
(106,664,o),
(45,581,o),
(35,527,qs)
);
},
{
closed = 1;
nodes = (
(325,464,o),
(241,392,o),
(190,392,qs),
(138,392,o),
(83,463,o),
(94,527,qs),
(105,591,o),
(187,663,o),
(238,663,qs),
(290,663,o),
(347,591,o),
(336,527,qs)
);
}
);
width = 429;
}
);
note = ordmasculine;
unicode = 186;
},
{
glyphname = guillemotright;
lastChange = "2022-10-20 16:10:08 +0000";
layers = (
{
layerId = m01;
shapes = (
{
closed = 1;
nodes = (
(260,120,l),
(390,295,l),
(322,470,l),
(251,470,l),
(322,295,l),
(189,120,l)
);
},
{
closed = 1;
nodes = (
(90,120,l),
(220,295,l),
(152,470,l),
(81,470,l),
(152,295,l),
(19,120,l)
);
}
);
width = 435;
}
);
note = guillemotright;
unicode = 187;
},
{
glyphname = onequarter;
lastChange = "2022-10-20 16:10:08 +0000";
layers = (
{
layerId = m01;
shapes = (
{
closed = 1;
nodes = (
(-2,0,l),
(65,0,l),
(554,700,l),
(488,700,l)
);
},
{
closed = 1;
nodes = (
(475,110,l),
(518,354,l),
(445,354,l),
(239,106,l),
(232,71,l),
(411,71,l),
(399,0,l),
(456,0,l),
(468,71,l),
(518,71,l),
(525,110,l)
);
},
{
closed = 1;
nodes = (
(297,110,l),
(452,296,l),
(419,110,l)
);
},
{
closed = 1;
nodes = (
(95,352,l),
(152,352,l),
(214,704,l),
(103,704,l),
(95,659,l),
(149,659,l)
);
}
);
width = 602;
}
);
note = onequarter;
unicode = 188;
},
{
glyphname = onehalf;
lastChange = "2022-10-20 16:10:08 +0000";
layers = (
{
layerId = m01;
shapes = (
{
closed = 1;
nodes = (
(-10,0,l),
(57,0,l),
(540,700,l),
(473,700,l)
);
},
{
closed = 1;
nodes = (
(92,352,l),
(149,352,l),
(211,704,l),
(100,704,l),
(92,659,l),
(146,659,l)
);
},
{
closed = 1;
nodes = (
(390,249,l),
(399,279,o),
(438,312,o),
(466,312,qs),
(492,312,o),
(520,279,o),
(515,248,qs),
(509,215,o),
(464,164,o),
(425,134,qs),
(297,39,l),
(290,-1,l),
(537,-1,l),
(545,46,l),
(364,46,l),
(458,110,ls),
(513,148,o),
(568,210,o),
(575,250,qs),
(583,296,o),
(529,356,o),
(476,356,qs),
(419,356,o),
(344,296,o),
(333,249,q)
);
}
);
width = 650;
}
);
note = onehalf;
unicode = 189;
},
{
glyphname = threequarters;
lastChange = "2022-10-20 16:10:08 +0000";
layers = (
{
layerId = m01;
shapes = (
{
closed = 1;
nodes = (
(83,0,l),
(149,0,l),
(650,700,l),
(584,700,l)
);
},
{
closed = 1;
nodes = (
(559,110,l),
(602,354,l),
(529,354,l),
(322,106,l),
(316,71,l),
(495,71,l),
(482,0,l),
(539,0,l),
(552,71,l),
(602,71,l),
(609,110,l)
);
},
{
closed = 1;
nodes = (
(382,110,l),
(537,296,l),
(504,110,l)
);
},
{
closed = 1;
nodes = (
(141,614,l),
(163,664,o),
(222,664,qs),
(253,664,o),
(284,632,o),
(279,606,qs),
(274,578,o),
(230,547,o),
(198,547,qs),
(150,547,l),
(143,508,l),
(191,508,ls),
(223,508,o),
(259,477,o),
(254,449,qs),
(249,422,o),
(205,391,o),
(173,391,qs),
(108,391,o),
(111,451,q),
(55,451,l),
(50,401,o),
(109,347,o),
(166,347,qs),
(225,347,o),
(306,403,o),
(313,443,qs),
(318,475,o),
(289,517,o),
(261,526,q),
(262,528,l),
(293,536,o),
(334,578,o),
(340,608,qs),
(347,651,o),
(286,709,o),
(234,709,qs),
(178,709,o),
(99,656,o),
(87,614,q)
);
}
);
width = 680;
}
);
note = threequarters;
unicode = 190;
},
{
glyphname = questiondown;
lastChange = "2022-10-20 16:10:08 +0000";
layers = (
{
layerId = m01;
shapes = (
{
closed = 1;
nodes = (
(378,36,l),
(367,-28,o),
(274,-102,o),
(206,-102,qs),
(138,-102,o),
(68,-24,o),
(80,42,qs),
(97,136,o),
(227,201,o),
(330,201,qs),
(356,201,l),
(380,361,l),
(320,361,l),
(298,251,l),
(183,251,o),
(32,150,o),
(13,42,qs),
(2,-19,o),
(41,-112,o),
(131,-162,o),
(195,-162,qs),
(258,-162,o),
(364,-113,o),
(434,-24,o),
(445,36,q)
);
},
{
closed = 1;
nodes = (
(321,477,o),
(345,448,o),
(366,448,qs),
(388,448,o),
(422,477,o),
(426,499,qs),
(430,521,o),
(406,551,o),
(384,551,qs),
(363,551,o),
(329,521,o),
(325,499,qs)
);
}
);
width = 502;
}
);
note = questiondown;
unicode = 191;
},
{
glyphname = Agrave;
lastChange = "2022-10-20 16:10:08 +0000";
layers = (
{
layerId = m01;
shapes = (
{
closed = 1;
nodes = (
(465,0,l),
(539,0,l),
(407,690,l),
(328,690,l),
(-49,0,l),
(25,0,l),
(116,166,l),
(434,166,l)
);
},
{
closed = 1;
nodes = (
(283,851,l),
(467,732,l),
(477,786,l),
(295,914,l)
);
},
{
closed = 1;
nodes = (
(423,224,l),
(147,224,l),
(352,602,l)
);
}
);
width = 652;
}
);
note = Agrave;
unicode = 192;
},
{
glyphname = Aacute;
lastChange = "2022-10-20 16:10:08 +0000";
layers = (
{
layerId = m01;
shapes = (
{
closed = 1;
nodes = (
(465,0,l),
(539,0,l),
(407,690,l),
(328,690,l),
(-49,0,l),
(25,0,l),
(116,166,l),
(434,166,l)
);
},
{
closed = 1;
nodes = (
(272,786,l),
(262,732,l),
(488,851,l),
(500,914,l)
);
},
{
closed = 1;
nodes = (
(423,224,l),
(147,224,l),
(352,602,l)
);
}
);
width = 652;
}
);
note = Aacute;
unicode = 193;
},
{
glyphname = Acircumflex;
lastChange = "2022-10-20 16:10:08 +0000";
layers = (
{
layerId = m01;
shapes = (
{
closed = 1;
nodes = (
(468,0,l),
(542,0,l),
(409,690,l),
(330,690,l),
(-46,0,l),
(28,0,l),
(118,166,l),
(436,166,l)
);
},
{
closed = 1;
nodes = (
(524,805,l),
(404,887,l),
(256,805,l),
(246,748,l),
(395,832,l),
(514,748,l)
);
},
{
closed = 1;
nodes = (
(425,224,l),
(149,224,l),
(354,602,l)
);
}
);
width = 652;
}
);
note = Acircumflex;
unicode = 194;
},
{
glyphname = Atilde;
lastChange = "2022-10-20 16:10:08 +0000";
layers = (
{
layerId = m01;
shapes = (
{
closed = 1;
nodes = (
(472,0,l),
(546,0,l),
(413,690,l),
(334,690,l),
(-42,0,l),
(32,0,l),
(122,166,l),
(440,166,l)
);
},
{
closed = 1;
nodes = (
(296,750,l),
(310,795,o),
(346,795,qs),
(359,795,o),
(378,785,o),
(390,774,qs),
(406,761,o),
(431,748,o),
(450,748,qs),
(486,748,o),
(543,797,o),
(555,841,q),
(513,841,l),
(506,819,o),
(478,796,o),
(461,796,qs),
(448,796,o),
(428,807,o),
(415,818,qs),
(399,830,o),
(375,843,o),
(357,843,qs),
(321,843,o),
(267,795,o),
(253,750,q)
);
},
{
closed = 1;
nodes = (
(429,224,l),
(153,224,l),
(358,602,l)
);
}
);
width = 652;
}
);
note = Atilde;
unicode = 195;
},
{
glyphname = Adieresis;
lastChange = "2022-10-20 16:10:08 +0000";
layers = (
{
layerId = m01;
shapes = (
{
closed = 1;
nodes = (
(470,0,l),
(544,0,l),
(412,690,l),
(333,690,l),
(-44,0,l),
(30,0,l),
(121,166,l),
(439,166,l)
);
},
{
closed = 1;
nodes = (
(329,767,o),
(360,794,o),
(364,813,qs),
(367,832,o),
(345,859,o),
(326,859,qs),
(307,859,o),
(275,832,o),
(272,813,qs),
(268,794,o),
(291,767,o),
(310,767,qs)
);
},
{
closed = 1;
nodes = (
(483,767,o),
(513,794,o),
(517,813,qs),
(520,832,o),
(499,859,o),
(480,859,qs),
(461,859,o),
(429,832,o),
(426,813,qs),
(422,794,o),
(445,767,o),
(464,767,qs)
);
},
{
closed = 1;
nodes = (
(428,224,l),
(152,224,l),
(356,602,l)
);
}
);
width = 652;
}
);
note = Adieresis;
unicode = 196;
},
{
glyphname = Aring;
lastChange = "2022-10-20 16:10:08 +0000";
layers = (
{
layerId = m01;
shapes = (
{
closed = 1;
nodes = (
(462,0,l),
(536,0,l),
(404,690,l),
(325,690,l),
(-52,0,l),
(22,0,l),
(112,166,l),
(430,166,l)
);
},
{
closed = 1;
nodes = (
(357,793,o),
(330,827,o),
(334,854,qs),
(339,882,o),
(378,915,o),
(403,915,qs),
(428,915,o),
(456,882,o),
(451,854,qs),
(447,827,o),
(407,793,o),
(382,793,qs)
);
},
{
closed = 1;
nodes = (
(367,954,o),
(298,899,o),
(290,854,qs),
(283,809,o),
(332,754,o),
(375,754,qs),
(419,754,o),
(487,809,o),
(494,854,qs),
(502,899,o),
(454,954,o),
(410,954,qs)
);
},
{
closed = 1;
nodes = (
(419,224,l),
(143,224,l),
(348,602,l)
);
}
);
width = 652;
}
);
note = Aring;
unicode = 197;
},
{
glyphname = AE;
lastChange = "2022-10-20 16:10:08 +0000";
layers = (
{
layerId = m01;
shapes = (
{
closed = 1;
nodes = (
(509,640,l),
(435,222,l),
(193,222,l)
);
},
{
closed = 1;
nodes = (
(875,644,l),
(885,700,l),
(479,700,l),
(-51,0,l),
(26,0,l),
(152,166,l),
(426,166,l),
(396,0,l),
(761,0,l),
(771,56,l),
(476,56,l),
(523,324,l),
(788,324,l),
(798,380,l),
(533,380,l),
(580,644,l)
);
}
);
width = 882;
}
);
note = AE;
unicode = 198;
},
{
glyphname = Ccedilla;
lastChange = "2022-10-20 16:10:08 +0000";
layers = (
{
layerId = m01;
shapes = (
{
closed = 1;
nodes = (
(52,249,o),
(109,90,o),
(243,-3,o),
(335,-6,q),
(317,-112,l),
(363,-112,ls),
(435,-112,o),
(426,-160,qs),
(422,-186,o),
(382,-211,o),
(345,-211,qs),
(259,-211,l),
(251,-258,l),
(351,-258,ls),
(404,-258,o),
(477,-205,o),
(485,-160,qs),
(493,-114,o),
(433,-65,o),
(374,-67,q),
(385,-5,l),
(489,3,o),
(657,112,o),
(708,204,q),
(626,204,l),
(584,134,o),
(447,55,o),
(360,55,qs),
(283,55,o),
(173,127,o),
(126,261,o),
(142,350,qs),
(158,439,o),
(252,574,o),
(387,646,o),
(464,646,qs),
(551,646,o),
(660,566,o),
(678,495,q),
(760,495,l),
(740,596,o),
(592,707,o),
(475,707,qs),
(379,707,o),
(207,616,o),
(88,453,o),
(70,350,qs)
);
}
);
width = 771;
}
);
note = Ccedilla;
unicode = 199;
},
{
glyphname = Egrave;
lastChange = "2022-10-20 16:10:08 +0000";
layers = (
{
layerId = m01;
shapes = (
{
closed = 1;
nodes = (
(488,700,l),
(123,700,l),
(-1,0,l),
(364,0,l),
(375,58,l),
(80,58,l),
(126,323,l),
(391,323,l),
(402,381,l),
(137,381,l),
(183,642,l),
(478,642,l)
);
},
{
closed = 1;
nodes = (
(205,851,l),
(389,732,l),
(399,786,l),
(217,914,l)
);
}
);
width = 503;
}
);
note = Egrave;
unicode = 200;
},
{
glyphname = Eacute;
lastChange = "2022-10-20 16:10:08 +0000";
layers = (
{
layerId = m01;
shapes = (
{
closed = 1;
nodes = (
(488,700,l),
(123,700,l),
(-1,0,l),
(364,0,l),
(375,58,l),
(80,58,l),
(126,323,l),
(391,323,l),
(402,381,l),
(137,381,l),
(183,642,l),
(478,642,l)
);
},
{
closed = 1;
nodes = (
(194,786,l),
(184,732,l),
(410,851,l),
(422,914,l)
);
}
);
width = 503;
}
);
note = Eacute;
unicode = 201;
},
{
glyphname = Ecircumflex;
lastChange = "2022-10-20 16:10:08 +0000";
layers = (
{
layerId = m01;
shapes = (
{
closed = 1;
nodes = (
(490,700,l),
(125,700,l),
(2,0,l),
(367,0,l),
(377,58,l),
(82,58,l),
(129,323,l),
(394,323,l),
(404,381,l),
(139,381,l),
(185,642,l),
(480,642,l)
);
},
{
closed = 1;
nodes = (
(446,805,l),
(326,887,l),
(178,805,l),
(168,748,l),
(317,832,l),
(436,748,l)
);
}
);
width = 503;
}
);
note = Ecircumflex;
unicode = 202;
},
{
glyphname = Edieresis;
lastChange = "2022-10-20 16:10:08 +0000";
layers = (
{
layerId = m01;
shapes = (
{
closed = 1;
nodes = (
(493,700,l),
(128,700,l),
(4,0,l),
(369,0,l),
(379,58,l),
(84,58,l),
(131,323,l),
(396,323,l),
(406,381,l),
(141,381,l),
(187,642,l),
(482,642,l)
);
},
{
closed = 1;
nodes = (
(251,767,o),
(282,794,o),
(286,813,qs),
(289,832,o),
(267,859,o),
(248,859,qs),
(229,859,o),
(197,832,o),
(194,813,qs),
(190,794,o),
(213,767,o),
(232,767,qs)
);
},
{
closed = 1;
nodes = (
(405,767,o),
(435,794,o),
(439,813,qs),
(442,832,o),
(421,859,o),
(402,859,qs),
(383,859,o),
(351,832,o),
(348,813,qs),
(344,794,o),
(367,767,o),
(386,767,qs)
);
}
);
width = 503;
}
);
note = Edieresis;
unicode = 203;
},
{
glyphname = Igrave;
lastChange = "2022-10-20 16:10:08 +0000";
layers = (
{
layerId = m01;
shapes = (
{
closed = 1;
nodes = (
(-1,0,l),
(69,0,l),
(193,699,l),
(123,699,l)
);
},
{
closed = 1;
nodes = (
(71,851,l),
(255,732,l),
(265,786,l),
(83,914,l)
);
}
);
width = 229;
}
);
note = Igrave;
unicode = 204;
},
{
glyphname = Iacute;
lastChange = "2022-10-20 16:10:08 +0000";
layers = (
{
layerId = m01;
shapes = (
{
closed = 1;
nodes = (
(-1,0,l),
(69,0,l),
(193,699,l),
(123,699,l)
);
},
{
closed = 1;
nodes = (
(60,786,l),
(50,732,l),
(276,851,l),
(288,914,l)
);
}
);
width = 229;
}
);
note = Iacute;
unicode = 205;
},
{
glyphname = Icircumflex;
lastChange = "2022-10-20 16:10:08 +0000";
layers = (
{
layerId = m01;
shapes = (
{
closed = 1;
nodes = (
(2,0,l),
(72,0,l),
(195,699,l),
(125,699,l)
);
},
{
closed = 1;
nodes = (
(313,805,l),
(193,887,l),
(45,805,l),
(35,748,l),
(184,832,l),
(303,748,l)
);
}
);
width = 229;
}
);
note = Icircumflex;
unicode = 206;
},
{
glyphname = Idieresis;
lastChange = "2022-10-20 16:10:08 +0000";
layers = (
{
layerId = m01;
shapes = (
{
closed = 1;
nodes = (
(4,0,l),
(74,0,l),
(198,699,l),
(128,699,l)
);
},
{
closed = 1;
nodes = (
(117,767,o),
(148,794,o),
(152,813,qs),
(155,832,o),
(133,859,o),
(114,859,qs),
(95,859,o),
(63,832,o),
(60,813,qs),
(56,794,o),
(79,767,o),
(98,767,qs)
);
},
{
closed = 1;
nodes = (
(271,767,o),
(301,794,o),
(305,813,qs),
(308,832,o),
(287,859,o),
(268,859,qs),
(249,859,o),
(217,832,o),
(214,813,qs),
(210,794,o),
(233,767,o),
(252,767,qs)
);
}
);
width = 229;
}
);
note = Idieresis;
unicode = 207;
},
{
glyphname = Eth;
lastChange = "2022-10-20 16:10:08 +0000";
layers = (
{
layerId = m01;
shapes = (
{
closed = 1;
nodes = (
(166,699,l),
(110,381,l),
(15,381,l),
(3,316,l),
(98,316,l),
(42,0,l),
(250,0,ls),
(366,0,o),
(547,83,o),
(663,240,o),
(682,348,qs),
(701,457,o),
(641,615,o),
(490,699,o),
(374,699,qs)
);
},
{
closed = 1;
nodes = (
(123,55,l),
(169,316,l),
(373,316,l),
(385,381,l),
(181,381,l),
(227,642,l),
(364,642,ls),
(509,642,o),
(634,486,o),
(610,348,qs),
(585,210,o),
(405,55,o),
(260,55,qs)
);
}
);
width = 730;
}
);
note = Eth;
unicode = 208;
},
{
glyphname = Ntilde;
lastChange = "2022-10-20 16:10:08 +0000";
layers = (
{
layerId = m01;
shapes = (
{
closed = 1;
nodes = (
(586,699,l),
(482,112,l),
(199,699,l),
(129,699,l),
(6,0,l),
(76,0,l),
(179,588,l),
(463,0,l),
(533,0,l),
(656,699,l)
);
},
{
closed = 1;
nodes = (
(313,750,l),
(327,795,o),
(363,795,qs),
(376,795,o),
(395,785,o),
(407,774,qs),
(423,761,o),
(448,748,o),
(467,748,qs),
(503,748,o),
(560,797,o),
(572,841,q),
(530,841,l),
(523,819,o),
(495,796,o),
(478,796,qs),
(465,796,o),
(445,807,o),
(432,818,qs),
(416,830,o),
(392,843,o),
(374,843,qs),
(338,843,o),
(284,795,o),
(270,750,q)
);
}
);
width = 686;
}
);
note = Ntilde;
unicode = 209;
},
{
glyphname = Ograve;
lastChange = "2022-10-20 16:10:08 +0000";
layers = (
{
layerId = m01;
shapes = (
{
closed = 1;
nodes = (
(740,453,o),
(679,616,o),
(537,707,o),
(439,707,qs),
(342,707,o),
(168,616,o),
(48,453,o),
(30,350,qs),
(12,247,o),
(74,84,o),
(216,-7,o),
(313,-7,qs),
(411,-7,o),
(585,84,o),
(704,247,o),
(722,350,qs)
);
},
{
closed = 1;
nodes = (
(117,439,o),
(213,573,o),
(350,645,o),
(428,645,qs),
(506,645,o),
(617,573,o),
(665,439,o),
(650,350,qs),
(634,261,o),
(538,126,o),
(402,54,o),
(324,54,qs),
(246,54,o),
(134,126,o),
(86,261,o),
(102,350,qs)
);
},
{
closed = 1;
nodes = (
(356,851,l),
(540,732,l),
(550,786,l),
(367,914,l)
);
}
);
width = 788;
}
);
note = Ograve;
unicode = 210;
},
{
glyphname = Oacute;
lastChange = "2022-10-20 16:10:08 +0000";
layers = (
{
layerId = m01;
shapes = (
{
closed = 1;
nodes = (
(740,453,o),
(679,616,o),
(537,707,o),
(439,707,qs),
(342,707,o),
(168,616,o),
(48,453,o),
(30,350,qs),
(12,247,o),
(74,84,o),
(216,-7,o),
(313,-7,qs),
(411,-7,o),
(585,84,o),
(704,247,o),
(722,350,qs)
);
},
{
closed = 1;
nodes = (
(117,439,o),
(213,573,o),
(350,645,o),
(428,645,qs),
(506,645,o),
(617,573,o),
(665,439,o),
(650,350,qs),
(634,261,o),
(538,126,o),
(402,54,o),
(324,54,qs),
(246,54,o),
(134,126,o),
(86,261,o),
(102,350,qs)
);
},
{
closed = 1;
nodes = (
(345,786,l),
(335,732,l),
(561,851,l),
(572,914,l)
);
}
);
width = 788;
}
);
note = Oacute;
unicode = 211;
},
{
glyphname = Ocircumflex;
lastChange = "2022-10-20 16:10:08 +0000";
layers = (
{
layerId = m01;
shapes = (
{
closed = 1;
nodes = (
(742,453,o),
(681,616,o),
(539,707,o),
(441,707,qs),
(344,707,o),
(170,616,o),
(50,453,o),
(32,350,qs),
(14,247,o),
(76,84,o),
(218,-7,o),
(315,-7,qs),
(413,-7,o),
(587,84,o),
(706,247,o),
(724,350,qs)
);
},
{
closed = 1;
nodes = (
(120,439,o),
(215,573,o),
(352,645,o),
(430,645,qs),
(508,645,o),
(619,573,o),
(668,439,o),
(652,350,qs),
(636,261,o),
(541,126,o),
(404,54,o),
(326,54,qs),
(248,54,o),
(137,126,o),
(88,261,o),
(104,350,qs)
);
},
{
closed = 1;
nodes = (
(597,805,l),
(478,887,l),
(329,805,l),
(319,748,l),
(468,832,l),
(587,748,l)
);
}
);
width = 788;
}
);
note = Ocircumflex;
unicode = 212;
},
{
glyphname = Otilde;
lastChange = "2022-10-20 16:10:08 +0000";
layers = (
{
layerId = m01;
shapes = (
{
closed = 1;
nodes = (
(746,453,o),
(685,616,o),
(543,707,o),
(445,707,qs),
(348,707,o),
(174,616,o),
(54,453,o),
(36,350,qs),
(18,247,o),
(80,84,o),
(222,-7,o),
(319,-7,qs),
(417,-7,o),
(591,84,o),
(710,247,o),
(728,350,qs)
);
},
{
closed = 1;
nodes = (
(124,439,o),
(219,573,o),
(356,645,o),
(434,645,qs),
(512,645,o),
(623,573,o),
(672,439,o),
(656,350,qs),
(640,261,o),
(545,126,o),
(408,54,o),
(330,54,qs),
(252,54,o),
(141,126,o),
(92,261,o),
(108,350,qs)
);
},
{
closed = 1;
nodes = (
(369,750,l),
(382,795,o),
(418,795,qs),
(431,795,o),
(451,785,o),
(463,774,qs),
(478,761,o),
(503,748,o),
(522,748,qs),
(558,748,o),
(616,797,o),
(628,841,q),
(586,841,l),
(579,819,o),
(551,796,o),
(534,796,qs),
(521,796,o),
(501,807,o),
(488,818,qs),
(472,830,o),
(448,843,o),
(430,843,qs),
(394,843,o),
(339,795,o),
(326,750,q)
);
}
);
width = 788;
}
);
note = Otilde;
unicode = 213;
},
{
glyphname = Odieresis;
lastChange = "2022-10-20 16:10:08 +0000";
layers = (
{
layerId = m01;
shapes = (
{
closed = 1;
nodes = (
(745,453,o),
(684,616,o),
(542,707,o),
(444,707,qs),
(347,707,o),
(173,616,o),
(53,453,o),
(35,350,qs),
(16,247,o),
(79,84,o),
(221,-7,o),
(318,-7,qs),
(416,-7,o),
(590,84,o),
(708,247,o),
(727,350,qs)
);
},
{
closed = 1;
nodes = (
(122,439,o),
(218,573,o),
(355,645,o),
(433,645,qs),
(511,645,o),
(622,573,o),
(670,439,o),
(655,350,qs),
(639,261,o),
(543,126,o),
(406,54,o),
(328,54,qs),
(250,54,o),
(139,126,o),
(91,261,o),
(107,350,qs)
);
},
{
closed = 1;
nodes = (
(402,767,o),
(434,794,o),
(437,813,qs),
(441,832,o),
(418,859,o),
(399,859,qs),
(380,859,o),
(349,832,o),
(345,813,qs),
(342,794,o),
(364,767,o),
(383,767,qs)
);
},
{
closed = 1;
nodes = (
(556,767,o),
(587,794,o),
(590,813,qs),
(594,832,o),
(572,859,o),
(553,859,qs),
(534,859,o),
(503,832,o),
(499,813,qs),
(496,794,o),
(518,767,o),
(537,767,qs)
);
}
);
width = 788;
}
);
note = Odieresis;
unicode = 214;
},
{
glyphname = multiply;
lastChange = "2022-10-20 16:10:08 +0000";
layers = (
{
layerId = m01;
shapes = (
{
closed = 1;
nodes = (
(115,536,l),
(250,371,l),
(56,206,l),
(94,160,l),
(288,325,l),
(424,160,l),
(478,205,l),
(342,371,l),
(534,534,l),
(496,580,l),
(304,417,l),
(169,581,l)
);
}
);
width = 591;
}
);
note = multiply;
unicode = 215;
},
{
glyphname = Oslash;
lastChange = "2022-10-20 16:10:08 +0000";
layers = (
{
layerId = m01;
shapes = (
{
closed = 1;
nodes = (
(753,423,o),
(728,549,o),
(694,597,q),
(807,700,l),
(748,700,l),
(668,627,l),
(630,666,o),
(522,707,o),
(457,707,qs),
(360,707,o),
(186,616,o),
(66,453,o),
(48,350,qs),
(35,277,o),
(59,151,o),
(94,104,q),
(-20,0,l),
(40,0,l),
(120,73,l),
(158,34,o),
(266,-7,o),
(331,-7,qs),
(429,-7,o),
(603,84,o),
(722,247,o),
(740,350,qs)
);
},
{
closed = 1;
nodes = (
(136,439,o),
(231,573,o),
(368,645,o),
(446,645,qs),
(498,645,o),
(585,612,o),
(616,580,q),
(147,152,l),
(99,231,o),
(120,350,qs)
);
},
{
closed = 1;
nodes = (
(289,54,o),
(202,88,o),
(171,120,q),
(640,548,l),
(689,469,o),
(668,350,qs),
(652,261,o),
(557,126,o),
(420,54,o),
(342,54,qs)
);
}
);
width = 788;
}
);
note = Oslash;
unicode = 216;
},
{
glyphname = Ugrave;
lastChange = "2022-10-20 16:10:08 +0000";
layers = (
{
layerId = m01;
shapes = (
{
closed = 1;
nodes = (
(43,260,ls),
(19,127,o),
(137,-7,o),
(250,-7,qs),
(363,-7,o),
(527,127,o),
(551,260,qs),
(628,699,l),
(558,699,l),
(481,259,ls),
(462,154,o),
(348,55,o),
(262,55,qs),
(176,55,o),
(94,155,o),
(113,259,qs),
(190,699,l),
(120,699,l)
);
},
{
closed = 1;
nodes = (
(288,851,l),
(472,732,l),
(482,786,l),
(299,914,l)
);
}
);
width = 661;
}
);
note = Ugrave;
unicode = 217;
},
{
glyphname = Uacute;
lastChange = "2022-10-20 16:10:08 +0000";
layers = (
{
layerId = m01;
shapes = (
{
closed = 1;
nodes = (
(43,260,ls),
(19,127,o),
(137,-7,o),
(250,-7,qs),
(363,-7,o),
(527,127,o),
(551,260,qs),
(628,699,l),
(558,699,l),
(481,259,ls),
(462,154,o),
(348,55,o),
(262,55,qs),
(176,55,o),
(94,155,o),
(113,259,qs),
(190,699,l),
(120,699,l)
);
},
{
closed = 1;
nodes = (
(277,786,l),
(267,732,l),
(493,851,l),
(504,914,l)
);
}
);
width = 661;
}
);
note = Uacute;
unicode = 218;
},
{
glyphname = Ucircumflex;
lastChange = "2022-10-20 16:10:08 +0000";
layers = (
{
layerId = m01;
shapes = (
{
closed = 1;
nodes = (
(45,260,ls),
(22,127,o),
(139,-7,o),
(252,-7,qs),
(365,-7,o),
(530,127,o),
(553,260,qs),
(631,699,l),
(561,699,l),
(483,259,ls),
(465,154,o),
(350,55,o),
(264,55,qs),
(178,55,o),
(97,155,o),
(115,259,qs),
(193,699,l),
(123,699,l)
);
},
{
closed = 1;
nodes = (
(528,805,l),
(409,887,l),
(260,805,l),
(250,748,l),
(399,832,l),
(518,748,l)
);
}
);
width = 661;
}
);
note = Ucircumflex;
unicode = 219;
},
{
glyphname = Udieresis;
lastChange = "2022-10-20 16:10:08 +0000";
layers = (
{
layerId = m01;
shapes = (
{
closed = 1;
nodes = (
(48,260,ls),
(24,127,o),
(142,-7,o),
(255,-7,qs),
(368,-7,o),
(532,127,o),
(556,260,qs),
(633,699,l),
(563,699,l),
(486,259,ls),
(467,154,o),
(353,55,o),
(267,55,qs),
(181,55,o),
(99,155,o),
(118,259,qs),
(195,699,l),
(125,699,l)
);
},
{
closed = 1;
nodes = (
(333,767,o),
(365,794,o),
(368,813,qs),
(372,832,o),
(349,859,o),
(330,859,qs),
(311,859,o),
(280,832,o),
(276,813,qs),
(273,794,o),
(295,767,o),
(314,767,qs)
);
},
{
closed = 1;
nodes = (
(487,767,o),
(518,794,o),
(521,813,qs),
(525,832,o),
(503,859,o),
(484,859,qs),
(465,859,o),
(434,832,o),
(430,813,qs),
(427,794,o),
(449,767,o),
(468,767,qs)
);
}
);
width = 661;
}
);
note = Udieresis;
unicode = 220;
},
{
glyphname = Yacute;
lastChange = "2022-10-20 16:10:08 +0000";
layers = (
{
layerId = m01;
shapes = (
{
closed = 1;
nodes = (
(215,272,l),
(167,0,l),
(237,0,l),
(285,272,l),
(585,699,l),
(507,699,l),
(262,336,l),
(144,699,l),
(65,699,l)
);
},
{
closed = 1;
nodes = (
(228,786,l),
(218,732,l),
(444,851,l),
(456,914,l)
);
}
);
width = 564;
}
);
note = Yacute;
unicode = 221;
},
{
glyphname = Thorn;
lastChange = "2022-10-20 16:10:08 +0000";
layers = (
{
layerId = m01;
shapes = (
{
closed = 1;
nodes = (
(125,207,l),
(175,494,l),
(316,494,ls),
(480,494,o),
(455,350,qs),
(443,282,o),
(351,207,o),
(266,207,qs)
);
},
{
closed = 1;
nodes = (
(543,441,o),
(443,551,o),
(326,551,qs),
(184,551,l),
(211,700,l),
(142,700,l),
(18,0,l),
(88,0,l),
(115,150,l),
(256,150,ls),
(374,150,o),
(511,260,o),
(527,350,qs)
);
}
);
width = 564;
}
);
note = Thorn;
unicode = 222;
},
{
glyphname = germandbls;
lastChange = "2022-10-20 16:10:08 +0000";
layers = (
{
layerId = m01;
shapes = (
{
closed = 1;
nodes = (
(-1,0,l),
(69,0,l),
(167,552,ls),
(180,627,o),
(270,709,o),
(346,709,qs),
(410,709,o),
(475,652,o),
(467,604,qs),
(461,573,o),
(418,527,o),
(376,495,qs),
(333,462,o),
(286,411,o),
(279,376,qs),
(272,332,o),
(328,276,o),
(403,249,qs),
(458,230,o),
(497,182,o),
(490,142,qs),
(482,98,o),
(416,47,o),
(365,47,qs),
(310,47,o),
(255,112,o),
(260,167,q),
(189,167,l),
(181,85,o),
(271,-10,o),
(355,-10,qs),
(439,-10,o),
(551,76,o),
(563,147,qs),
(573,204,o),
(521,279,o),
(454,302,qs),
(390,324,o),
(348,360,o),
(352,385,qs),
(355,404,o),
(388,437,o),
(423,463,qs),
(472,500,o),
(529,562,o),
(538,609,qs),
(545,653,o),
(509,725,o),
(423,768,o),
(358,768,qs),
(250,768,o),
(114,653,o),
(98,560,qs)
);
}
);
width = 665;
}
);
note = germandbls;
unicode = 223;
},
{
glyphname = agrave;
lastChange = "2022-10-20 16:10:08 +0000";
layers = (
{
layerId = m01;
shapes = (
{
closed = 1;
nodes = (
(14,190,o),
(59,62,o),
(165,-8,o),
(239,-8,qs),
(317,-8,o),
(443,65,o),
(479,121,q),
(458,0,l),
(528,0,l),
(624,546,l),
(554,546,l),
(533,426,l),
(518,482,o),
(418,554,o),
(340,554,qs),
(265,554,o),
(133,485,o),
(44,358,o),
(29,274,qs)
);
},
{
closed = 1;
nodes = (
(494,207,o),
(423,107,o),
(320,53,o),
(264,53,qs),
(206,53,o),
(124,106,o),
(88,207,o),
(100,274,qs),
(112,342,o),
(183,441,o),
(284,493,o),
(342,493,qs),
(398,493,o),
(481,439,o),
(518,339,o),
(506,273,qs)
);
},
{
closed = 1;
nodes = (
(283,707,l),
(467,588,l),
(477,642,l),
(295,770,l)
);
}
);
width = 675;
}
);
note = agrave;
unicode = 224;
},
{
glyphname = aacute;
lastChange = "2022-10-20 16:10:08 +0000";
layers = (
{
layerId = m01;
shapes = (
{
closed = 1;
nodes = (
(14,190,o),
(59,62,o),
(165,-8,o),
(239,-8,qs),
(317,-8,o),
(443,65,o),
(479,121,q),
(458,0,l),
(528,0,l),
(624,546,l),
(554,546,l),
(533,426,l),
(518,482,o),
(418,554,o),
(340,554,qs),
(265,554,o),
(133,485,o),
(44,358,o),
(29,274,qs)
);
},
{
closed = 1;
nodes = (
(494,207,o),
(423,107,o),
(320,53,o),
(264,53,qs),
(206,53,o),
(124,106,o),
(88,207,o),
(100,274,qs),
(112,342,o),
(183,441,o),
(284,493,o),
(342,493,qs),
(398,493,o),
(481,439,o),
(518,339,o),
(506,273,qs)
);
},
{
closed = 1;
nodes = (
(272,642,l),
(262,588,l),
(488,707,l),
(500,770,l)
);
}
);
width = 675;
}
);
note = aacute;
unicode = 225;
},
{
glyphname = acircumflex;
lastChange = "2022-10-20 16:10:08 +0000";
layers = (
{
layerId = m01;
shapes = (
{
closed = 1;
nodes = (
(17,190,o),
(61,62,o),
(168,-8,o),
(242,-8,qs),
(320,-8,o),
(446,65,o),
(482,121,q),
(460,0,l),
(530,0,l),
(626,546,l),
(556,546,l),
(535,426,l),
(520,482,o),
(420,554,o),
(342,554,qs),
(267,554,o),
(136,485,o),
(46,358,o),
(32,274,qs)
);
},
{
closed = 1;
nodes = (
(497,207,o),
(425,107,o),
(323,53,o),
(267,53,qs),
(209,53,o),
(126,106,o),
(91,207,o),
(103,274,qs),
(115,342,o),
(185,441,o),
(286,493,o),
(344,493,qs),
(400,493,o),
(484,439,o),
(520,339,o),
(508,273,qs)
);
},
{
closed = 1;
nodes = (
(525,661,l),
(405,743,l),
(257,661,l),
(247,604,l),
(396,688,l),
(515,604,l)
);
}
);
width = 675;
}
);
note = acircumflex;
unicode = 226;
},
{
glyphname = atilde;
lastChange = "2022-10-20 16:10:08 +0000";
layers = (
{
layerId = m01;
shapes = (
{
closed = 1;
nodes = (
(21,190,o),
(65,62,o),
(172,-8,o),
(246,-8,qs),
(324,-8,o),
(450,65,o),
(485,121,q),
(464,0,l),
(534,0,l),
(630,546,l),
(560,546,l),
(539,426,l),
(524,482,o),
(424,554,o),
(346,554,qs),
(271,554,o),
(140,485,o),
(50,358,o),
(35,274,qs)
);
},
{
closed = 1;
nodes = (
(501,207,o),
(429,107,o),
(326,53,o),
(270,53,qs),
(212,53,o),
(130,106,o),
(95,207,o),
(106,274,qs),
(118,342,o),
(189,441,o),
(290,493,o),
(348,493,qs),
(404,493,o),
(487,439,o),
(524,339,o),
(512,273,qs)
);
},
{
closed = 1;
nodes = (
(296,606,l),
(310,651,o),
(346,651,qs),
(359,651,o),
(378,641,o),
(390,630,qs),
(406,617,o),
(431,604,o),
(450,604,qs),
(486,604,o),
(543,653,o),
(555,697,q),
(513,697,l),
(506,675,o),
(478,652,o),
(461,652,qs),
(448,652,o),
(428,663,o),
(415,674,qs),
(399,686,o),
(375,699,o),
(357,699,qs),
(321,699,o),
(267,651,o),
(253,606,q)
);
}
);
width = 675;
}
);
note = atilde;
unicode = 227;
},
{
glyphname = adieresis;
lastChange = "2022-10-20 16:10:08 +0000";
layers = (
{
layerId = m01;
shapes = (
{
closed = 1;
nodes = (
(19,190,o),
(64,62,o),
(170,-8,o),
(244,-8,qs),
(322,-8,o),
(448,65,o),
(484,121,q),
(463,0,l),
(533,0,l),
(629,546,l),
(559,546,l),
(538,426,l),
(523,482,o),
(422,554,o),
(344,554,qs),
(269,554,o),
(138,485,o),
(49,358,o),
(34,274,qs)
);
},
{
closed = 1;
nodes = (
(499,207,o),
(428,107,o),
(325,53,o),
(269,53,qs),
(211,53,o),
(128,106,o),
(93,207,o),
(105,274,qs),
(117,342,o),
(187,441,o),
(289,493,o),
(347,493,qs),
(403,493,o),
(486,439,o),
(522,339,o),
(511,273,qs)
);
},
{
closed = 1;
nodes = (
(330,623,o),
(361,650,o),
(365,669,qs),
(368,688,o),
(346,715,o),
(327,715,qs),
(308,715,o),
(276,688,o),
(273,669,qs),
(269,650,o),
(292,623,o),
(311,623,qs)
);
},
{
closed = 1;
nodes = (
(484,623,o),
(514,650,o),
(518,669,qs),
(521,688,o),
(500,715,o),
(481,715,qs),
(462,715,o),
(430,688,o),
(427,669,qs),
(423,650,o),
(446,623,o),
(465,623,qs)
);
}
);
width = 675;
}
);
note = adieresis;
unicode = 228;
},
{
glyphname = aring;
lastChange = "2022-10-20 16:10:08 +0000";
layers = (
{
layerId = m01;
shapes = (
{
closed = 1;
nodes = (
(11,190,o),
(55,62,o),
(162,-8,o),
(236,-8,qs),
(314,-8,o),
(440,65,o),
(476,121,q),
(454,0,l),
(524,0,l),
(621,546,l),
(551,546,l),
(529,426,l),
(514,482,o),
(414,554,o),
(336,554,qs),
(261,554,o),
(130,485,o),
(40,358,o),
(26,274,qs)
);
},
{
closed = 1;
nodes = (
(491,207,o),
(419,107,o),
(317,53,o),
(261,53,qs),
(203,53,o),
(120,106,o),
(85,207,o),
(97,274,qs),
(109,342,o),
(179,441,o),
(280,493,o),
(338,493,qs),
(394,493,o),
(478,439,o),
(514,339,o),
(502,273,qs)
);
},
{
closed = 1;
nodes = (
(368,810,o),
(299,755,o),
(291,710,qs),
(284,665,o),
(333,610,o),
(376,610,qs),
(420,610,o),
(488,665,o),
(495,710,qs),
(503,755,o),
(455,810,o),
(411,810,qs)
);
},
{
closed = 1;
nodes = (
(358,649,o),
(331,683,o),
(335,710,qs),
(340,738,o),
(379,771,o),
(404,771,qs),
(429,771,o),
(457,738,o),
(452,710,qs),
(448,683,o),
(408,649,o),
(383,649,qs)
);
}
);
width = 675;
}
);
note = aring;
unicode = 229;
},
{
glyphname = ae;
lastChange = "2022-10-20 16:10:08 +0000";
layers = (
{
layerId = m01;
shapes = (
{
closed = 1;
nodes = (
(890,494,o),
(970,450,o),
(1007,362,o),
(994,300,q),
(602,300,l),
(616,361,o),
(688,449,o),
(784,494,o),
(836,494,qs)
);
},
{
closed = 1;
nodes = (
(959,173,l),
(936,117,o),
(829,51,o),
(757,51,qs),
(708,51,o),
(627,95,o),
(584,184,o),
(592,248,q),
(1053,248,l),
(1061,273,o),
(1066,302,qs),
(1078,371,o),
(1037,486,o),
(934,554,o),
(857,554,qs),
(784,554,o),
(658,488,o),
(614,422,q),
(636,546,l),
(577,546,l),
(555,423,l),
(536,484,o),
(437,554,o),
(362,554,qs),
(286,554,o),
(153,485,o),
(63,358,o),
(48,274,qs),
(33,190,o),
(78,62,o),
(184,-8,o),
(259,-8,qs),
(335,-8,o),
(464,66,o),
(501,126,q),
(479,0,l),
(540,0,l),
(562,126,l),
(578,63,o),
(683,-8,o),
(757,-8,qs),
(854,-8,o),
(1002,93,o),
(1035,173,q)
);
},
{
closed = 1;
nodes = (
(131,342,o),
(202,441,o),
(303,493,o),
(361,493,qs),
(417,493,o),
(500,439,o),
(537,339,o),
(525,273,qs),
(513,207,o),
(442,107,o),
(339,53,o),
(283,53,qs),
(225,53,o),
(143,106,o),
(107,207,o),
(119,274,qs)
);
}
);
width = 1108;
}
);
note = ae;
unicode = 230;
},
{
glyphname = ccedilla;
lastChange = "2022-10-20 16:10:08 +0000";
layers = (
{
layerId = m01;
shapes = (
{
closed = 1;
nodes = (
(56,193,o),
(95,70,o),
(191,-1,o),
(260,-7,q),
(241,-112,l),
(287,-112,ls),
(359,-112,o),
(351,-160,qs),
(346,-186,o),
(307,-211,o),
(270,-211,qs),
(184,-211,l),
(175,-258,l),
(275,-258,ls),
(328,-258,o),
(402,-205,o),
(410,-160,qs),
(418,-114,o),
(357,-65,o),
(298,-67,q),
(309,-7,l),
(401,-1,o),
(537,99,o),
(569,178,q),
(494,178,l),
(470,118,o),
(365,51,o),
(296,51,qs),
(241,51,o),
(162,101,o),
(128,201,o),
(141,273,qs),
(154,345,o),
(222,444,o),
(319,494,o),
(374,494,qs),
(443,494,o),
(524,427,o),
(528,368,q),
(603,368,l),
(599,454,o),
(486,554,o),
(385,554,qs),
(308,554,o),
(175,485,o),
(85,358,o),
(70,273,qs)
);
}
);
width = 613;
}
);
note = ccedilla;
unicode = 231;
},
{
glyphname = egrave;
lastChange = "2022-10-20 16:10:08 +0000";
layers = (
{
layerId = m01;
shapes = (
{
closed = 1;
nodes = (
(385,494,o),
(465,450,o),
(501,364,o),
(489,303,q),
(105,303,l),
(127,394,o),
(255,494,o),
(333,494,qs)
);
},
{
closed = 1;
nodes = (
(455,173,l),
(430,117,o),
(326,51,o),
(258,51,qs),
(206,51,o),
(126,96,o),
(87,184,o),
(95,246,q),
(548,246,l),
(554,265,o),
(560,301,qs),
(572,371,o),
(530,486,o),
(425,554,o),
(347,554,qs),
(269,554,o),
(135,486,o),
(44,358,o),
(29,273,qs),
(14,188,o),
(61,61,o),
(170,-8,o),
(247,-8,qs),
(346,-8,o),
(495,93,o),
(529,173,q)
);
},
{
closed = 1;
nodes = (
(255,707,l),
(439,588,l),
(449,642,l),
(267,770,l)
);
}
);
width = 622;
}
);
note = egrave;
unicode = 232;
},
{
glyphname = eacute;
lastChange = "2022-10-20 16:10:08 +0000";
layers = (
{
layerId = m01;
shapes = (
{
closed = 1;
nodes = (
(385,494,o),
(465,450,o),
(501,364,o),
(489,303,q),
(105,303,l),
(127,394,o),
(255,494,o),
(333,494,qs)
);
},
{
closed = 1;
nodes = (
(455,173,l),
(430,117,o),
(326,51,o),
(258,51,qs),
(206,51,o),
(126,96,o),
(87,184,o),
(95,246,q),
(548,246,l),
(554,265,o),
(560,301,qs),
(572,371,o),
(530,486,o),
(425,554,o),
(347,554,qs),
(269,554,o),
(135,486,o),
(44,358,o),
(29,273,qs),
(14,188,o),
(61,61,o),
(170,-8,o),
(247,-8,qs),
(346,-8,o),
(495,93,o),
(529,173,q)
);
},
{
closed = 1;
nodes = (
(244,642,l),
(234,588,l),
(460,707,l),
(472,770,l)
);
}
);
width = 622;
}
);
note = eacute;
unicode = 233;
},
{
glyphname = ecircumflex;
lastChange = "2022-10-20 16:10:08 +0000";
layers = (
{
layerId = m01;
shapes = (
{
closed = 1;
nodes = (
(387,494,o),
(468,450,o),
(503,364,o),
(492,303,q),
(108,303,l),
(130,394,o),
(257,494,o),
(335,494,qs)
);
},
{
closed = 1;
nodes = (
(458,173,l),
(433,117,o),
(328,51,o),
(260,51,qs),
(208,51,o),
(128,96,o),
(90,184,o),
(98,246,q),
(551,246,l),
(556,265,o),
(562,301,qs),
(575,371,o),
(532,486,o),
(427,554,o),
(349,554,qs),
(271,554,o),
(137,486,o),
(46,358,o),
(31,273,qs),
(16,188,o),
(63,61,o),
(173,-8,o),
(250,-8,qs),
(349,-8,o),
(498,93,o),
(532,173,q)
);
},
{
closed = 1;
nodes = (
(497,661,l),
(377,743,l),
(229,661,l),
(219,604,l),
(368,688,l),
(487,604,l)
);
}
);
width = 622;
}
);
note = ecircumflex;
unicode = 234;
},
{
glyphname = edieresis;
lastChange = "2022-10-20 16:10:08 +0000";
layers = (
{
layerId = m01;
shapes = (
{
closed = 1;
nodes = (
(390,494,o),
(470,450,o),
(506,364,o),
(494,303,q),
(110,303,l),
(132,394,o),
(260,494,o),
(338,494,qs)
);
},
{
closed = 1;
nodes = (
(460,173,l),
(435,117,o),
(331,51,o),
(263,51,qs),
(211,51,o),
(131,96,o),
(92,184,o),
(100,246,q),
(553,246,l),
(558,265,o),
(565,301,qs),
(577,371,o),
(534,486,o),
(429,554,o),
(351,554,qs),
(273,554,o),
(139,486,o),
(49,358,o),
(34,273,qs),
(19,188,o),
(65,61,o),
(175,-8,o),
(252,-8,qs),
(351,-8,o),
(500,93,o),
(534,173,q)
);
},
{
closed = 1;
nodes = (
(302,623,o),
(333,650,o),
(337,669,qs),
(340,688,o),
(318,715,o),
(299,715,qs),
(280,715,o),
(248,688,o),
(245,669,qs),
(241,650,o),
(264,623,o),
(283,623,qs)
);
},
{
closed = 1;
nodes = (
(456,623,o),
(486,650,o),
(490,669,qs),
(493,688,o),
(472,715,o),
(453,715,qs),
(434,715,o),
(402,688,o),
(399,669,qs),
(395,650,o),
(418,623,o),
(437,623,qs)
);
}
);
width = 622;
}
);
note = edieresis;
unicode = 235;
},
{
glyphname = igrave;
lastChange = "2022-10-20 16:10:08 +0000";
layers = (
{
layerId = m01;
shapes = (
{
closed = 1;
nodes = (
(12,0,l),
(82,0,l),
(178,546,l),
(108,546,l)
);
},
{
closed = 1;
nodes = (
(59,707,l),
(243,588,l),
(252,642,l),
(70,770,l)
);
}
);
width = 229;
}
);
note = igrave;
unicode = 236;
},
{
glyphname = iacute;
lastChange = "2022-10-20 16:10:08 +0000";
layers = (
{
layerId = m01;
shapes = (
{
closed = 1;
nodes = (
(12,0,l),
(82,0,l),
(178,546,l),
(108,546,l)
);
},
{
closed = 1;
nodes = (
(47,642,l),
(38,588,l),
(264,707,l),
(275,770,l)
);
}
);
width = 229;
}
);
note = iacute;
unicode = 237;
},
{
glyphname = icircumflex;
lastChange = "2022-10-20 16:10:08 +0000";
layers = (
{
layerId = m01;
shapes = (
{
closed = 1;
nodes = (
(14,0,l),
(84,0,l),
(181,546,l),
(111,546,l)
);
},
{
closed = 1;
nodes = (
(300,661,l),
(181,743,l),
(32,661,l),
(22,604,l),
(171,688,l),
(290,604,l)
);
}
);
width = 229;
}
);
note = icircumflex;
unicode = 238;
},
{
glyphname = idieresis;
lastChange = "2022-10-20 16:10:08 +0000";
layers = (
{
layerId = m01;
shapes = (
{
closed = 1;
nodes = (
(17,0,l),
(87,0,l),
(183,546,l),
(113,546,l)
);
},
{
closed = 1;
nodes = (
(104,623,o),
(136,650,o),
(139,669,qs),
(142,688,o),
(120,715,o),
(101,715,qs),
(82,715,o),
(50,688,o),
(47,669,qs),
(44,650,o),
(66,623,o),
(85,623,qs)
);
},
{
closed = 1;
nodes = (
(258,623,o),
(289,650,o),
(292,669,qs),
(295,688,o),
(274,715,o),
(255,715,qs),
(236,715,o),
(204,688,o),
(201,669,qs),
(198,650,o),
(220,623,o),
(239,623,qs)
);
}
);
width = 229;
}
);
note = idieresis;
unicode = 239;
},
{
glyphname = eth;
lastChange = "2022-10-20 16:10:08 +0000";
layers = (
{
layerId = m01;
shapes = (
{
closed = 1;
nodes = (
(306,640,l),
(299,599,l),
(446,647,l),
(484,597,o),
(522,493,o),
(526,432,q),
(508,494,o),
(415,556,o),
(347,556,qs),
(270,556,o),
(137,488,o),
(47,363,o),
(33,281,qs),
(18,195,o),
(63,64,o),
(172,-8,o),
(252,-8,qs),
(333,-8,o),
(469,64,o),
(564,208,o),
(582,312,qs),
(600,413,o),
(560,587,o),
(500,664,q),
(613,701,l),
(620,742,l),
(476,695,l),
(432,740,l),
(360,740,l),
(402,700,o),
(421,677,q)
);
},
{
closed = 1;
nodes = (
(116,349,o),
(186,447,o),
(286,497,o),
(342,497,qs),
(397,497,o),
(480,445,o),
(517,343,o),
(504,273,qs),
(492,204,o),
(419,103,o),
(317,51,o),
(262,51,qs),
(205,51,o),
(125,105,o),
(91,209,o),
(104,281,qs)
);
}
);
width = 640;
}
);
note = eth;
unicode = 240;
},
{
glyphname = ntilde;
lastChange = "2022-10-20 16:10:08 +0000";
layers = (
{
layerId = m01;
shapes = (
{
closed = 1;
nodes = (
(141,298,ls),
(158,395,o),
(270,495,o),
(349,495,qs),
(426,495,o),
(498,401,o),
(482,312,qs),
(427,0,l),
(496,0,l),
(553,320,ls),
(573,435,o),
(470,556,o),
(372,556,qs),
(310,556,o),
(203,503,o),
(168,453,q),
(185,546,l),
(115,546,l),
(18,0,l),
(88,0,l)
);
},
{
closed = 1;
nodes = (
(266,606,l),
(280,651,o),
(316,651,qs),
(329,651,o),
(348,641,o),
(360,630,qs),
(376,617,o),
(401,604,o),
(420,604,qs),
(456,604,o),
(514,653,o),
(525,697,q),
(483,697,l),
(476,675,o),
(448,652,o),
(431,652,qs),
(418,652,o),
(398,663,o),
(385,674,qs),
(369,686,o),
(346,699,o),
(328,699,qs),
(292,699,o),
(237,651,o),
(223,606,q)
);
}
);
width = 633;
}
);
note = ntilde;
unicode = 241;
},
{
glyphname = ograve;
lastChange = "2022-10-20 16:10:08 +0000";
layers = (
{
layerId = m01;
shapes = (
{
closed = 1;
nodes = (
(590,358,o),
(541,485,o),
(428,554,o),
(351,554,qs),
(274,554,o),
(138,485,o),
(44,358,o),
(29,273,qs),
(14,188,o),
(62,61,o),
(173,-8,o),
(250,-8,qs),
(327,-8,o),
(465,61,o),
(560,189,o),
(575,273,qs)
);
},
{
closed = 1;
nodes = (
(112,345,o),
(185,444,o),
(285,493,o),
(339,493,qs),
(393,493,o),
(477,444,o),
(515,345,o),
(503,273,qs),
(490,201,o),
(415,102,o),
(315,53,o),
(261,53,qs),
(207,53,o),
(124,102,o),
(87,201,o),
(100,273,qs)
);
},
{
closed = 1;
nodes = (
(268,712,l),
(452,593,l),
(461,647,l),
(279,775,l)
);
}
);
width = 642;
}
);
note = ograve;
unicode = 242;
},
{
glyphname = oacute;
lastChange = "2022-10-20 16:10:08 +0000";
layers = (
{
layerId = m01;
shapes = (
{
closed = 1;
nodes = (
(590,358,o),
(541,485,o),
(428,554,o),
(351,554,qs),
(274,554,o),
(138,485,o),
(44,358,o),
(29,273,qs),
(14,188,o),
(62,61,o),
(173,-8,o),
(250,-8,qs),
(327,-8,o),
(465,61,o),
(560,189,o),
(575,273,qs)
);
},
{
closed = 1;
nodes = (
(112,345,o),
(185,444,o),
(285,493,o),
(339,493,qs),
(393,493,o),
(477,444,o),
(515,345,o),
(503,273,qs),
(490,201,o),
(415,102,o),
(315,53,o),
(261,53,qs),
(207,53,o),
(124,102,o),
(87,201,o),
(100,273,qs)
);
},
{
closed = 1;
nodes = (
(256,647,l),
(247,593,l),
(473,712,l),
(484,775,l)
);
}
);
width = 642;
}
);
note = oacute;
unicode = 243;
},
{
glyphname = ocircumflex;
lastChange = "2022-10-20 16:10:08 +0000";
layers = (
{
layerId = m01;
shapes = (
{
closed = 1;
nodes = (
(592,358,o),
(543,485,o),
(430,554,o),
(353,554,qs),
(276,554,o),
(140,485,o),
(46,358,o),
(31,273,qs),
(16,188,o),
(65,61,o),
(175,-8,o),
(252,-8,qs),
(329,-8,o),
(468,61,o),
(562,189,o),
(577,273,qs)
);
},
{
closed = 1;
nodes = (
(115,345,o),
(187,444,o),
(288,493,o),
(342,493,qs),
(396,493,o),
(479,444,o),
(518,345,o),
(505,273,qs),
(492,201,o),
(418,102,o),
(317,53,o),
(263,53,qs),
(209,53,o),
(127,102,o),
(89,201,o),
(102,273,qs)
);
},
{
closed = 1;
nodes = (
(509,666,l),
(390,748,l),
(241,666,l),
(231,609,l),
(380,693,l),
(499,609,l)
);
}
);
width = 642;
}
);
note = ocircumflex;
unicode = 244;
},
{
glyphname = otilde;
lastChange = "2022-10-20 16:10:08 +0000";
layers = (
{
layerId = m01;
shapes = (
{
closed = 1;
nodes = (
(596,358,o),
(547,485,o),
(434,554,o),
(357,554,qs),
(280,554,o),
(144,485,o),
(50,358,o),
(35,273,qs),
(20,188,o),
(68,61,o),
(179,-8,o),
(256,-8,qs),
(333,-8,o),
(471,61,o),
(566,189,o),
(581,273,qs)
);
},
{
closed = 1;
nodes = (
(118,345,o),
(191,444,o),
(292,493,o),
(346,493,qs),
(400,493,o),
(483,444,o),
(521,345,o),
(509,273,qs),
(496,201,o),
(422,102,o),
(321,53,o),
(267,53,qs),
(213,53,o),
(131,102,o),
(93,201,o),
(106,273,qs)
);
},
{
closed = 1;
nodes = (
(280,611,l),
(294,656,o),
(330,656,qs),
(343,656,o),
(363,646,o),
(375,635,qs),
(390,622,o),
(415,609,o),
(434,609,qs),
(470,609,o),
(528,658,o),
(539,702,q),
(497,702,l),
(491,680,o),
(462,657,o),
(445,657,qs),
(432,657,o),
(412,668,o),
(399,679,qs),
(383,691,o),
(360,704,o),
(342,704,qs),
(306,704,o),
(251,656,o),
(237,611,q)
);
}
);
width = 642;
}
);
note = otilde;
unicode = 245;
},
{
glyphname = odieresis;
lastChange = "2022-10-20 16:10:08 +0000";
layers = (
{
layerId = m01;
shapes = (
{
closed = 1;
nodes = (
(594,358,o),
(546,485,o),
(433,554,o),
(356,554,qs),
(279,554,o),
(143,485,o),
(48,358,o),
(33,273,qs),
(18,188,o),
(67,61,o),
(178,-8,o),
(255,-8,qs),
(332,-8,o),
(470,61,o),
(565,189,o),
(579,273,qs)
);
},
{
closed = 1;
nodes = (
(117,345,o),
(190,444,o),
(290,493,o),
(344,493,qs),
(398,493,o),
(482,444,o),
(520,345,o),
(507,273,qs),
(495,201,o),
(420,102,o),
(320,53,o),
(266,53,qs),
(212,53,o),
(129,102,o),
(92,201,o),
(104,273,qs)
);
},
{
closed = 1;
nodes = (
(313,628,o),
(345,655,o),
(348,674,qs),
(351,693,o),
(329,720,o),
(310,720,qs),
(291,720,o),
(259,693,o),
(256,674,qs),
(253,655,o),
(275,628,o),
(294,628,qs)
);
},
{
closed = 1;
nodes = (
(467,628,o),
(498,655,o),
(501,674,qs),
(504,693,o),
(483,720,o),
(464,720,qs),
(445,720,o),
(413,693,o),
(410,674,qs),
(407,655,o),
(429,628,o),
(448,628,qs)
);
}
);
width = 642;
}
);
note = odieresis;
unicode = 246;
},
{
glyphname = divide;
lastChange = "2022-10-20 16:10:08 +0000";
layers = (
{
layerId = m01;
shapes = (
{
closed = 1;
nodes = (
(62,341,l),
(571,341,l),
(581,400,l),
(72,400,l)
);
},
{
closed = 1;
nodes = (
(340,179,o),
(316,208,o),
(295,208,qs),
(273,208,o),
(239,179,o),
(235,157,qs),
(231,135,o),
(255,105,o),
(277,105,qs),
(298,105,o),
(332,135,o),
(336,157,qs)
);
},
{
closed = 1;
nodes = (
(416,608,o),
(392,637,o),
(371,637,qs),
(349,637,o),
(315,608,o),
(311,586,qs),
(307,564,o),
(331,534,o),
(353,534,qs),
(374,534,o),
(408,564,o),
(412,586,qs)
);
}
);
width = 637;
}
);
note = divide;
unicode = 247;
},
{
glyphname = oslash;
lastChange = "2022-10-20 16:10:08 +0000";
layers = (
{
layerId = m01;
shapes = (
{
closed = 1;
nodes = (
(615,391,o),
(559,468,q),
(644,546,l),
(592,546,l),
(536,495,l),
(474,554,o),
(371,554,qs),
(294,554,o),
(157,485,o),
(63,358,o),
(48,273,qs),
(37,213,o),
(56,114,o),
(82,77,q),
(-1,0,l),
(52,0,l),
(106,50,l),
(169,-8,o),
(269,-8,qs),
(346,-8,o),
(485,61,o),
(579,189,o),
(594,273,qs)
);
},
{
closed = 1;
nodes = (
(132,345,o),
(204,444,o),
(305,493,o),
(359,493,qs),
(438,493,o),
(484,446,q),
(136,127,l),
(103,185,o),
(119,273,qs)
);
},
{
closed = 1;
nodes = (
(204,53,o),
(158,98,q),
(504,417,l),
(538,361,o),
(522,273,qs),
(509,201,o),
(435,102,o),
(334,53,o),
(280,53,qs)
);
}
);
width = 642;
}
);
note = oslash;
unicode = 248;
},
{
glyphname = ugrave;
lastChange = "2022-10-20 16:10:08 +0000";
layers = (
{
layerId = m01;
shapes = (
{
closed = 1;
nodes = (
(582,546,l),
(512,546,l),
(460,249,ls),
(443,152,o),
(331,52,o),
(252,52,qs),
(175,52,o),
(103,146,o),
(118,235,qs),
(173,546,l),
(104,546,l),
(48,227,ls),
(28,112,o),
(130,-9,o),
(228,-9,qs),
(290,-9,o),
(400,45,o),
(433,96,q),
(416,0,l),
(486,0,l)
);
},
{
closed = 1;
nodes = (
(262,707,l),
(446,588,l),
(455,642,l),
(273,770,l)
);
}
);
width = 633;
}
);
note = ugrave;
unicode = 249;
},
{
glyphname = uacute;
lastChange = "2022-10-20 16:10:08 +0000";
layers = (
{
layerId = m01;
shapes = (
{
closed = 1;
nodes = (
(582,546,l),
(512,546,l),
(460,249,ls),
(443,152,o),
(331,52,o),
(252,52,qs),
(175,52,o),
(103,146,o),
(118,235,qs),
(173,546,l),
(104,546,l),
(48,227,ls),
(28,112,o),
(130,-9,o),
(228,-9,qs),
(290,-9,o),
(400,45,o),
(433,96,q),
(416,0,l),
(486,0,l)
);
},
{
closed = 1;
nodes = (
(250,642,l),
(241,588,l),
(467,707,l),
(478,770,l)
);
}
);
width = 633;
}
);
note = uacute;
unicode = 250;
},
{
glyphname = ucircumflex;
lastChange = "2022-10-20 16:10:08 +0000";
layers = (
{
layerId = m01;
shapes = (
{
closed = 1;
nodes = (
(585,546,l),
(515,546,l),
(462,249,ls),
(445,152,o),
(333,52,o),
(254,52,qs),
(177,52,o),
(105,146,o),
(121,235,qs),
(176,546,l),
(107,546,l),
(50,227,ls),
(30,112,o),
(133,-9,o),
(231,-9,qs),
(293,-9,o),
(402,45,o),
(435,96,q),
(418,0,l),
(488,0,l)
);
},
{
closed = 1;
nodes = (
(503,661,l),
(383,743,l),
(235,661,l),
(225,604,l),
(374,688,l),
(493,604,l)
);
}
);
width = 633;
}
);
note = ucircumflex;
unicode = 251;
},
{
glyphname = udieresis;
lastChange = "2022-10-20 16:10:08 +0000";
layers = (
{
layerId = m01;
shapes = (
{
closed = 1;
nodes = (
(587,546,l),
(517,546,l),
(465,249,ls),
(448,152,o),
(336,52,o),
(257,52,qs),
(180,52,o),
(108,146,o),
(123,235,qs),
(178,546,l),
(109,546,l),
(53,227,ls),
(33,112,o),
(135,-9,o),
(233,-9,qs),
(295,-9,o),
(405,45,o),
(438,96,q),
(421,0,l),
(491,0,l)
);
},
{
closed = 1;
nodes = (
(308,623,o),
(339,650,o),
(343,669,qs),
(346,688,o),
(324,715,o),
(305,715,qs),
(286,715,o),
(254,688,o),
(251,669,qs),
(247,650,o),
(270,623,o),
(289,623,qs)
);
},
{
closed = 1;
nodes = (
(462,623,o),
(492,650,o),
(496,669,qs),
(499,688,o),
(478,715,o),
(459,715,qs),
(440,715,o),
(408,688,o),
(405,669,qs),
(401,650,o),
(424,623,o),
(443,623,qs)
);
}
);
width = 633;
}
);
note = udieresis;
unicode = 252;
},
{
glyphname = yacute;
lastChange = "2022-10-20 16:10:08 +0000";
layers = (
{
layerId = m01;
shapes = (
{
closed = 1;
nodes = (
(247,80,l),
(143,546,l),
(66,546,l),
(194,3,l),
(42,-257,l),
(115,-257,l),
(581,546,l),
(509,546,l)
);
},
{
closed = 1;
nodes = (
(228,642,l),
(218,588,l),
(444,707,l),
(456,770,l)
);
}
);
width = 545;
}
);
note = yacute;
unicode = 253;
},
{
glyphname = thorn;
lastChange = "2022-10-20 16:10:08 +0000";
layers = (
{
layerId = m01;
shapes = (
{
closed = 1;
nodes = (
(237,740,l),
(168,740,l),
(-8,-258,l),
(61,-258,l),
(130,136,l),
(144,71,o),
(243,-8,o),
(322,-8,qs),
(396,-8,o),
(527,62,o),
(617,190,o),
(632,274,qs),
(647,358,o),
(602,485,o),
(495,554,o),
(421,554,qs),
(342,554,o),
(215,476,o),
(179,412,q)
);
},
{
closed = 1;
nodes = (
(549,207,o),
(478,106,o),
(377,53,o),
(319,53,qs),
(263,53,o),
(179,107,o),
(143,207,o),
(155,273,qs),
(166,339,o),
(238,439,o),
(340,493,o),
(396,493,qs),
(454,493,o),
(537,441,o),
(573,342,o),
(561,274,qs)
);
}
);
width = 675;
}
);
note = thorn;
unicode = 254;
},
{
glyphname = ydieresis;
lastChange = "2022-10-20 16:10:08 +0000";
layers = (
{
layerId = m01;
shapes = (
{
closed = 1;
nodes = (
(252,80,l),
(148,546,l),
(71,546,l),
(199,3,l),
(47,-257,l),
(120,-257,l),
(586,546,l),
(514,546,l)
);
},
{
closed = 1;
nodes = (
(285,623,o),
(317,650,o),
(321,669,qs),
(324,688,o),
(302,715,o),
(283,715,qs),
(264,715,o),
(232,688,o),
(229,669,qs),
(225,650,o),
(247,623,o),
(266,623,qs)
);
},
{
closed = 1;
nodes = (
(439,623,o),
(470,650,o),
(474,669,qs),
(477,688,o),
(456,715,o),
(437,715,qs),
(418,715,o),
(386,688,o),
(383,669,qs),
(379,650,o),
(401,623,o),
(420,623,qs)
);
}
);
width = 545;
}
);
note = ydieresis;
unicode = 255;
},
{
glyphname = Amacron;
lastChange = "2022-10-20 16:10:08 +0000";
layers = (
{
layerId = m01;
shapes = (
{
closed = 1;
nodes = (
(472,0,l),
(546,0,l),
(413,690,l),
(334,690,l),
(-42,0,l),
(32,0,l),
(122,166,l),
(440,166,l)
);
},
{
closed = 1;
nodes = (
(222,790,l),
(561,790,l),
(570,844,l),
(231,844,l)
);
},
{
closed = 1;
nodes = (
(429,224,l),
(153,224,l),
(358,602,l)
);
}
);
width = 652;
}
);
note = Amacron;
unicode = 256;
},
{
glyphname = amacron;
lastChange = "2022-10-20 16:10:08 +0000";
layers = (
{
layerId = m01;
shapes = (
{
closed = 1;
nodes = (
(20,190,o),
(65,62,o),
(172,-8,o),
(246,-8,qs),
(324,-8,o),
(449,65,o),
(485,121,q),
(464,0,l),
(534,0,l),
(630,546,l),
(560,546,l),
(539,426,l),
(524,482,o),
(424,554,o),
(346,554,qs),
(271,554,o),
(140,485,o),
(50,358,o),
(35,274,qs)
);
},
{
closed = 1;
nodes = (
(500,207,o),
(429,107,o),
(326,53,o),
(270,53,qs),
(212,53,o),
(130,106,o),
(94,207,o),
(106,274,qs),
(118,342,o),
(189,441,o),
(290,493,o),
(348,493,qs),
(404,493,o),
(487,439,o),
(524,339,o),
(512,273,qs)
);
},
{
closed = 1;
nodes = (
(222,646,l),
(561,646,l),
(570,700,l),
(231,700,l)
);
}
);
width = 675;
}
);
note = amacron;
unicode = 257;
},
{
glyphname = Abreve;
lastChange = "2022-10-20 16:10:08 +0000";
layers = (
{
layerId = m01;
shapes = (
{
closed = 1;
nodes = (
(468,0,l),
(542,0,l),
(410,690,l),
(331,690,l),
(-46,0,l),
(28,0,l),
(118,166,l),
(436,166,l)
);
},
{
closed = 1;
nodes = (
(540,886,l),
(495,886,l),
(481,806,o),
(390,806,qs),
(299,806,o),
(313,886,q),
(269,886,l),
(267,873,ls),
(257,820,o),
(315,750,o),
(380,750,qs),
(445,750,o),
(528,820,o),
(538,873,qs)
);
},
{
closed = 1;
nodes = (
(425,224,l),
(149,224,l),
(354,602,l)
);
}
);
width = 652;
}
);
note = Abreve;
unicode = 258;
},
{
glyphname = abreve;
lastChange = "2022-10-20 16:10:08 +0000";
layers = (
{
layerId = m01;
shapes = (
{
closed = 1;
nodes = (
(17,190,o),
(61,62,o),
(168,-8,o),
(242,-8,qs),
(320,-8,o),
(446,65,o),
(482,121,q),
(460,0,l),
(530,0,l),
(627,546,l),
(557,546,l),
(535,426,l),
(520,482,o),
(420,554,o),
(342,554,qs),
(267,554,o),
(136,485,o),
(46,358,o),
(32,274,qs)
);
},
{
closed = 1;
nodes = (
(497,207,o),
(425,107,o),
(323,53,o),
(267,53,qs),
(209,53,o),
(126,106,o),
(91,207,o),
(103,274,qs),
(115,342,o),
(185,441,o),
(286,493,o),
(344,493,qs),
(400,493,o),
(484,439,o),
(520,339,o),
(508,273,qs)
);
},
{
closed = 1;
nodes = (
(541,742,l),
(496,742,l),
(482,662,o),
(391,662,qs),
(300,662,o),
(314,742,q),
(270,742,l),
(268,729,ls),
(258,676,o),
(316,606,o),
(381,606,qs),
(446,606,o),
(529,676,o),
(539,729,qs)
);
}
);
width = 675;
}
);
note = abreve;
unicode = 259;
},
{
glyphname = Aogonek;
lastChange = "2022-10-20 16:10:08 +0000";
layers = (
{
layerId = m01;
shapes = (
{
closed = 1;
nodes = (
(366,690,l),
(-11,0,l),
(63,0,l),
(153,166,l),
(471,166,l),
(501,11,l),
(390,-36,o),
(377,-109,qs),
(368,-156,o),
(425,-201,o),
(473,-201,qs),
(509,-201,o),
(548,-188,q),
(556,-139,l),
(520,-153,o),
(489,-153,qs),
(461,-153,o),
(433,-126,o),
(437,-102,qs),
(441,-81,o),
(476,-45,o),
(513,-29,qs),
(577,0,l),
(445,690,l)
);
},
{
closed = 1;
nodes = (
(460,224,l),
(184,224,l),
(389,602,l)
);
}
);
width = 652;
}
);
note = Aogonek;
unicode = 260;
},
{
glyphname = aogonek;
lastChange = "2022-10-20 16:10:08 +0000";
layers = (
{
layerId = m01;
shapes = (
{
closed = 1;
nodes = (
(50,190,o),
(95,62,o),
(201,-8,o),
(275,-8,qs),
(353,-8,o),
(479,65,o),
(515,121,q),
(497,15,l),
(492,13,ls),
(376,-36,o),
(363,-109,qs),
(354,-156,o),
(411,-201,o),
(459,-201,qs),
(495,-201,o),
(534,-188,q),
(542,-139,l),
(506,-153,o),
(476,-153,qs),
(448,-153,o),
(419,-126,o),
(423,-102,qs),
(430,-60,o),
(499,-29,qs),
(564,0,l),
(660,546,l),
(590,546,l),
(569,426,l),
(554,482,o),
(454,554,o),
(376,554,qs),
(301,554,o),
(169,485,o),
(80,358,o),
(65,274,qs)
);
},
{
closed = 1;
nodes = (
(530,207,o),
(459,107,o),
(356,53,o),
(300,53,qs),
(242,53,o),
(160,106,o),
(124,207,o),
(136,274,qs),
(148,342,o),
(219,441,o),
(320,493,o),
(378,493,qs),
(434,493,o),
(517,439,o),
(554,339,o),
(542,273,qs)
);
}
);
width = 675;
}
);
note = aogonek;
unicode = 261;
},
{
glyphname = Cacute;
lastChange = "2022-10-20 16:10:08 +0000";
layers = (
{
layerId = m01;
shapes = (
{
closed = 1;
nodes = (
(11,247,o),
(73,85,o),
(213,-6,o),
(309,-6,qs),
(425,-6,o),
(612,104,o),
(668,204,q),
(586,204,l),
(543,134,o),
(406,55,o),
(319,55,qs),
(242,55,o),
(132,127,o),
(86,261,o),
(101,350,qs),
(117,439,o),
(211,574,o),
(347,646,o),
(424,646,qs),
(511,646,o),
(619,566,o),
(637,495,q),
(719,495,l),
(699,596,o),
(551,707,o),
(434,707,qs),
(338,707,o),
(166,616,o),
(47,453,o),
(29,350,qs)
);
},
{
closed = 1;
nodes = (
(347,790,l),
(337,736,l),
(563,855,l),
(574,918,l)
);
}
);
width = 771;
}
);
note = Cacute;
unicode = 262;
},
{
glyphname = cacute;
lastChange = "2022-10-20 16:10:08 +0000";
layers = (
{
layerId = m01;
shapes = (
{
closed = 1;
nodes = (
(14,188,o),
(60,61,o),
(167,-8,o),
(244,-8,qs),
(344,-8,o),
(494,94,o),
(528,178,q),
(453,178,l),
(429,118,o),
(324,51,o),
(255,51,qs),
(200,51,o),
(121,101,o),
(87,201,o),
(100,273,qs),
(113,345,o),
(181,444,o),
(278,494,o),
(333,494,qs),
(402,494,o),
(483,427,o),
(487,368,q),
(562,368,l),
(558,454,o),
(445,554,o),
(344,554,qs),
(267,554,o),
(134,485,o),
(44,358,o),
(29,273,qs)
);
},
{
closed = 1;
nodes = (
(241,642,l),
(231,588,l),
(457,707,l),
(469,770,l)
);
}
);
width = 613;
}
);
note = cacute;
unicode = 263;
},
{
glyphname = Cdotaccent;
lastChange = "2022-10-20 16:10:08 +0000";
layers = (
{
layerId = m01;
shapes = (
{
closed = 1;
nodes = (
(17,247,o),
(78,85,o),
(218,-6,o),
(314,-6,qs),
(430,-6,o),
(618,104,o),
(673,204,q),
(591,204,l),
(549,134,o),
(412,55,o),
(325,55,qs),
(248,55,o),
(138,127,o),
(91,261,o),
(107,350,qs),
(123,439,o),
(217,574,o),
(352,646,o),
(429,646,qs),
(516,646,o),
(625,566,o),
(643,495,q),
(725,495,l),
(704,596,o),
(557,707,o),
(440,707,qs),
(344,707,o),
(172,616,o),
(53,453,o),
(35,350,qs)
);
},
{
closed = 1;
nodes = (
(480,761,o),
(511,788,o),
(515,807,qs),
(518,826,o),
(496,853,o),
(477,853,qs),
(458,853,o),
(426,826,o),
(423,807,qs),
(419,788,o),
(442,761,o),
(461,761,qs)
);
}
);
width = 771;
}
);
note = Cdotaccent;
unicode = 266;
},
{
glyphname = cdotaccent;
lastChange = "2022-10-20 16:10:08 +0000";
layers = (
{
layerId = m01;
shapes = (
{
closed = 1;
nodes = (
(20,188,o),
(65,61,o),
(173,-8,o),
(250,-8,qs),
(350,-8,o),
(500,94,o),
(534,178,q),
(459,178,l),
(434,118,o),
(330,51,o),
(261,51,qs),
(206,51,o),
(126,101,o),
(93,201,o),
(106,273,qs),
(118,345,o),
(187,444,o),
(284,494,o),
(339,494,qs),
(408,494,o),
(489,427,o),
(492,368,q),
(567,368,l),
(564,454,o),
(450,554,o),
(349,554,qs),
(272,554,o),
(140,485,o),
(50,358,o),
(35,273,qs)
);
},
{
closed = 1;
nodes = (
(374,613,o),
(405,640,o),
(409,659,qs),
(412,678,o),
(390,705,o),
(371,705,qs),
(352,705,o),
(320,678,o),
(317,659,qs),
(313,640,o),
(336,613,o),
(355,613,qs)
);
}
);
width = 613;
}
);
note = cdotaccent;
unicode = 267;
},
{
glyphname = Ccaron;
lastChange = "2022-10-20 16:10:08 +0000";
layers = (
{
layerId = m01;
shapes = (
{
closed = 1;
nodes = (
(14,247,o),
(75,85,o),
(215,-6,o),
(311,-6,qs),
(427,-6,o),
(614,104,o),
(670,204,q),
(588,204,l),
(546,134,o),
(409,55,o),
(322,55,qs),
(245,55,o),
(135,127,o),
(88,261,o),
(104,350,qs),
(120,439,o),
(213,574,o),
(349,646,o),
(426,646,qs),
(513,646,o),
(622,566,o),
(639,495,q),
(721,495,l),
(701,596,o),
(554,707,o),
(437,707,qs),
(341,707,o),
(169,616,o),
(50,453,o),
(32,350,qs)
);
},
{
closed = 1;
nodes = (
(465,806,l),
(346,889,l),
(336,833,l),
(456,751,l),
(604,833,l),
(614,889,l)
);
}
);
width = 771;
}
);
note = Ccaron;
unicode = 268;
},
{
glyphname = ccaron;
lastChange = "2022-10-20 16:10:08 +0000";
layers = (
{
layerId = m01;
shapes = (
{
closed = 1;
nodes = (
(17,188,o),
(62,61,o),
(170,-8,o),
(247,-8,qs),
(347,-8,o),
(497,94,o),
(531,178,q),
(456,178,l),
(431,118,o),
(326,51,o),
(257,51,qs),
(202,51,o),
(123,101,o),
(90,201,o),
(103,273,qs),
(115,345,o),
(184,444,o),
(280,494,o),
(335,494,qs),
(404,494,o),
(486,427,o),
(489,368,q),
(564,368,l),
(560,454,o),
(447,554,o),
(346,554,qs),
(269,554,o),
(137,485,o),
(47,358,o),
(32,273,qs)
);
},
{
closed = 1;
nodes = (
(359,658,l),
(240,741,l),
(230,685,l),
(350,603,l),
(498,685,l),
(508,741,l)
);
}
);
width = 613;
}
);
note = ccaron;
unicode = 269;
},
{
glyphname = Dcaron;
lastChange = "2022-10-20 16:10:08 +0000";
layers = (
{
layerId = m01;
shapes = (
{
closed = 1;
nodes = (
(125,699,l),
(2,0,l),
(209,0,ls),
(325,0,o),
(506,83,o),
(621,240,o),
(640,348,qs),
(660,457,o),
(599,615,o),
(448,699,o),
(332,699,qs)
);
},
{
closed = 1;
nodes = (
(82,58,l),
(185,641,l),
(322,641,ls),
(468,641,o),
(594,486,o),
(569,348,qs),
(545,211,o),
(365,58,o),
(219,58,qs)
);
},
{
closed = 1;
nodes = (
(411,802,l),
(292,885,l),
(282,829,l),
(402,747,l),
(550,829,l),
(560,885,l)
);
}
);
width = 706;
}
);
note = Dcaron;
unicode = 270;
},
{
glyphname = dcaron;
lastChange = "2022-10-20 16:10:08 +0000";
layers = (
{
layerId = m01;
shapes = (
{
closed = 1;
nodes = (
(714,740,l),
(701,664,l),
(747,664,l),
(742,639,ls),
(738,613,o),
(711,588,o),
(686,588,q),
(680,552,l),
(726,552,o),
(780,601,o),
(790,655,qs),
(797,693,o),
(795,740,q)
);
},
{
closed = 1;
nodes = (
(17,190,o),
(61,62,o),
(168,-8,o),
(243,-8,qs),
(320,-8,o),
(447,65,o),
(482,122,q),
(460,0,l),
(530,0,l),
(661,740,l),
(591,740,l),
(536,428,l),
(519,484,o),
(415,554,o),
(343,554,qs),
(268,554,o),
(137,485,o),
(47,358,o),
(32,274,qs)
);
},
{
closed = 1;
nodes = (
(497,207,o),
(425,107,o),
(323,53,o),
(267,53,qs),
(209,53,o),
(126,106,o),
(91,207,o),
(103,274,qs),
(115,342,o),
(185,441,o),
(286,493,o),
(344,493,qs),
(400,493,o),
(484,439,o),
(520,339,o),
(509,273,qs)
);
}
);
width = 730;
}
);
note = dcaron;
unicode = 271;
},
{
glyphname = Dcroat;
lastChange = "2022-10-20 16:10:08 +0000";
layers = (
{
layerId = m01;
shapes = (
{
closed = 1;
nodes = (
(166,699,l),
(110,381,l),
(15,381,l),
(3,316,l),
(98,316,l),
(42,0,l),
(250,0,ls),
(366,0,o),
(547,83,o),
(663,240,o),
(682,348,qs),
(701,457,o),
(641,615,o),
(490,699,o),
(374,699,qs)
);
},
{
closed = 1;
nodes = (
(123,55,l),
(169,316,l),
(373,316,l),
(385,381,l),
(181,381,l),
(227,642,l),
(364,642,ls),
(509,642,o),
(634,486,o),
(610,348,qs),
(585,210,o),
(405,55,o),
(260,55,qs)
);
}
);
width = 730;
}
);
note = Dcroat;
unicode = 272;
},
{
glyphname = dcroat;
lastChange = "2022-10-20 16:10:08 +0000";
layers = (
{
layerId = m01;
shapes = (
{
closed = 1;
nodes = (
(17,190,o),
(61,62,o),
(168,-8,o),
(243,-8,qs),
(320,-8,o),
(447,65,o),
(482,122,q),
(460,0,l),
(530,0,l),
(639,618,l),
(702,618,l),
(710,662,l),
(647,662,l),
(661,740,l),
(591,740,l),
(577,662,l),
(437,662,l),
(429,618,l),
(569,618,l),
(536,428,l),
(519,484,o),
(415,554,o),
(343,554,qs),
(268,554,o),
(137,485,o),
(47,358,o),
(32,274,qs)
);
},
{
closed = 1;
nodes = (
(497,207,o),
(425,107,o),
(323,53,o),
(267,53,qs),
(209,53,o),
(126,106,o),
(91,207,o),
(103,274,qs),
(115,342,o),
(185,441,o),
(286,493,o),
(344,493,qs),
(400,493,o),
(484,439,o),
(520,339,o),
(509,273,qs)
);
}
);
width = 671;
}
);
note = dcroat;
unicode = 273;
},
{
glyphname = Emacron;
lastChange = "2022-10-20 16:10:08 +0000";
layers = (
{
layerId = m01;
shapes = (
{
closed = 1;
nodes = (
(494,700,l),
(129,700,l),
(6,0,l),
(371,0,l),
(381,58,l),
(86,58,l),
(133,323,l),
(398,323,l),
(408,381,l),
(143,381,l),
(189,642,l),
(484,642,l)
);
},
{
closed = 1;
nodes = (
(143,790,l),
(482,790,l),
(491,844,l),
(152,844,l)
);
}
);
width = 503;
}
);
note = Emacron;
unicode = 274;
},
{
glyphname = emacron;
lastChange = "2022-10-20 16:10:08 +0000";
layers = (
{
layerId = m01;
shapes = (
{
closed = 1;
nodes = (
(391,494,o),
(471,450,o),
(507,364,o),
(495,303,q),
(111,303,l),
(133,394,o),
(261,494,o),
(339,494,qs)
);
},
{
closed = 1;
nodes = (
(461,173,l),
(437,117,o),
(332,51,o),
(264,51,qs),
(212,51,o),
(132,96,o),
(93,184,o),
(101,246,q),
(554,246,l),
(560,265,o),
(566,301,qs),
(578,371,o),
(536,486,o),
(431,554,o),
(353,554,qs),
(275,554,o),
(141,486,o),
(50,358,o),
(35,273,qs),
(20,188,o),
(67,61,o),
(177,-8,o),
(254,-8,qs),
(353,-8,o),
(501,93,o),
(535,173,q)
);
},
{
closed = 1;
nodes = (
(194,646,l),
(533,646,l),
(542,700,l),
(203,700,l)
);
}
);
width = 622;
}
);
note = emacron;
unicode = 275;
},
{
glyphname = Ebreve;
lastChange = "2022-10-20 16:10:08 +0000";
layers = (
{
layerId = m01;
shapes = (
{
closed = 1;
nodes = (
(490,700,l),
(125,700,l),
(2,0,l),
(367,0,l),
(377,58,l),
(82,58,l),
(129,323,l),
(394,323,l),
(404,381,l),
(139,381,l),
(185,642,l),
(480,642,l)
);
},
{
closed = 1;
nodes = (
(462,886,l),
(417,886,l),
(403,806,o),
(312,806,qs),
(221,806,o),
(235,886,q),
(191,886,l),
(189,873,ls),
(179,820,o),
(237,750,o),
(302,750,qs),
(367,750,o),
(450,820,o),
(460,873,qs)
);
}
);
width = 503;
}
);
note = Ebreve;
unicode = 276;
},
{
glyphname = ebreve;
lastChange = "2022-10-20 16:10:08 +0000";
layers = (
{
layerId = m01;
shapes = (
{
closed = 1;
nodes = (
(387,494,o),
(468,450,o),
(503,364,o),
(492,303,q),
(108,303,l),
(130,394,o),
(257,494,o),
(335,494,qs)
);
},
{
closed = 1;
nodes = (
(458,173,l),
(433,117,o),
(328,51,o),
(260,51,qs),
(208,51,o),
(128,96,o),
(90,184,o),
(98,246,q),
(551,246,l),
(556,265,o),
(562,301,qs),
(575,371,o),
(532,486,o),
(427,554,o),
(349,554,qs),
(271,554,o),
(137,486,o),
(46,358,o),
(31,273,qs),
(16,188,o),
(63,61,o),
(173,-8,o),
(250,-8,qs),
(349,-8,o),
(498,93,o),
(532,173,q)
);
},
{
closed = 1;
nodes = (
(513,742,l),
(468,742,l),
(454,662,o),
(363,662,qs),
(272,662,o),
(286,742,q),
(242,742,l),
(240,729,ls),
(230,676,o),
(288,606,o),
(353,606,qs),
(418,606,o),
(501,676,o),
(511,729,qs)
);
}
);
width = 622;
}
);
note = ebreve;
unicode = 277;
},
{
glyphname = Edotaccent;
lastChange = "2022-10-20 16:10:08 +0000";
layers = (
{
layerId = m01;
shapes = (
{
closed = 1;
nodes = (
(494,700,l),
(129,700,l),
(5,0,l),
(370,0,l),
(380,58,l),
(85,58,l),
(132,323,l),
(397,323,l),
(407,381,l),
(142,381,l),
(188,642,l),
(483,642,l)
);
},
{
closed = 1;
nodes = (
(326,757,o),
(357,784,o),
(361,803,qs),
(364,822,o),
(342,849,o),
(323,849,qs),
(304,849,o),
(272,822,o),
(269,803,qs),
(265,784,o),
(288,757,o),
(307,757,qs)
);
}
);
width = 503;
}
);
note = Edotaccent;
unicode = 278;
},
{
glyphname = edotaccent;
lastChange = "2022-10-20 16:10:08 +0000";
layers = (
{
layerId = m01;
shapes = (
{
closed = 1;
nodes = (
(391,494,o),
(471,450,o),
(507,364,o),
(495,303,q),
(111,303,l),
(133,394,o),
(261,494,o),
(339,494,qs)
);
},
{
closed = 1;
nodes = (
(461,173,l),
(436,117,o),
(332,51,o),
(264,51,qs),
(212,51,o),
(131,96,o),
(93,184,o),
(101,246,q),
(554,246,l),
(559,265,o),
(566,301,qs),
(578,371,o),
(535,486,o),
(430,554,o),
(352,554,qs),
(274,554,o),
(140,486,o),
(50,358,o),
(35,273,qs),
(20,188,o),
(66,61,o),
(176,-8,o),
(253,-8,qs),
(352,-8,o),
(501,93,o),
(535,173,q)
);
},
{
closed = 1;
nodes = (
(377,613,o),
(408,640,o),
(412,659,qs),
(415,678,o),
(393,705,o),
(374,705,qs),
(355,705,o),
(323,678,o),
(320,659,qs),
(316,640,o),
(339,613,o),
(358,613,qs)
);
}
);
width = 622;
}
);
note = edotaccent;
unicode = 279;
},
{
glyphname = Eogonek;
lastChange = "2022-10-20 16:10:08 +0000";
layers = (
{
layerId = m01;
shapes = (
{
closed = 1;
nodes = (
(524,700,l),
(159,700,l),
(36,0,l),
(301,0,l),
(211,-46,o),
(200,-109,qs),
(191,-156,o),
(249,-201,o),
(297,-201,qs),
(333,-201,o),
(371,-188,q),
(379,-139,l),
(343,-153,o),
(313,-153,qs),
(285,-153,o),
(256,-126,o),
(260,-102,qs),
(267,-60,o),
(336,-29,qs),
(401,0,l),
(411,58,l),
(116,58,l),
(163,323,l),
(428,323,l),
(438,381,l),
(173,381,l),
(219,642,l),
(514,642,l)
);
}
);
width = 503;
}
);
note = Eogonek;
unicode = 280;
},
{
glyphname = eogonek;
lastChange = "2022-10-20 16:10:08 +0000";
layers = (
{
layerId = m01;
shapes = (
{
closed = 1;
nodes = (
(420,494,o),
(500,450,o),
(536,364,o),
(524,303,q),
(140,303,l),
(162,394,o),
(290,494,o),
(368,494,qs)
);
},
{
closed = 1;
nodes = (
(372,-126,l),
(335,-140,o),
(305,-140,qs),
(277,-140,o),
(248,-113,o),
(252,-89,qs),
(259,-47,o),
(328,-16,qs),
(375,5,l),
(441,24,o),
(539,113,o),
(564,173,q),
(490,173,l),
(465,117,o),
(361,51,o),
(293,51,qs),
(241,51,o),
(161,96,o),
(122,184,o),
(130,246,q),
(583,246,l),
(588,265,o),
(595,301,qs),
(607,371,o),
(564,486,o),
(459,554,o),
(381,554,qs),
(303,554,o),
(169,486,o),
(79,358,o),
(64,273,qs),
(50,193,o),
(90,70,o),
(188,-1,o),
(258,-7,q),
(201,-44,o),
(192,-96,qs),
(184,-143,o),
(241,-188,o),
(289,-188,qs),
(325,-188,o),
(363,-175,q)
);
}
);
width = 622;
}
);
note = eogonek;
unicode = 281;
},
{
glyphname = Ecaron;
lastChange = "2022-10-20 16:10:08 +0000";
layers = (
{
layerId = m01;
shapes = (
{
closed = 1;
nodes = (
(490,700,l),
(125,700,l),
(2,0,l),
(367,0,l),
(377,58,l),
(82,58,l),
(129,323,l),
(394,323,l),
(404,381,l),
(139,381,l),
(185,642,l),
(480,642,l)
);
},
{
closed = 1;
nodes = (
(311,802,l),
(192,885,l),
(182,829,l),
(302,747,l),
(450,829,l),
(460,885,l)
);
}
);
width = 503;
}
);
note = Ecaron;
unicode = 282;
},
{
glyphname = ecaron;
lastChange = "2022-10-20 16:10:08 +0000";
layers = (
{
layerId = m01;
shapes = (
{
closed = 1;
nodes = (
(387,494,o),
(468,450,o),
(504,364,o),
(492,303,q),
(108,303,l),
(130,394,o),
(257,494,o),
(335,494,qs)
);
},
{
closed = 1;
nodes = (
(458,173,l),
(433,117,o),
(328,51,o),
(260,51,qs),
(208,51,o),
(128,96,o),
(90,184,o),
(98,246,q),
(551,246,l),
(556,265,o),
(562,301,qs),
(575,371,o),
(532,486,o),
(427,554,o),
(349,554,qs),
(271,554,o),
(137,486,o),
(47,358,o),
(32,273,qs),
(17,188,o),
(63,61,o),
(173,-8,o),
(250,-8,qs),
(349,-8,o),
(498,93,o),
(532,173,q)
);
},
{
closed = 1;
nodes = (
(362,658,l),
(243,741,l),
(233,685,l),
(353,603,l),
(501,685,l),
(511,741,l)
);
}
);
width = 622;
}
);
note = ecaron;
unicode = 283;
},
{
glyphname = Gbreve;
lastChange = "2022-10-20 16:10:08 +0000";
layers = (
{
layerId = m01;
shapes = (
{
closed = 1;
nodes = (
(344,707,o),
(170,616,o),
(50,453,o),
(32,350,qs),
(14,247,o),
(76,84,o),
(218,-7,o),
(315,-7,qs),
(409,-7,o),
(575,79,o),
(692,228,o),
(713,320,qs),
(722,371,l),
(354,371,l),
(344,314,l),
(638,314,l),
(619,236,o),
(527,119,o),
(399,56,o),
(326,56,qs),
(248,56,o),
(137,128,o),
(89,262,o),
(104,350,qs),
(120,438,o),
(215,571,o),
(352,643,o),
(430,643,qs),
(513,643,o),
(622,564,o),
(640,495,q),
(722,495,l),
(701,595,o),
(553,707,o),
(441,707,qs)
);
},
{
closed = 1;
nodes = (
(613,886,l),
(568,886,l),
(554,806,o),
(463,806,qs),
(372,806,o),
(386,886,q),
(342,886,l),
(339,873,ls),
(330,820,o),
(388,750,o),
(453,750,qs),
(518,750,o),
(601,820,o),
(610,873,qs)
);
}
);
width = 782;
}
);
note = Gbreve;
unicode = 286;
},
{
glyphname = gbreve;
lastChange = "2022-10-20 16:10:08 +0000";
layers = (
{
layerId = m01;
shapes = (
{
closed = 1;
nodes = (
(40,190,o),
(84,62,o),
(191,-8,o),
(266,-8,qs),
(343,-8,o),
(469,65,o),
(505,121,q),
(481,-14,ls),
(470,-74,o),
(407,-162,o),
(315,-207,o),
(262,-207,qs),
(189,-207,o),
(100,-139,o),
(92,-82,q),
(23,-82,l),
(25,-168,o),
(146,-268,o),
(251,-268,qs),
(325,-268,o),
(452,-205,o),
(538,-89,o),
(551,-14,qs),
(649,546,l),
(579,546,l),
(559,427,l),
(543,482,o),
(442,554,o),
(365,554,qs),
(290,554,o),
(159,485,o),
(69,358,o),
(55,274,qs)
);
},
{
closed = 1;
nodes = (
(520,207,o),
(448,107,o),
(346,53,o),
(290,53,qs),
(232,53,o),
(149,106,o),
(114,207,o),
(126,274,qs),
(138,342,o),
(208,441,o),
(309,493,o),
(367,493,qs),
(423,493,o),
(507,439,o),
(543,339,o),
(531,273,qs)
);
},
{
closed = 1;
nodes = (
(564,742,l),
(519,742,l),
(505,662,o),
(414,662,qs),
(323,662,o),
(337,742,q),
(293,742,l),
(291,729,ls),
(281,676,o),
(339,606,o),
(404,606,qs),
(469,606,o),
(552,676,o),
(562,729,qs)
);
}
);
width = 675;
}
);
note = gbreve;
unicode = 287;
},
{
glyphname = Gdotaccent;
lastChange = "2022-10-20 16:10:08 +0000";
layers = (
{
layerId = m01;
shapes = (
{
closed = 1;
nodes = (
(347,707,o),
(173,616,o),
(54,453,o),
(35,350,qs),
(17,247,o),
(80,84,o),
(222,-7,o),
(319,-7,qs),
(413,-7,o),
(579,79,o),
(695,228,o),
(716,320,qs),
(725,371,l),
(357,371,l),
(347,314,l),
(641,314,l),
(622,236,o),
(531,119,o),
(403,56,o),
(330,56,qs),
(252,56,o),
(140,128,o),
(92,262,o),
(107,350,qs),
(123,438,o),
(218,571,o),
(355,643,o),
(433,643,qs),
(516,643,o),
(625,564,o),
(643,495,q),
(725,495,l),
(705,595,o),
(556,707,o),
(444,707,qs)
);
},
{
closed = 1;
nodes = (
(475,757,o),
(507,784,o),
(510,803,qs),
(514,822,o),
(491,849,o),
(472,849,qs),
(453,849,o),
(422,822,o),
(418,803,qs),
(415,784,o),
(437,757,o),
(456,757,qs)
);
}
);
width = 782;
}
);
note = Gdotaccent;
unicode = 288;
},
{
glyphname = gdotaccent;
lastChange = "2022-10-20 16:10:08 +0000";
layers = (
{
layerId = m01;
shapes = (
{
closed = 1;
nodes = (
(43,190,o),
(87,62,o),
(194,-8,o),
(269,-8,qs),
(346,-8,o),
(472,65,o),
(508,121,q),
(484,-14,ls),
(473,-74,o),
(410,-162,o),
(318,-207,o),
(265,-207,qs),
(192,-207,o),
(103,-139,o),
(95,-82,q),
(26,-82,l),
(28,-168,o),
(149,-268,o),
(254,-268,qs),
(328,-268,o),
(455,-205,o),
(541,-89,o),
(554,-14,qs),
(653,546,l),
(583,546,l),
(562,427,l),
(546,482,o),
(445,554,o),
(368,554,qs),
(293,554,o),
(162,485,o),
(73,358,o),
(58,274,qs)
);
},
{
closed = 1;
nodes = (
(523,207,o),
(451,107,o),
(349,53,o),
(293,53,qs),
(235,53,o),
(152,106,o),
(117,207,o),
(129,274,qs),
(141,342,o),
(211,441,o),
(312,493,o),
(370,493,qs),
(426,493,o),
(510,439,o),
(546,339,o),
(535,273,qs)
);
},
{
closed = 1;
nodes = (
(428,613,o),
(459,640,o),
(463,659,qs),
(466,678,o),
(444,705,o),
(425,705,qs),
(406,705,o),
(374,678,o),
(371,659,qs),
(367,640,o),
(390,613,o),
(409,613,qs)
);
}
);
width = 675;
}
);
note = gdotaccent;
unicode = 289;
},
{
glyphname = uni0122;
lastChange = "2022-10-20 16:10:08 +0000";
layers = (
{
layerId = m01;
shapes = (
{
closed = 1;
nodes = (
(301,-52,l),
(289,-121,l),
(332,-121,l),
(330,-135,ls),
(320,-191,o),
(274,-191,q),
(268,-226,l),
(312,-226,o),
(367,-175,o),
(377,-119,qs),
(382,-90,o),
(380,-52,q)
);
},
{
closed = 1;
nodes = (
(379,707,o),
(205,616,o),
(85,453,o),
(67,350,qs),
(49,247,o),
(111,84,o),
(253,-7,o),
(350,-7,qs),
(444,-7,o),
(611,79,o),
(727,228,o),
(748,320,qs),
(757,371,l),
(389,371,l),
(379,314,l),
(673,314,l),
(654,236,o),
(563,119,o),
(434,56,o),
(361,56,qs),
(283,56,o),
(172,128,o),
(124,262,o),
(139,350,qs),
(155,438,o),
(250,571,o),
(387,643,o),
(465,643,qs),
(548,643,o),
(657,564,o),
(675,495,q),
(757,495,l),
(737,595,o),
(588,707,o),
(476,707,qs)
);
}
);
width = 782;
}
);
note = uni0122;
unicode = 290;
},
{
glyphname = uni0123;
lastChange = "2022-10-20 16:10:08 +0000";
layers = (
{
layerId = m01;
shapes = (
{
closed = 1;
nodes = (
(433,595,l),
(446,672,l),
(400,672,l),
(404,696,ls),
(409,722,o),
(435,747,o),
(460,747,q),
(467,783,l),
(422,783,o),
(367,734,o),
(357,680,qs),
(351,645,o),
(352,595,q)
);
},
{
closed = 1;
nodes = (
(36,190,o),
(81,62,o),
(187,-8,o),
(262,-8,qs),
(339,-8,o),
(465,65,o),
(501,121,q),
(477,-14,ls),
(467,-74,o),
(403,-162,o),
(311,-207,o),
(258,-207,qs),
(185,-207,o),
(96,-139,o),
(88,-82,q),
(19,-82,l),
(21,-168,o),
(142,-268,o),
(247,-268,qs),
(321,-268,o),
(448,-205,o),
(534,-89,o),
(547,-14,qs),
(646,546,l),
(576,546,l),
(555,427,l),
(540,482,o),
(438,554,o),
(361,554,qs),
(286,554,o),
(155,485,o),
(66,358,o),
(51,274,qs)
);
},
{
closed = 1;
nodes = (
(516,207,o),
(444,107,o),
(342,53,o),
(286,53,qs),
(228,53,o),
(145,106,o),
(110,207,o),
(122,274,qs),
(134,342,o),
(204,441,o),
(306,493,o),
(364,493,qs),
(420,493,o),
(503,439,o),
(539,339,o),
(528,273,qs)
);
}
);
width = 675;
}
);
note = uni0123;
unicode = 291;
},
{
glyphname = Itilde;
lastChange = "2022-10-20 16:10:08 +0000";
layers = (
{
layerId = m01;
shapes = (
{
closed = 1;
nodes = (
(6,0,l),
(76,0,l),
(199,699,l),
(129,699,l)
);
},
{
closed = 1;
nodes = (
(84,750,l),
(98,795,o),
(134,795,qs),
(147,795,o),
(166,785,o),
(178,774,qs),
(194,761,o),
(219,748,o),
(238,748,qs),
(274,748,o),
(331,797,o),
(343,841,q),
(301,841,l),
(294,819,o),
(266,796,o),
(249,796,qs),
(236,796,o),
(216,807,o),
(203,818,qs),
(187,830,o),
(163,843,o),
(145,843,qs),
(109,843,o),
(55,795,o),
(41,750,q)
);
}
);
width = 229;
}
);
note = Itilde;
unicode = 296;
},
{
glyphname = itilde;
lastChange = "2022-10-20 16:10:08 +0000";
layers = (
{
layerId = m01;
shapes = (
{
closed = 1;
nodes = (
(18,0,l),
(88,0,l),
(185,546,l),
(115,546,l)
);
},
{
closed = 1;
nodes = (
(71,606,l),
(85,651,o),
(121,651,qs),
(134,651,o),
(153,641,o),
(165,630,qs),
(181,617,o),
(206,604,o),
(225,604,qs),
(261,604,o),
(319,653,o),
(330,697,q),
(288,697,l),
(281,675,o),
(253,652,o),
(236,652,qs),
(223,652,o),
(203,663,o),
(190,674,qs),
(174,686,o),
(151,699,o),
(133,699,qs),
(97,699,o),
(42,651,o),
(28,606,q)
);
}
);
width = 229;
}
);
note = itilde;
unicode = 297;
},
{
glyphname = Imacron;
lastChange = "2022-10-20 16:10:08 +0000";
layers = (
{
layerId = m01;
shapes = (
{
closed = 1;
nodes = (
(6,0,l),
(76,0,l),
(199,699,l),
(129,699,l)
);
},
{
closed = 1;
nodes = (
(10,790,l),
(349,790,l),
(358,844,l),
(19,844,l)
);
}
);
width = 229;
}
);
note = Imacron;
unicode = 298;
},
{
glyphname = imacron;
lastChange = "2022-10-20 16:10:08 +0000";
layers = (
{
layerId = m01;
shapes = (
{
closed = 1;
nodes = (
(18,0,l),
(88,0,l),
(185,546,l),
(115,546,l)
);
},
{
closed = 1;
nodes = (
(-3,646,l),
(336,646,l),
(346,700,l),
(7,700,l)
);
}
);
width = 229;
}
);
note = imacron;
unicode = 299;
},
{
glyphname = uni012C;
lastChange = "2022-10-20 16:10:08 +0000";
layers = (
{
layerId = m01;
shapes = (
{
closed = 1;
nodes = (
(2,0,l),
(72,0,l),
(195,699,l),
(125,699,l)
);
},
{
closed = 1;
nodes = (
(329,886,l),
(284,886,l),
(270,806,o),
(179,806,qs),
(88,806,o),
(102,886,q),
(58,886,l),
(56,873,ls),
(46,820,o),
(104,750,o),
(169,750,qs),
(234,750,o),
(317,820,o),
(327,873,qs)
);
}
);
width = 229;
}
);
note = uni012C;
unicode = 300;
},
{
glyphname = uni012D;
lastChange = "2022-10-20 16:10:08 +0000";
layers = (
{
layerId = m01;
shapes = (
{
closed = 1;
nodes = (
(15,0,l),
(85,0,l),
(181,546,l),
(111,546,l)
);
},
{
closed = 1;
nodes = (
(316,742,l),
(271,742,l),
(257,662,o),
(166,662,qs),
(75,662,o),
(89,742,q),
(45,742,l),
(43,729,ls),
(34,676,o),
(91,606,o),
(156,606,qs),
(221,606,o),
(305,676,o),
(314,729,qs)
);
}
);
width = 229;
}
);
note = uni012D;
unicode = 301;
},
{
glyphname = Iogonek;
lastChange = "2022-10-20 16:10:08 +0000";
layers = (
{
layerId = m01;
shapes = (
{
closed = 1;
nodes = (
(85,-138,l),
(48,-152,o),
(18,-152,qs),
(-10,-152,o),
(-39,-125,o),
(-35,-101,qs),
(-27,-59,o),
(41,-28,qs),
(104,0,l),
(106,0,l),
(229,699,l),
(159,699,l),
(39,16,l),
(34,14,ls),
(-82,-35,o),
(-95,-108,qs),
(-103,-155,o),
(-46,-200,o),
(2,-200,qs),
(38,-200,o),
(76,-187,q)
);
}
);
width = 229;
}
);
note = Iogonek;
unicode = 302;
},
